<svg width="28" height="28" viewBox="0 0 28 28" fill="none" xmlns="http://www.w3.org/2000/svg">
<path d="M8.79494 11.7375C10.1735 10.1299 11.8488 8.23052 13.5405 6.44319L5.76581 2.38692C5.69767 2.35145 5.62441 2.33325 5.55114 2.33325C5.44287 2.33325 5.33694 2.36919 5.25107 2.44012L2.50147 4.71512C2.38947 4.80892 2.33301 4.94145 2.33301 5.07632C2.33301 5.19485 2.37874 5.31385 2.46974 5.40485L8.79494 11.7375Z" fill="white"/>
<path d="M26.0797 22.6953L20.2659 11.4669L22.3099 9.42285C23.6521 8.08072 24.7889 6.49919 25.6027 4.56719C25.6433 4.44865 25.6662 4.32592 25.6662 4.19992C25.6662 3.16905 24.2037 2.33325 22.3995 2.33325C21.2175 2.33325 20.1847 2.69352 19.6112 3.23112C14.9557 6.92619 6.99955 16.7999 6.99955 16.7999H3.73288C3.55695 16.7999 3.39548 16.8993 3.31661 17.0571L1.91521 19.8603C1.88161 19.928 1.86621 19.998 1.86621 20.0666C1.86528 20.3111 2.06315 20.5333 2.33288 20.5333H6.99955V25.2013C6.99955 25.4715 7.22168 25.6671 7.46621 25.6666C7.53481 25.6666 7.60481 25.6512 7.67248 25.6176L10.4757 24.2162C10.6335 24.1373 10.7329 23.9759 10.7329 23.7999V20.9999L14.3859 17.3469L22.5713 25.5299C22.6599 25.6185 22.7808 25.6666 22.8933 25.6666C23.0011 25.6666 23.1098 25.633 23.1985 25.5597L25.9635 23.2717C26.0703 23.183 26.1324 23.0682 26.1324 22.9217C26.1329 22.8447 26.1175 22.7672 26.0797 22.6953ZM17.0044 10.0048L21.6711 5.33812C21.798 5.21165 21.973 5.13325 22.1662 5.13325C22.5526 5.13325 22.8662 5.44685 22.8662 5.83325C22.8662 6.02645 22.7878 6.20145 22.6613 6.32839L17.9947 10.9951C17.8677 11.1215 17.6927 11.1999 17.4995 11.1999C17.1131 11.1999 16.7995 10.8863 16.7995 10.4999C16.7995 10.3067 16.8779 10.1317 17.0044 10.0048ZM13.328 15.6617L10.9947 17.9951C10.8677 18.1215 10.6927 18.1999 10.4995 18.1999C10.1131 18.1999 9.79955 17.8863 9.79955 17.4999C9.79955 17.3067 9.87795 17.1317 10.0044 17.0048L12.3377 14.6715C12.4647 14.545 12.6397 14.4666 12.8329 14.4666C13.2193 14.4666 13.5329 14.7802 13.5329 15.1666C13.5329 15.3598 13.4545 15.5348 13.328 15.6617Z" fill="white"/>
</svg>
