<svg width="28" height="28" viewBox="0 0 28 28" fill="none" xmlns="http://www.w3.org/2000/svg">
<path d="M23.1217 21.616C24.42 20.7508 25.1998 19.2939 25.1998 17.7334V7.00003L13.9998 1.8667L2.7998 7.00003V17.7334C2.7998 19.2939 3.5796 20.7508 4.87787 21.616L13.9998 26.6L23.1217 21.616ZM13.9998 3.73337C14.515 3.73337 14.9331 4.1515 14.9331 4.6667C14.9331 5.1819 14.515 5.60003 13.9998 5.60003C13.4846 5.60003 13.0665 5.1819 13.0665 4.6667C13.0665 4.1515 13.4846 3.73337 13.9998 3.73337ZM13.9998 7.00003C14.515 7.00003 14.9331 7.41817 14.9331 7.93337C14.9331 8.44857 14.515 8.8667 13.9998 8.8667C13.4846 8.8667 13.0665 8.44857 13.0665 7.93337C13.0665 7.41817 13.4846 7.00003 13.9998 7.00003ZM13.9998 10.2667C14.515 10.2667 14.9331 10.6848 14.9331 11.2C14.9331 11.7152 14.515 12.1334 13.9998 12.1334C13.4846 12.1334 13.0665 11.7152 13.0665 11.2C13.0665 10.6848 13.4846 10.2667 13.9998 10.2667ZM7.07634 15.2913L9.77321 12.7092L13.0665 16.1845L19.2209 9.89803L21.8958 12.502L14.7591 19.832C14.3008 20.2902 13.6899 20.5334 13.0665 20.5334C12.443 20.5334 11.8825 20.2902 11.4415 19.8497L7.07634 15.2913ZM13.0665 22.8667C13.0665 22.3515 13.4846 21.9334 13.9998 21.9334C14.515 21.9334 14.9331 22.3515 14.9331 22.8667C14.9331 23.3819 14.515 23.8 13.9998 23.8C13.4846 23.8 13.0665 23.3819 13.0665 22.8667Z" fill="white"/>
<circle cx="14" cy="23" r="2" fill="white"/>
<circle cx="14" cy="11" r="2" fill="white"/>
<circle cx="14" cy="8" r="2" fill="white"/>
<circle cx="14" cy="5" r="2" fill="white"/>
</svg>
