<svg width="28" height="28" viewBox="0 0 28 28" fill="none" xmlns="http://www.w3.org/2000/svg">
<path d="M11.9377 25.0768C12.913 26.0521 14.2355 26.6 15.6145 26.6C20.9023 26.6 23.2095 22.295 23.6981 21.2342C23.7658 21.0877 23.7994 20.9309 23.7994 20.7694C23.7994 20.3779 23.5945 20.0153 23.2585 19.8137L17.8065 16.5396C17.5815 16.4047 17.3244 16.3333 17.0621 16.3333C16.6473 16.3333 16.252 16.513 15.9757 16.8219C15.1147 17.786 14.5356 18.7077 14.0171 19.2318C13.7735 19.4777 13.4142 19.6 13.0679 19.6C12.7086 19.6 12.367 19.4581 12.1117 19.2052L8.79421 15.8876C8.54128 15.6323 8.39941 15.2908 8.39941 14.9314C8.39941 14.5852 8.52168 14.2258 8.76761 13.9827C9.29168 13.4642 10.2133 12.8846 11.1775 12.0241C11.4864 11.7478 11.6661 11.3516 11.6661 10.9377C11.6661 10.6754 11.5951 10.4183 11.4598 10.1929L8.18521 4.74082C7.98408 4.40482 7.62148 4.19995 7.22995 4.19995C7.06848 4.19995 6.91168 4.23355 6.76515 4.30122C5.70441 4.78982 1.39941 7.09702 1.39941 12.3844C1.39941 13.7638 1.94728 15.0864 2.92261 16.0612L11.9377 25.0768Z" fill="white"/>
<path d="M19.834 1.3999C16.097 1.3999 13.0674 4.4295 13.0674 8.16657C13.0674 9.27584 13.3394 10.3193 13.8126 11.2433L13.0958 13.6228C12.9484 14.1156 13.3996 14.5786 13.8962 14.4432L16.1432 13.8338C17.2048 14.5268 18.4714 14.9332 19.834 14.9332C23.5711 14.9332 26.6007 11.9036 26.6007 8.16657C26.6007 4.4295 23.5711 1.3999 19.834 1.3999ZM19.6007 13.0666C19.0855 13.0666 18.6674 12.6484 18.6674 12.1332C18.6674 11.618 19.0855 11.1999 19.6007 11.1999C20.1159 11.1999 20.534 11.618 20.534 12.1332C20.534 12.6484 20.1159 13.0666 19.6007 13.0666ZM20.534 8.7065V9.33324C20.534 9.84844 20.1159 10.2666 19.6007 10.2666C19.0855 10.2666 18.6674 9.84844 18.6674 9.33324V8.35137C18.6674 7.6845 19.1308 7.1203 19.7944 6.9803C20.2232 6.88977 20.534 6.50524 20.534 6.06657C20.534 5.55184 20.1154 5.13324 19.6007 5.13324C19.3473 5.13324 19.0491 5.24057 18.6893 5.46177C18.547 5.5495 18.3799 5.5999 18.2007 5.5999C17.6855 5.5999 17.2674 5.18177 17.2674 4.66657C17.2674 4.3301 17.4452 4.03517 17.7121 3.87137C18.3748 3.46444 18.9922 3.26657 19.6007 3.26657C21.1449 3.26657 22.4007 4.52237 22.4007 6.06657C22.4007 7.2589 21.6344 8.31637 20.534 8.7065Z" fill="white"/>
</svg>
