<svg width="89" height="105" viewBox="0 0 89 105" fill="none" xmlns="http://www.w3.org/2000/svg">
<path fill-rule="evenodd" clip-rule="evenodd" d="M80.236 0.401917H8.76472C4.43824 0.401917 0.898438 3.94936 0.898438 8.28458V79.9079C0.898438 84.2431 4.43824 87.7906 8.76472 87.7906H33.0214L44.5004 104.859L55.9793 87.7906H80.236C84.5625 87.7906 88.102 84.2431 88.102 79.9079V8.28458C88.102 3.94936 84.5625 0.401917 80.236 0.401917ZM44.5003 73.1454C41.3156 73.1454 38.7338 70.5583 38.7338 67.3668C38.7338 64.1753 41.3156 61.5882 44.5003 61.5882C47.685 61.5882 50.2668 64.1753 50.2668 67.3668C50.2668 70.5583 47.685 73.1454 44.5003 73.1454ZM50.2668 51.2996C50.2668 54.4778 47.6719 57.0784 44.5003 57.0784C41.3287 57.0784 38.7338 54.4778 38.7338 51.2996V22.0843C38.7338 18.9061 41.3287 16.3057 44.5003 16.3057C47.6719 16.3057 50.2668 18.9061 50.2668 22.0843V51.2996Z" fill="#2D64F4"/>
</svg>
