<svg width="60" height="74" viewBox="0 0 60 74" fill="none" xmlns="http://www.w3.org/2000/svg">
<path d="M53.6155 0.10376H30.3275H6.38346C3.02146 0.10376 0.397461 2.81225 0.397461 6.09527V67.8981C0.397461 71.2632 3.10346 73.8896 6.38346 73.8896H30.3275H53.6975C57.0595 73.8896 59.6835 71.1811 59.6835 67.8981V6.09527C59.6835 2.81225 56.9775 0.10376 53.6155 0.10376ZM8.26946 8.72168H47.7115C48.3675 8.72168 48.9415 9.29621 48.9415 9.95282C48.9415 10.6094 48.3675 11.1839 47.7115 11.1839H8.26946C7.61346 11.1839 7.03946 10.6094 7.03946 9.95282C7.12146 9.29621 7.61346 8.72168 8.26946 8.72168ZM8.26946 14.467H35.3295C35.9855 14.467 36.5595 15.0415 36.5595 15.6981C36.5595 16.3547 35.9855 16.9292 35.3295 16.9292H8.26946C7.61346 16.9292 7.03946 16.3547 7.03946 15.6981C7.12146 15.0415 7.61346 14.467 8.26946 14.467ZM8.26946 56.6538H24.7515C25.4075 56.6538 25.9815 57.2283 25.9815 57.8849C25.9815 58.5415 25.4075 59.116 24.7515 59.116H8.26946C7.61346 59.116 7.03946 58.5415 7.03946 57.8849C7.12146 57.2283 7.61346 56.6538 8.26946 56.6538ZM8.26946 50.6622H24.7515C25.4075 50.6622 25.9815 51.2368 25.9815 51.8934C25.9815 52.55 25.4075 53.1245 24.7515 53.1245H8.26946C7.61346 53.1245 7.03946 52.55 7.03946 51.8934C7.12146 51.1547 7.61346 50.6622 8.26946 50.6622ZM8.26946 62.399H16.4695C17.1255 62.399 17.6995 62.9736 17.6995 63.6302C17.6995 64.2868 17.1255 64.8613 16.4695 64.8613H8.26946C7.61346 64.8613 7.03946 64.2868 7.03946 63.6302C7.12146 62.8915 7.61346 62.399 8.26946 62.399ZM35.9855 56.6538H52.4675C53.1235 56.6538 53.6975 57.2283 53.6975 57.8849C53.6975 58.5415 53.1235 59.116 52.4675 59.116H35.9855C35.3295 59.116 34.7555 58.5415 34.7555 57.8849C34.7555 57.2283 35.2475 56.6538 35.9855 56.6538ZM35.9855 50.6622H52.4675C53.1235 50.6622 53.6975 51.2368 53.6975 51.8934C53.6975 52.55 53.1235 53.1245 52.4675 53.1245H35.9855C35.3295 53.1245 34.7555 52.55 34.7555 51.8934C34.7555 51.1547 35.2475 50.6622 35.9855 50.6622ZM35.9855 62.399H44.1855C44.8415 62.399 45.4155 62.9736 45.4155 63.6302C45.4155 64.2868 44.8415 64.8613 44.1855 64.8613H35.9855C35.3295 64.8613 34.7555 64.2868 34.7555 63.6302C34.7555 62.8915 35.2475 62.399 35.9855 62.399ZM52.3855 42.2085C47.8755 42.2085 45.7435 38.2689 43.8575 34.8217C42.0535 31.6207 40.4955 28.8302 37.5435 28.8302C34.5915 28.8302 33.0335 31.6207 31.2295 34.8217C29.3435 38.2689 27.1295 42.2085 22.7015 42.2085C18.1915 42.2085 16.0595 38.2689 14.1735 34.8217C12.3695 31.6207 10.8115 28.8302 7.85946 28.8302C7.12146 28.8302 6.54746 28.2556 6.54746 27.517C6.54746 26.7783 7.12146 26.2038 7.85946 26.2038C12.3695 26.2038 14.5015 30.1434 16.3875 33.5905C18.1915 36.7915 19.7495 39.5821 22.7015 39.5821C25.6535 39.5821 27.2115 36.7915 29.0155 33.5905C30.9015 30.1434 33.1155 26.2038 37.5435 26.2038C41.9715 26.2038 44.1855 30.1434 46.0715 33.5905C47.8755 36.7915 49.4335 39.5821 52.3855 39.5821C53.1235 39.5821 53.6975 40.1566 53.6975 40.8953C53.6975 41.6339 53.1235 42.2085 52.3855 42.2085Z" fill="#2D64F4" fill-opacity="0.1"/>
</svg>
