<svg width="87" height="88" viewBox="0 0 87 88" fill="none" xmlns="http://www.w3.org/2000/svg">
<g clip-path="url(#clip0_158_2321)">
<path d="M27.7494 22.6809H59.1674C61.4058 22.6809 63.2273 20.8649 63.2273 18.6237V14.6872C63.2273 12.4488 61.4058 10.63 59.1674 10.63H27.7494C25.5055 10.63 23.6895 12.446 23.6895 14.6872V18.6265C23.6895 20.8622 25.5055 22.6809 27.7494 22.6809ZM56.3721 13.4857H59.2744V19.8307H56.3721V13.4857ZM49.1876 13.4857H52.0926V19.8307H49.1876V13.4857ZM42.0086 13.4857H44.9137V19.8307H42.0086V13.4857ZM34.8269 13.4857H37.7265V19.8307H34.8269V13.4857ZM27.6424 13.4857H30.5475V19.8307H27.6424V13.4857Z" fill="#2D64F4" fill-opacity="0.1"/>
<path d="M28.5416 24.7109V31.0697L24.6572 35.9608H62.2639L58.3768 31.0697V24.7109H28.5416Z" fill="#2D64F4" fill-opacity="0.1"/>
<path d="M30.0572 77.1527H56.8529C62.2104 77.1527 63.8974 73.0708 64.4296 69.5759H22.4805C23.0154 73.0708 24.7025 77.1527 30.0572 77.1527Z" fill="#2D64F4" fill-opacity="0.1"/>
<path d="M22.2373 39.0112V66.5339H64.6775V39.0112H22.2373ZM53.049 56.8832H47.5708V62.3642H39.3494V56.8832H33.8685V48.6591H39.3494V43.1782H47.5708V48.6591H53.049V56.8832Z" fill="#2D64F4" fill-opacity="0.1"/>
</g>
<defs>
<clipPath id="clip0_158_2321">
<rect width="86.9136" height="88" fill="white"/>
</clipPath>
</defs>
</svg>
