<svg width="15" height="15" viewBox="0 0 15 15" fill="none" xmlns="http://www.w3.org/2000/svg">
<g clip-path="url(#clip0_771_8015)">
<path fill-rule="evenodd" clip-rule="evenodd" d="M8.05665 8.59078C8.05665 8.59078 8.32353 8.61453 8.46665 8.4364L8.74665 8.08453C8.88165 7.90953 9.2079 7.79828 9.52728 7.97578C9.94977 8.21453 10.496 8.58953 10.8704 8.9389C11.0766 9.11265 11.1248 9.3689 10.9841 9.63953L10.9829 9.64515C10.8379 9.90015 10.6448 10.1395 10.4004 10.3627L10.3948 10.3664C10.1198 10.5958 9.80352 10.7289 9.4654 10.6189L9.45915 10.6102C8.85165 10.4383 7.39415 9.69515 6.4654 8.95453C4.94602 7.75578 3.86602 5.77828 3.56728 4.71828L3.5579 4.71203C3.4479 4.37265 3.58227 4.0564 3.8104 3.78203L3.81477 3.77703C4.0379 3.53265 4.27665 3.3389 4.53227 3.19453L4.5379 3.19328C4.8079 3.05265 5.06415 3.10015 5.23853 3.30703C5.4679 3.5439 5.89853 4.1139 6.20103 4.65015C6.37853 4.9689 6.26728 5.29578 6.0929 5.43015L5.7404 5.71015C5.5629 5.8539 5.58603 6.12078 5.58603 6.12078C5.58603 6.12078 6.10728 8.09328 8.05665 8.59078ZM11.1235 6.95578C11.0191 6.95578 10.9342 6.8714 10.9335 6.76703C10.9248 5.62328 10.581 4.71203 9.91228 4.05953C9.24228 3.4064 8.3954 3.0714 7.3954 3.06453C7.2904 3.0639 7.20603 2.97828 7.20728 2.87328C7.2079 2.7689 7.29228 2.68515 7.39665 2.68515H7.3979C8.49915 2.69265 9.43415 3.0639 10.1773 3.78765C10.921 4.5139 11.3035 5.51578 11.3129 6.76453C11.3135 6.8689 11.2298 6.95453 11.1248 6.95578H11.1235ZM10.1267 6.56578H10.1223C10.0173 6.56328 9.93415 6.4764 9.93665 6.37203C9.95165 5.72328 9.76603 5.19828 9.3704 4.7664C8.97665 4.33578 8.43603 4.10078 7.71728 4.04828C7.6129 4.04015 7.53415 3.94953 7.54165 3.84515C7.54978 3.74078 7.6404 3.66203 7.74477 3.66953C8.55352 3.7289 9.19478 4.01203 9.6504 4.51015C10.1085 5.01015 10.3329 5.63953 10.316 6.38015C10.3135 6.48328 10.2292 6.56578 10.1267 6.56578ZM9.1529 6.23953C9.05228 6.23953 8.96853 6.16078 8.96353 6.0589C8.93165 5.41515 8.6279 5.10015 8.00915 5.0664C7.90415 5.06078 7.82415 4.9714 7.82978 4.86703C7.8354 4.76203 7.92415 4.68203 8.02915 4.68765C8.84665 4.7314 9.3004 5.19953 9.34228 6.04015C9.3479 6.14453 9.26728 6.2339 9.16228 6.2389L9.1529 6.23953ZM13.4135 8.40765C13.0354 11.4558 10.806 11.6483 10.3948 11.7802C10.2198 11.8364 8.59352 12.2408 6.54978 12.1077C6.54978 12.1077 5.02602 13.9452 4.5504 14.4233C4.47603 14.4977 4.38915 14.5277 4.3304 14.5139C4.24852 14.4939 4.22602 14.3964 4.22727 14.2552L4.23977 11.7452V11.7445C1.26352 10.9177 1.43665 7.81015 1.4704 6.18328C1.50415 4.5564 1.80978 3.22328 2.7179 2.32703C4.34915 0.849527 7.70977 1.07015 7.70977 1.07015C10.5479 1.08265 11.9079 1.93703 12.2235 2.22328C13.2704 3.11953 13.8035 5.26515 13.4135 8.40765ZM13.006 1.46203C12.6329 1.11953 11.1266 0.0257768 7.77165 0.0107768C7.77165 0.0107768 3.8154 -0.227973 1.88665 1.54203C0.8129 2.61578 0.4354 4.1864 0.3954 6.13453C0.356025 8.08328 0.30415 11.7333 3.8229 12.7233L3.82665 12.7245L3.82415 14.2345C3.82415 14.2345 3.80227 14.8464 4.20478 14.9714C4.69165 15.122 4.97728 14.6577 5.4429 14.1564C5.6979 13.8814 6.04978 13.4777 6.31603 13.1689C8.7229 13.3702 10.5735 12.9083 10.7842 12.8402C11.2698 12.682 14.0198 12.3302 14.4673 8.67953C14.9285 4.91578 14.2435 2.53578 13.006 1.46203Z" fill="#7C6EAC"/>
</g>
<defs>
<clipPath id="clip0_771_8015">
<rect width="15" height="15" rx="6" fill="white"/>
</clipPath>
</defs>
</svg>
