<svg width="20" height="20" viewBox="0 0 20 20" fill="none" xmlns="http://www.w3.org/2000/svg">
<path fill-rule="evenodd" clip-rule="evenodd" d="M2.5 9.775C2.5 5.5948 5.77502 2.5 10 2.5C14.225 2.5 17.5 5.5948 17.5 9.775C17.5 13.9552 14.225 17.05 10 17.05C9.24112 17.05 8.51305 16.9498 7.82898 16.7617C7.696 16.7251 7.55459 16.7354 7.4284 16.7911L5.93976 17.4482C5.55036 17.6201 5.1108 17.3432 5.09774 16.9177L5.0569 15.5836C5.05188 15.4192 4.97793 15.2656 4.85542 15.156C3.3961 13.8509 2.5 11.9615 2.5 9.775ZM7.69941 8.40724L5.49628 11.9025C5.28486 12.238 5.69718 12.616 6.01303 12.3763L8.37955 10.5803C8.53963 10.4588 8.76085 10.4581 8.92161 10.5787L10.6739 11.8929C11.1997 12.2873 11.9502 12.1488 12.3006 11.5928L14.5038 8.09746C14.7151 7.76201 14.3028 7.38401 13.987 7.62371L11.6205 9.41974C11.4604 9.54124 11.2392 9.54188 11.0784 9.42128L9.32613 8.10709C8.8003 7.71274 8.04985 7.85119 7.69941 8.40724Z" fill="#7C6EAC"/>
</svg>
