<svg width="20" height="20" viewBox="0 0 20 20" fill="none" xmlns="http://www.w3.org/2000/svg">
<path fill-rule="evenodd" clip-rule="evenodd" d="M3.53117 9.51806C7.55769 7.76377 10.2427 6.60723 11.5861 6.04845C15.4219 4.45302 16.2189 4.17588 16.7384 4.16672C16.8527 4.16471 17.1082 4.19303 17.2737 4.32731C17.4134 4.44069 17.4518 4.59386 17.4702 4.70136C17.4886 4.80886 17.5115 5.05375 17.4933 5.2451C17.2855 7.42913 16.3861 12.7292 15.9285 15.1753C15.7349 16.2104 15.3536 16.5574 14.9845 16.5914C14.1824 16.6652 13.5734 16.0613 12.7965 15.5521C11.5809 14.7552 10.8941 14.2591 9.71409 13.4815C8.3504 12.5829 9.23442 12.089 10.0116 11.2818C10.215 11.0705 13.749 7.85603 13.8174 7.56443C13.826 7.52796 13.8339 7.39201 13.7532 7.32023C13.6724 7.24845 13.5532 7.27299 13.4672 7.29251C13.3453 7.32019 11.4033 8.60379 7.64115 11.1433C7.08991 11.5218 6.59062 11.7063 6.14327 11.6966C5.65011 11.6859 4.70146 11.4178 3.99623 11.1885C3.13124 10.9073 2.44377 10.7587 2.50363 10.2812C2.53481 10.0324 2.87733 9.77808 3.53117 9.51806Z" fill="#7C6EAC"/>
</svg>
