<svg width="38" height="38" viewBox="0 0 38 38" fill="none" xmlns="http://www.w3.org/2000/svg">
<circle cx="19" cy="19" r="19" fill="#2D64F4"/>
<g clip-path="url(#clip0_158_2175)">
<path d="M10.5246 11.1358C9.18501 12.0111 6.90021 14.1554 9.41621 17.6636C9.67461 18.0233 9.91261 18.3761 10.1302 18.7154L13.4146 17.304C12.687 16.0011 11.123 13.0765 10.5246 11.1358Z" fill="white"/>
<path d="M25.9943 30.1561C25.9943 30.1561 25.3143 30.2647 25.1307 30.0272C24.9471 29.7965 24.3895 29.1315 23.9883 29.1315C23.591 29.1315 23.1555 28.2867 22.3699 27.9304C21.5607 27.5572 20.7719 25.6911 20.9215 24.8768C20.9419 24.7479 20.9691 24.4086 21.0099 23.9201L20.7039 23.7979C19.7451 24.9243 16.8347 28.0593 14.1895 28.3308C14.8287 29.4843 15.7399 30.6379 16.8755 30.8686C16.8755 30.8686 18.2491 32.8772 19.4595 31.6422C19.4728 31.6355 19.4796 31.6222 19.4929 31.6088C19.4929 31.6088 19.5064 31.629 19.5402 31.6628L19.5402 31.6616C19.5408 31.6622 19.5404 31.6619 19.541 31.6626V31.6693C19.813 31.9746 21.1248 33.3719 22.403 32.8503V32.8504C22.403 32.8504 22.4034 32.8503 22.4035 32.8502L22.4038 32.8501C22.424 32.8435 22.4507 32.8366 22.471 32.8232C22.471 32.8232 22.4778 32.83 22.4914 32.8368L22.4918 32.8363C22.4921 32.8364 22.4919 32.8364 22.4919 32.8364C22.6554 32.9112 23.7706 33.4473 24.1582 33.1148C24.1582 33.1148 24.1653 33.1153 24.1777 33.1213L24.1778 33.1218C24.1778 33.1218 24.1846 33.1218 24.1982 33.1286V33.1281C24.1986 33.1284 24.1984 33.1281 24.1989 33.1284C24.4437 33.1963 25.7765 33.5084 25.8922 32.1241V32.1038C25.8922 32.1038 25.8922 32.1038 25.8989 32.097C26.0419 32.0222 27.9323 30.9297 25.9943 30.1561Z" fill="white"/>
<path d="M22.3162 12.4997L22.7786 12.0654L23.3022 12.4522C24.3721 10.4096 33.3698 1.08924 33.713 0.706116H20.0178C20.0178 0.706116 19.0658 2.16504 17.665 4.01754L17.7738 4.64862C17.9166 5.51719 18.6714 8.57076 22.3162 12.4997Z" fill="white"/>
<path d="M20.4992 22.9839L21.0636 23.2078C21.2812 20.5274 21.7912 15.3635 23.2464 12.5542L22.2944 13.4635C18.16 9.21566 17.2828 5.85673 17.0992 4.75745C15.9668 6.20687 14.8794 7.49507 13.5428 8.82887C13.5428 8.82887 13.5428 8.82888 13.5428 8.83566C12.8828 9.45309 11.8934 10.4018 11.1288 10.7832C11.8292 13.226 14.3792 17.6299 14.3792 17.6299L10.612 19.2517C10.612 19.2517 10.5916 19.306 10.5576 19.3874C13.5988 24.5262 12.3445 24.4398 13.8488 27.6728C16.8 27.6457 20.4992 22.9839 20.4992 22.9839Z" fill="white"/>
</g>
<defs>
<clipPath id="clip0_158_2175">
<rect width="34" height="38" fill="white" transform="translate(4)"/>
</clipPath>
</defs>
</svg>
