<svg width="39" height="38" viewBox="0 0 39 38" fill="none" xmlns="http://www.w3.org/2000/svg">
<path d="M38 19C38 29.4934 29.4934 38 19 38C8.50659 38 0 29.4934 0 19C0 8.50659 8.50659 0 19 0C29.4934 0 38 8.50659 38 19Z" fill="#2D64F4"/>
<g clip-path="url(#clip0_158_2174)">
<path d="M8.54473 20.004C8.54473 20.004 10.1359 19.0382 11.3395 18.6977C11.1899 17.724 11.1219 17.2411 10.8567 15.8715C10.1971 15.9982 9.10913 16.2832 8.36113 16.8452C7.33889 17.6104 5.28114 18.4342 5.76353 20.2494C6.28713 22.2365 8.54473 20.004 8.54473 20.004Z" fill="white"/>
<path d="M11.7267 22.4265C11.7159 22.0763 11.8118 21.9803 11.4411 19.3786C9.63906 20.2336 5.38226 22.379 5.69506 24.0257C6.13836 26.3481 8.78879 23.5532 11.7267 22.4265Z" fill="white"/>
<path d="M12.0123 25.2527H12.0191C11.8695 24.3344 11.7607 23.3686 11.7335 22.6561C11.2779 22.9411 10.7135 23.329 10.4279 23.6852C10.4279 23.6852 7.2115 24.8411 7.9663 26.5906C8.5103 27.8415 10.8359 26.5986 12.1075 25.7911L12.0123 25.2527Z" fill="white"/>
<path d="M12.2573 26.6223L12.1756 26.1552C11.4743 26.8553 10.3053 28.057 11.176 28.5065C11.4548 28.6569 12.1144 28.459 12.8148 28.174C12.6244 27.7861 12.4476 27.2636 12.2844 26.5986L12.2573 26.6223Z" fill="white"/>
<path d="M25.2992 18.8877L25.3264 18.8561C25.42 17.3164 25.2044 15.607 24.4628 14.3119L23.8712 13.259C23.0824 12.7206 21.226 11.5411 20.4168 11.739C20.4168 11.739 19.7776 11.6836 18.8324 11.4381C17.8872 11.1927 17.6968 10.7177 16.2688 11.3115C16.2688 11.3115 13.9228 10.9394 13.814 11.6598C13.7638 12.0976 13.7829 12.5401 14.0044 12.9661V12.9502C15.1461 12.7769 13.9423 12.6696 19.5736 14.1931L19.6552 14.6998C19.8033 15.6075 22.4938 18.3761 23.13 19.0461C23.7964 19.7745 24.3948 20.9302 24.8096 21.8566C25.3349 20.0981 25.2879 18.9676 25.2992 18.8877Z" fill="white"/>
<path d="M32.95 15.254C33.168 15.8568 33.3792 16.5939 33.5008 17.249L33.5076 17.2569C33.8501 19.6354 33.8511 21.7045 32.5488 23.8673L38.322 25.2448V15.8161C38.322 15.8161 35.5272 15.2698 32.95 15.254Z" fill="white"/>
<path d="M24.4968 22.9015C24.4124 23.1471 24.0964 24.041 24.0684 24.1206C23.1844 24.659 23.028 24.0811 22.178 24.9123C22.0352 25.0152 21.9876 25.0865 21.7428 25.2211H21.736C21.1784 25.4981 20.75 25.4348 20.3216 25.6011C20.002 25.7277 19.6212 26.0286 19.3968 26.0998C19.1656 26.2581 18.8392 26.1156 18.3088 26.2027C17.1188 26.464 17.792 26.8044 15.9288 26.8044C15.0992 26.8044 15.3848 26.9469 13.4604 27.8811C12.4948 26.2027 12.5424 22.2206 12.0868 19.0777C12.624 18.8402 12.4812 18.579 12.012 18.579C11.8624 17.5973 11.7876 17.1144 11.5156 15.6577C13.406 14.5494 12.5968 15.2223 13.1272 14.9136C13.576 14.6127 13.372 14.7315 13.7052 14.5415C14.2016 14.4227 14.0316 14.3911 14.3716 14.304C14.4396 14.2881 14.5008 14.2723 14.562 14.2486C14.63 14.2486 14.8476 14.1536 15.0992 14.1299C15.2216 14.1141 15.412 14.027 15.48 13.8766C16.0988 14.0428 17.1664 14.3436 18.9888 14.8503C19.1928 16.1091 21.838 18.7057 22.6608 19.6241C23.436 20.4711 24.1295 21.999 24.4968 22.9015Z" fill="white"/>
<path d="M32.8795 17.6348C32.8115 17.5556 32.7859 16.7146 32.2063 15.2598C31.2758 15.2598 31.2099 14.9194 31.0366 14.9194C30.9676 14.9194 30.5517 15.1332 30.1799 14.7928C29.9601 14.6009 29.9263 15.0409 28.9899 14.4048C27.7035 13.5703 28.2852 14.0895 27.6773 14.0011C27.5686 13.9932 27.4666 13.9694 27.3645 13.9694C27.2217 13.9694 27.0858 14.017 26.943 14.0407C26.8885 14.1041 25.1539 13.9028 25.0321 13.8744C25.9112 15.4348 26.1398 17.3622 25.9841 19.234C25.9773 19.2419 25.9773 19.2419 25.9841 19.2498C25.7702 20.8064 25.6569 21.6808 25.0117 23.5327C25.6499 23.3206 26.1301 23.4759 26.6098 23.4061C27.0076 23.3704 27.5395 23.0646 28.0445 23.1053C28.7615 23.1575 28.5859 23.5516 30.0165 23.3268C30.6078 23.3268 31.2295 23.7227 31.7981 23.7227C33.0038 21.9208 33.2547 19.8218 32.8795 17.6348Z" fill="white"/>
</g>
<defs>
<clipPath id="clip0_158_2174">
<rect width="34" height="38" fill="white" transform="translate(5)"/>
</clipPath>
</defs>
</svg>
