<svg width="39" height="38" viewBox="0 0 39 38" fill="none" xmlns="http://www.w3.org/2000/svg">
<path d="M38 19C38 29.4934 29.4934 38 19 38C8.50659 38 0 29.4934 0 19C0 8.50659 8.50659 0 19 0C29.4934 0 38 8.50659 38 19Z" fill="#2D64F4"/>
<g clip-path="url(#clip0_158_2258)">
<path d="M26.0921 12.0913C26.0683 12.1668 25.8915 12.7261 25.9153 12.6506C25.8473 12.6377 24.2929 12.3451 24.3921 12.3638C24.3597 12.4358 24.0402 13.1453 24.0725 13.0736L23.6169 13.0019L23.5693 13.5755C23.6378 13.5773 24.447 13.5988 24.3785 13.597C24.4024 13.5215 24.654 12.7256 24.6301 12.8011C24.6998 12.806 26.1649 12.908 26.0717 12.9015C26.0859 12.8297 26.2151 12.1772 26.2009 12.249L27.3841 12.2634L26.1465 12.0985L26.0921 12.0913Z" fill="white"/>
<path d="M24.42 9.80416C24.4815 9.73181 25.0731 9.03634 25.0116 9.10869C25.0818 9.15128 26.6458 10.0999 26.5484 10.0408C26.6169 10.003 27.2561 9.65173 27.1876 9.68937L28.2824 10.5999C28.2144 10.5323 27.1393 9.46338 27.208 9.53163C27.1381 9.56189 26.4921 9.84151 26.562 9.81126C26.4938 9.76078 24.8599 8.55116 24.964 8.62824C24.8957 8.69492 24.3381 9.23989 24.4064 9.17314L23.6924 8.3988L23.3184 8.81465C23.3874 8.87667 24.489 9.86611 24.42 9.80416Z" fill="white"/>
<path d="M32.3552 7.91129C32.3669 7.83944 32.5233 6.87869 32.5116 6.95053C32.5799 6.92458 33.8358 6.44699 33.756 6.47732C33.7711 6.40555 33.9208 5.69574 33.9056 5.76751L34.538 5.71015L34.4564 5.14374C34.3884 5.15879 33.45 5.36672 33.518 5.35166C33.5107 5.42343 33.4222 6.28381 33.4296 6.21204C33.3616 6.24818 32.2511 6.83718 32.3212 6.79996C32.3174 6.87202 32.263 7.91172 32.2668 7.83959L31.5732 8.15506C31.6419 8.13369 32.4239 7.88992 32.3552 7.91129Z" fill="white"/>
<path d="M25.9834 7.55999C26.0537 7.49955 26.7949 6.86136 26.7246 6.92187C26.7683 6.99364 27.6224 8.39513 27.5678 8.30565C27.6351 8.23395 28.2743 7.55275 28.207 7.62452L28.8122 8.67848C28.7797 8.60664 28.2045 7.33593 28.241 7.41659C28.1719 7.4784 27.5463 8.03771 27.6154 7.97584C27.5794 7.90263 26.7835 6.28254 26.8334 6.38414C26.765 6.43246 26.0646 6.92718 26.133 6.87886L25.7114 5.96112L25.2354 6.2335C25.2762 6.3057 26.0312 7.64459 25.9834 7.55999Z" fill="white"/>
<path d="M29.465 6.03284C29.4601 6.10626 29.3712 7.44092 29.3766 7.35926C29.445 7.3946 30.1386 7.75309 30.0702 7.71775L30.145 8.67133C30.1479 8.5992 30.1887 7.57392 30.1858 7.64605C30.1175 7.59916 29.5327 7.19765 29.601 7.24454C29.6141 7.17219 29.8834 5.68747 29.8662 5.7819C29.7971 5.74992 29.1919 5.4703 29.261 5.50227C29.295 5.33737 29.3222 5.17246 29.3494 5.00756L28.8802 4.72076C28.8123 5.15016 28.799 5.37673 28.7578 5.81058C28.8264 5.83209 29.5336 6.05435 29.465 6.03284Z" fill="white"/>
<path d="M24.087 17.2664C24.0802 17.252 24.0802 17.2449 24.0802 17.2305C22.5502 18.9011 16.471 25.4041 12.7922 26.9313C12.7922 26.9313 8.70544 29.2113 8.01864 29.3332C7.32504 29.4551 6.92384 29.3117 6.68584 29.5769C6.44104 29.8423 5.60464 29.9354 5.68624 30.337C5.68624 30.337 5.62504 31.1831 6.55664 31.1257C7.48144 31.0683 7.81464 30.8963 7.81464 30.8963C7.81464 30.8963 8.28384 31.4125 10.8066 30.5665C10.8066 30.5665 12.8875 30.3155 14.737 30.5736C16.5934 30.8317 17.661 30.8246 17.8582 29.7563C18.0554 28.6951 17.4502 28.0499 18.1098 27.6268C18.7694 27.2038 19.7894 25.9921 22.2918 24.7661C24.0326 23.9129 26.7662 22.4932 28.7654 20.6363C27.3986 20.2563 26.093 19.5034 25.6102 19.1449C25.1682 18.8151 24.2842 17.9977 24.087 17.2664Z" fill="white"/>
<path d="M34.8581 13.0505C33.238 14.3318 32.3491 13.8461 32.1177 13.9683C32.0439 13.9974 31.6969 14.502 31.2949 14.9864C31.7574 15.5887 32.1449 16.449 32.3761 17.0154C33.3077 17.4385 35.0077 17.6822 37.1089 17.6822C37.6733 17.6822 38.1017 17.6607 38.2853 17.6536H38.3193V15.7034L34.8581 13.0505Z" fill="white"/>
<path d="M34.5723 21.6256C36.1771 23.1886 37.7955 24.7373 38.3191 25.1747V22.2207C37.8764 22.1499 39.4084 22.3753 34.5723 21.6256Z" fill="white"/>
<path d="M27.2424 14.0686C27.5529 13.6549 28.1381 13.6671 28.6024 13.6671C29.2055 13.4903 29.7044 13.7691 30.1868 14.1117C30.4828 14.3048 30.793 14.4945 30.7988 14.4988C31.3508 13.8497 31.5168 13.4375 31.8936 13.2871C32.4276 13.09 32.6185 13.4987 33.7704 12.9286C32.826 12.2221 32.8005 12.0551 31.8596 11.5592C31.812 11.5663 31.7032 11.5663 31.7032 11.5663C31.7032 11.9555 31.5154 12.2783 31.2068 12.441C31.2 12.4554 31.2 12.4697 31.1932 12.484C31.0912 12.8855 30.7648 13.1437 30.3636 13.1437C30.3092 13.1437 30.2548 13.1365 30.2004 13.1293C30.0372 13.3803 29.7652 13.5308 29.4524 13.5308C29.262 13.5308 29.0716 13.4735 28.888 13.3946C28.5348 13.6924 28.0433 13.7079 27.6368 13.3372C27.4532 13.5452 27.2696 13.7531 27.0928 13.9467L27.2288 14.0829C27.2288 14.083 27.2356 14.0758 27.2424 14.0686Z" fill="white"/>
<path d="M33.9264 12.8569C34.0859 12.7728 34.2094 12.7028 34.2936 12.6203L33.8516 12.2833L33.9264 12.8569Z" fill="white"/>
<path d="M38.3172 21.4938V18.3709C37.6412 18.4042 33.638 18.554 31.848 17.5432C31.848 17.5432 31.0347 15.4012 30.3542 15.0477C29.6738 14.6943 29.2953 14.1552 28.6878 14.3898C28.6878 14.3898 28.5285 14.3793 28.3393 14.3862C27.8337 14.3926 27.6111 14.4708 27.8547 14.8237C27.9974 15.0198 28.2896 15.2052 28.8472 15.2963C28.8472 15.2963 29.8596 15.8317 29.2754 15.9893C28.6878 16.1433 27.2937 15.0793 27.2937 15.0793C27.2937 15.0793 26.7069 14.848 26.6206 14.4665C26.6206 14.4665 26.2249 14.0678 26.0622 14.2953C25.8996 14.5228 25.8996 14.6033 25.9162 14.6908C25.9162 14.6908 25.2622 14.6803 25.3054 15.4608C25.3054 15.4608 24.5585 15.6953 24.907 16.4268C24.907 16.4268 24.6216 16.6368 24.7378 17.0673C24.8539 17.4978 25.4913 18.1768 26.0058 18.5618C26.5203 18.9467 28.1004 19.8323 29.5443 20.0807C30.0284 20.1641 36.539 21.2305 38.3172 21.4938Z" fill="white"/>
<path d="M29.7591 10.0504C29.4261 10.2953 29.4042 10.6384 29.4042 10.6384C29.4042 10.6384 28.6156 10.4385 28.6681 11.2008C28.6681 11.2008 28.1949 11.3855 28.1906 11.5935C28.1862 11.8013 28.23 12.0046 28.23 12.0046C28.23 12.0046 27.6955 12.3926 28.0504 12.7668C28.4053 13.141 28.6637 12.6328 28.6287 12.411C28.6287 12.411 29.5926 13.1733 29.6802 12.6005C29.6802 12.6005 29.8335 12.411 29.6583 12.0785C29.6583 12.0785 30.4382 12.6837 30.5389 12.2956C30.6397 11.9076 30.5871 11.8198 30.5871 11.8198C30.5871 11.8198 31.0866 11.9446 31.0165 11.4918C30.9463 11.039 30.5564 10.688 30.5564 10.688C30.5564 10.688 30.885 10.5065 31.1567 10.7127C31.4283 10.9189 31.9904 10.8281 31.9904 10.8281C31.9904 10.8281 32.7303 11.2059 33.0537 11.4645C33.0537 11.4645 32.9351 10.5531 32.3887 10.2764C32.3887 10.2764 31.9541 9.66241 31.5422 9.91644C31.1304 10.1705 31.0252 10.2906 31.0471 10.383C31.0472 10.3831 30.0921 9.80566 29.7591 10.0504ZM28.099 12.2579C28.1422 12.1718 28.3537 12.1852 28.4033 12.4034C28.4683 12.6891 27.9635 12.5274 28.099 12.2579ZM29.5156 12.3294C29.4904 12.3718 29.4423 12.3914 29.4067 12.4244C29.3879 12.4417 29.3217 12.5382 29.3054 12.5448C29.2702 12.5592 29.1447 12.5263 29.0678 12.4391C28.9618 12.3187 28.969 12.1005 29.0059 12.0672C29.0782 12.002 29.4203 12.1115 29.4804 12.1602C29.5279 12.1989 29.5474 12.2758 29.5156 12.3294ZM31.6947 10.2902C31.8152 10.3689 31.7879 10.4533 31.7021 10.4564C31.2633 10.4722 31.0545 9.87306 31.6947 10.2902ZM30.4395 11.2093C30.4802 11.1888 30.7422 11.2472 30.8217 11.3259C31.1106 11.6125 30.4769 11.9735 30.4082 11.4058C30.4034 11.3656 30.4068 11.2259 30.4395 11.2093ZM30.3107 12.2185C30.3043 12.2235 30.2976 12.2283 30.2902 12.2314C30.2784 12.2362 30.2655 12.2364 30.2529 12.2359C30.1214 12.2295 30.0819 12.1677 30.0139 12.1311C29.8928 12.0659 29.8816 12.1028 29.8792 11.8582C29.8755 11.5335 30.8047 11.8325 30.3107 12.2185Z" fill="white"/>
</g>
<defs>
<clipPath id="clip0_158_2258">
<rect width="34" height="38" fill="white" transform="translate(5)"/>
</clipPath>
</defs>
</svg>
