<svg width="38" height="38" viewBox="0 0 38 38" fill="none" xmlns="http://www.w3.org/2000/svg">
<path d="M38 19C38 29.4934 29.4934 38 19 38C8.50659 38 0 29.4934 0 19C0 8.50659 8.50659 0 19 0C29.4934 0 38 8.50659 38 19Z" fill="#2D64F4"/>
<g clip-path="url(#clip0_158_2254)">
<path d="M29.3923 22.332C22.2016 19.0346 21.9017 18.9792 21.7675 18.5489C19.8237 20.2417 17.1951 20.3822 15.1147 18.7617C14.9401 19.068 9.73354 21.3576 7.60869 22.332C6.23709 22.9609 5.72949 28.1721 5.72949 28.1721H31.2715C31.2715 28.1721 30.7693 22.9609 29.3923 22.332Z" fill="white"/>
<path d="M12.5944 14.0542C16.1387 13.784 18.8234 12.5315 19.3498 12.5315C19.6602 12.4584 20.5268 12.2944 20.581 12.2808C21.4388 12.0897 22.2552 11.7884 23.1838 11.7607C23.4394 11.6901 23.3734 11.8353 24.0694 11.2642C24.0694 10.7471 23.9772 8.27479 23.7076 7.58035C22.9675 7.26782 22.8896 7.32074 16.8118 9.22128H16.8064C16.7522 9.23858 13.519 10.2805 13.4638 10.2805C12.4719 10.6207 12.741 10.5356 12.3082 10.6873C12.2661 11.7756 12.283 12.996 12.5728 14.0589C12.5836 14.0589 12.589 14.0589 12.5944 14.0542Z" fill="white"/>
<path d="M13.36 9.80989H13.3816C17.7475 8.41974 16.3511 8.86582 16.7134 8.75062H16.7188C18.2065 8.27688 22.5322 6.83835 23.377 6.97256C21.5807 4.70198 14.2599 5.27706 12.8632 6.92054C12.3554 7.52972 12.3587 8.53144 12.3232 10.174C12.6104 10.0643 13.251 9.84692 13.36 9.80989Z" fill="white"/>
<path d="M24.0736 11.9001C23.7827 12.1124 23.6208 12.1891 23.2042 12.2358C22.3178 12.257 21.5024 12.5757 20.7148 12.7371C20.7104 12.7409 19.7551 12.9264 19.489 12.9877L19.4242 13.0066C17.0159 13.7583 15.0939 14.3146 12.847 14.5104L12.8254 14.5293L12.6094 14.5341C12.6958 15.2812 13.09 15.8582 13.5814 15.9717C15.7115 20.5772 20.9072 20.5739 23.0368 15.9906C23.8169 15.9493 24.4822 14.6288 23.998 13.3329C23.998 13.3282 23.998 13.3282 23.998 13.3282C24.0466 12.879 24.0682 12.4013 24.0736 11.9001Z" fill="white"/>
</g>
<defs>
<clipPath id="clip0_158_2254">
<rect width="27" height="28" fill="white" transform="translate(5 5)"/>
</clipPath>
</defs>
</svg>
