<svg width="38" height="38" viewBox="0 0 38 38" fill="none" xmlns="http://www.w3.org/2000/svg">
<path d="M38 19C38 29.4934 29.4934 38 19 38C8.50659 38 0 29.4934 0 19C0 8.50659 8.50659 0 19 0C29.4934 0 38 8.50659 38 19Z" fill="#2D64F4"/>
<g clip-path="url(#clip0_158_2255)">
<path d="M28.2569 21.7655C28.2214 21.7163 28.0162 21.4313 28.0517 21.4806C28.1076 21.443 29.0275 20.8227 28.9697 20.8617C28.9448 20.8121 28.7396 20.4044 28.7645 20.4539L29.0237 20.2624L28.7699 20.0069C28.7165 20.0561 28.3008 20.4393 28.3541 20.3901C28.3874 20.4393 28.6627 20.847 28.6295 20.7978C28.5754 20.8443 27.8032 21.5074 27.8573 21.461C27.9028 21.5117 28.1674 21.8064 28.1219 21.7557L27.5225 22.3206C27.5779 22.2788 28.3123 21.7237 28.2569 21.7655Z" fill="white"/>
<path d="M29.0887 22.7087C29.0722 22.7582 28.9264 23.1953 28.9429 23.1459L27.9277 23.3473C27.982 23.3409 29.0829 23.2114 29.0131 23.2196C29.0351 23.1688 29.2133 22.7562 29.1913 22.8069C29.2473 22.7939 30.6904 22.4569 30.6007 22.4778C30.6001 22.4283 30.5947 21.9617 30.5953 22.0111L31.3729 21.9424L31.3243 21.6034C31.2703 21.6123 30.2152 21.7864 30.2821 21.7754C30.2871 21.8246 30.3411 22.3551 30.3361 22.3059L29.1211 22.6989L29.0887 22.7087Z" fill="white"/>
<path d="M26.3245 25.4448C26.3276 25.4942 26.36 26.0051 26.3569 25.9557C26.3029 25.9855 25.5468 26.4031 25.6009 26.3733C25.6168 26.4229 25.7194 26.7422 25.7035 26.6925L25.2715 26.8055L25.4011 27.1248C25.456 27.103 26.1364 26.8328 26.0815 26.8547C26.0577 26.8046 25.8687 26.4067 25.8925 26.4568C25.9469 26.4174 26.5517 25.9802 26.4973 26.0196C26.4502 25.7951 26.3735 25.4297 26.3839 25.4792L26.7565 25.3318C26.7019 25.3461 26.2699 25.4591 26.3245 25.4448Z" fill="white"/>
<path d="M30.137 25.2925C30.0828 25.3226 29.613 25.583 29.6672 25.5529L29.0732 25.0666L29.0354 25.0371L28.9976 25.0518L28.5062 25.2434L27.9824 24.9339C28.0376 24.976 28.5452 25.3641 28.49 25.322C28.5447 25.3077 29.0523 25.1751 28.9976 25.1893C29.0449 25.2388 29.6659 25.8871 29.6186 25.8377C29.6732 25.8152 30.1269 25.6285 30.0722 25.651C30.137 25.7247 30.2072 25.7984 30.2774 25.8672L30.6338 25.7493C30.3766 25.4967 30.1911 25.341 30.137 25.2925Z" fill="white"/>
<path d="M30.6499 23.3424C30.6462 23.3917 30.603 23.9714 30.6067 23.922C30.5522 23.9178 29.3995 23.8279 29.4727 23.8336C29.4751 23.883 29.5021 24.4332 29.4997 24.3838L28.6465 24.2904L29.5321 24.4624L29.5807 24.4722V24.428L29.6023 23.9711C29.6563 23.9801 30.8962 24.1856 30.8173 24.1725C30.8261 24.1232 30.9178 23.6074 30.9091 23.6567L31.6165 23.7894L31.6813 23.4504C31.6273 23.4448 30.5837 23.3354 30.6499 23.3424Z" fill="white"/>
<path d="M27.5933 27.395C27.6101 27.3456 27.8639 26.5989 27.8471 26.6483C27.7931 26.605 27.2909 26.2022 27.3449 26.2455L27.5339 25.8034C27.505 25.8528 27.235 26.3145 27.2639 26.2651C27.3138 26.3147 27.735 26.7323 27.6851 26.6827L27.3287 27.3901L27.3017 27.449L27.3557 27.5079L27.5933 27.7732L27.3125 28.0876L27.6203 28.2841L27.9173 27.8518L27.9874 27.7486L27.9064 27.675L27.5933 27.395Z" fill="white"/>
<path d="M19.942 21.9179C20.3271 21.9179 20.9544 21.8479 21.1516 21.7116C21.1554 21.6975 21.3535 21.4126 21.3622 21.4021C20.4903 20.8355 19.0655 21.1224 18.2896 21.8C17.7442 22.2618 17.4256 22.9593 17.4796 23.6323C17.5017 23.889 17.9163 25.6869 18.2032 26.3242C18.7555 27.5515 19.7567 28.2 21.2272 27.9993C22.2985 27.8627 22.8027 27.644 23.182 26.4519C22.2302 27.4569 21.2933 26.9296 21.4216 26.054C20.7358 26.3881 20.4766 26.393 20.3524 26.393C20.1094 26.393 19.8988 26.3095 19.7584 26.1621C19.4752 25.9103 19.3558 25.4668 19.6288 24.9979C18.3047 25.0907 18.2846 23.7439 19.0888 23.3621C18.5036 22.9009 18.9441 21.9179 19.942 21.9179Z" fill="white"/>
<path d="M32.1561 14.1859C31.3461 12.4568 26.6805 9.34728 26.4645 9.21465C26.4634 9.21455 26.4603 9.21544 26.4591 9.21539C25.4773 8.36286 21.7607 7.2434 21.3353 6.8765C20.8709 6.47861 21.3353 5.49124 21.3353 5.49124H17.0639C17.0639 5.49124 17.1557 6.62603 16.7453 7.39721C16.3457 8.16843 13.4297 9.27861 12.0743 9.76493C10.7189 10.2512 10.1843 11.9705 9.52008 13.7291C8.85048 15.4926 8.32668 21.019 8.32668 21.019C7.24668 25.1502 8.32668 29.0702 8.32668 29.0702H10.5623C10.1465 28.294 10.6703 25.2583 10.6703 25.2583C10.4759 22.7874 12.3875 17.4036 12.3875 17.4036C12.3875 17.4036 12.7709 18.6857 13.5269 20.2233C14.2721 21.7608 11.9717 29.0702 11.9717 29.0702H24.9587C24.6523 25.4287 24.65 27.1776 24.6347 24.2513C24.4889 24.492 24.3431 24.6541 24.2297 24.7523C24.1595 24.9046 24.0515 25.1404 23.9003 25.4057C23.8787 26.0492 23.7221 26.6632 23.4467 27.2134C22.9607 28.2008 22.1561 28.3776 21.3029 28.4857C19.8009 28.7134 18.4267 28.1141 17.7011 26.5109C17.3898 25.8187 16.9734 24.0152 16.9397 23.6716C16.8749 22.8611 17.2529 22.0113 17.9225 21.4415C18.8613 20.6182 20.5238 20.2964 21.6485 20.9895C21.9833 20.5278 22.4207 20.0366 22.9661 19.8106C23.2685 19.5453 24.1487 18.7987 24.5753 18.4892C24.7751 16.7895 25.2287 14.9523 25.4285 14.2106C25.4553 14.103 25.4768 14.0187 25.4917 13.961C26.4106 14.4245 28.0859 15.7517 28.3761 15.9838C27.2853 16.922 25.2387 18.6708 25.0389 18.7838C24.7797 18.9311 23.3109 20.1838 23.2677 20.228C22.4313 20.5076 21.7963 21.7747 21.5397 22.0504C21.3015 22.3061 20.4897 22.409 19.9413 22.409C19.6297 22.409 19.27 22.6292 19.3959 22.9297C19.5593 23.2906 21.5601 23.0259 21.6045 23.1066C21.6099 23.1262 21.5991 23.1508 21.5829 23.1557C21.4965 23.1999 20.0439 23.6469 19.5633 23.7304C19.0977 23.8152 18.9962 24.1271 19.1799 24.4427C19.3464 24.6951 21.3426 24.1636 21.5883 24.089C21.6867 24.0219 21.8919 23.933 21.9771 24.0104C21.9933 24.1431 20.9241 24.821 20.5245 24.9241C20.2977 24.988 20.0925 25.1796 20.0331 25.3908C19.9845 25.5578 20.0331 25.7199 20.1681 25.8427C20.4611 26.1473 22.0888 25.113 22.4793 24.8652C21.145 27.2334 22.6974 27.0077 23.7753 24.4575C23.7969 24.4427 24.3261 24.1087 24.4935 23.0132C24.6609 21.962 26.3403 20.6111 26.3457 20.6062C28.8243 19.7466 31.7835 18.2631 32.6799 17.428C33.6599 16.524 32.9362 15.8656 32.1561 14.1859Z" fill="white"/>
</g>
<defs>
<clipPath id="clip0_158_2255">
<rect width="27" height="28" fill="white" transform="translate(7 5)"/>
</clipPath>
</defs>
</svg>
