<svg width="38" height="38" viewBox="0 0 38 38" fill="none" xmlns="http://www.w3.org/2000/svg">
<path d="M38 19C38 29.4934 29.4934 38 19 38C8.50659 38 0 29.4934 0 19C0 8.50659 8.50659 0 19 0C29.4934 0 38 8.50659 38 19Z" fill="#2D64F4"/>
<g clip-path="url(#clip0_158_2256)">
<path d="M24.8174 10.7399C23.9696 11.0858 23.1866 11.4152 22.9004 11.5799C22.8518 11.6128 22.787 11.6293 22.7006 11.6348C21.5558 11.7611 17.522 10.0207 17.522 10.0207C17.522 10.0207 16.6256 9.96576 16.2962 9.81752C15.9668 9.67478 14.4386 8.4889 12.8078 9.30694C12.8078 9.30694 10.637 8.90615 11.0096 9.4936C11.0096 9.4936 10.8746 10.1909 11.5874 10.7234C11.9908 11.0311 12.1136 11.0149 15.5186 12.074C15.5186 12.074 16.5013 13.0732 15.8696 13.6716C12.5981 16.7704 11.9706 16.1643 8.9414 17.6136C7.63703 18.2259 4.94075 19.3563 5.5772 20.5454C6.0038 21.3579 7.4024 20.6222 7.4024 20.6222C15.1356 17.703 12.4684 18.7099 13.0454 18.4921C13.0454 18.4921 13.7204 18.7062 13.5368 19.3046C8.41879 22.7447 9.58675 22.209 9.4328 22.209C8.7902 22.8129 5.8904 24.3501 7.0676 25.7446C7.0676 25.7446 7.505 26.3595 9.1412 24.965C9.692 24.4874 10.4048 23.9493 11.1176 23.4333C14.2461 21.2697 13.7179 21.6733 14.3036 21.2811C14.3036 21.2811 14.8976 20.9297 14.8652 21.5556C14.8297 22.1511 11.9777 24.9394 11.9222 24.998C11.9222 24.998 9.125 27.3642 9.9836 28.045C10.8476 28.7258 11.6684 27.9352 13.148 26.4309C14.6222 24.9266 17.0036 22.5384 17.0036 22.5384C17.0036 22.5384 17.738 22.7031 17.5382 23.4772C17.333 24.2458 16.172 26.2168 15.1784 27.7211C14.1848 29.2254 15.5618 29.5767 15.9074 29.1101C16.199 28.7313 17.7758 27.2105 18.7856 25.4372C18.8828 25.2725 18.9746 25.1023 19.0556 24.9321C19.1798 24.6905 19.2824 24.449 19.3688 24.2074C19.3688 24.2074 19.4444 24.0482 19.628 23.7901C19.9898 23.2631 20.762 22.3242 22.1444 21.3964C24.4993 19.8414 24.2663 18.8094 26.3618 17.5148C28.308 16.324 29.2406 16.4469 31.4648 15.758L31.5188 8.14856C31.4616 8.17052 26.4995 10.0707 24.8174 10.7399ZM11.1855 9.77701C10.806 9.19065 12.9808 9.58957 12.9808 9.58957C12.9808 9.58957 12.0943 10.534 11.1855 9.77701ZM6.4891 20.6739C6.35836 20.7146 6.2441 20.6294 6.1591 20.5262C5.90503 20.2177 5.9505 19.7256 6.29885 19.5987C6.90436 19.3783 7.1209 19.8088 7.1209 19.8088C7.49323 20.4635 6.7713 20.5861 6.4891 20.6739ZM8.21882 25.2404C8.00941 25.3868 7.72775 25.4041 7.5246 25.2489C7.40532 25.1577 7.29316 25.008 7.23824 24.7623C7.11982 24.2324 7.90271 23.6713 8.39616 24.2933C8.75218 24.7422 8.46874 25.0658 8.21882 25.2404ZM10.9177 28.0493C10.5178 28.4082 9.8041 27.635 10.1818 27.2698C10.3964 27.0623 10.9064 26.6148 11.1421 26.795C12.042 27.4827 11.025 27.8412 10.9177 28.0493ZM15.0536 28.9055C14.9168 28.6491 15.2978 28.2358 15.5351 28.1913C16.8856 27.9378 15.5899 29.9104 15.0536 28.9055ZM24.1424 18.6787C23.589 19.4595 22.677 19.846 21.5342 20.463C20.1422 21.2234 19.7876 20.644 19.4984 20.6222C19.0508 20.4859 18.2846 20.9441 17.495 20.0073C15.888 18.1146 16.8379 16.2804 16.7984 14.6763C16.7524 12.7605 17.665 12.1119 18.7856 12.2826C21.725 12.7358 17.38 12.2953 20.978 12.5077C22.9394 12.5077 24.0663 13.353 24.5366 14.3963C24.9895 15.4304 24.8581 17.6653 24.1424 18.6787Z" fill="white"/>
<path d="M20.9273 13.0569C18.9054 13.0781 19.6667 12.9776 18.705 12.8272C17.0143 12.5627 17.395 14.773 17.3219 15.3725C17.1757 16.584 16.6404 18.1606 17.9028 19.6475C18.5276 20.3888 18.9904 19.895 19.6502 20.0928C20.5165 20.3519 20.0891 20.6031 22.255 19.4553C22.7899 19.1647 23.3478 18.86 23.7028 18.3584C24.2836 17.5402 25.4889 13.022 20.9273 13.0569Z" fill="white"/>
<path d="M21.8632 22.342L21.8519 22.3493L21.8553 22.372L21.939 22.8861C21.8848 22.9263 21.3094 23.3533 21.3636 23.3131C21.3846 23.3702 21.5108 23.7133 21.4898 23.6562L21.1104 23.7759L21.2126 24.0284C21.2673 24.0035 21.7943 23.7637 21.7396 23.7887C21.7142 23.7335 21.5235 23.3195 21.5489 23.3747C21.6033 23.325 22.0892 22.8808 22.0347 22.9306C22.0206 22.8746 21.8814 22.3213 21.8955 22.3773L22.207 22.2327L21.8632 22.342Z" fill="white"/>
<path d="M24.6643 20.393C24.6653 20.4483 24.6759 21.0408 24.6748 20.9855C24.6198 20.9785 23.6195 20.8506 23.6806 20.8585C23.6878 20.9138 23.7605 21.4787 23.7533 21.4233L23.0068 21.3051C23.0609 21.3172 23.8664 21.4972 23.8124 21.4852C23.8007 21.3227 23.7707 20.9039 23.7747 20.9602C23.8291 20.9711 24.8928 21.1834 24.8247 21.1699C24.8274 21.1146 24.8535 20.5734 24.8508 20.6286L25.4968 20.7804L25.5134 20.5326C25.4592 20.5236 24.6101 20.3842 24.6643 20.393Z" fill="white"/>
<path d="M24.3903 22.4178L24.3365 22.4588L24.0185 22.67C23.9643 22.6188 23.3633 22.0511 23.4174 22.1022C23.3627 22.1272 22.9308 22.3244 22.9855 22.2994L22.5049 21.9537L22.9728 22.3388L22.9811 22.3523L22.9913 22.3519L23.4047 22.2103C23.4548 22.2656 24.0582 22.9316 24.0081 22.8764L24.0599 22.8493L24.3811 22.686C24.4603 22.7723 24.5358 22.861 24.6123 22.9428L24.8219 22.8639C24.6984 22.7313 24.5711 22.601 24.4494 22.4797L24.3903 22.4178Z" fill="white"/>
<path d="M22.8762 24.3111C22.8875 24.2561 23.0468 23.4855 23.0355 23.5404C22.9815 23.4903 22.5169 23.0592 22.571 23.1094L22.6904 22.6516C22.6699 22.7089 22.5007 23.18 22.5213 23.1227C22.5726 23.1777 22.9873 23.622 22.936 23.5671C22.9195 23.6224 22.6872 24.4026 22.7036 24.3472C22.7517 24.4024 23.0546 24.7503 23.0065 24.6951L22.7876 25.0422L22.9968 25.1945C23.0241 25.1395 23.278 24.6263 23.2508 24.6813C23.1964 24.6276 22.8218 24.2572 22.8762 24.3111Z" fill="white"/>
<path d="M22.1451 10.0208L22.1351 10.0447L21.8343 10.6232L21.5156 10.4918L21.8304 10.6811L21.8435 10.6841L21.8578 10.6613L22.1779 10.1394C22.2323 10.1472 22.9382 10.2493 22.8838 10.2414C22.9067 10.1851 23.0723 9.77838 23.0494 9.83471L23.3962 10.0445L23.5117 9.73743C23.4563 9.71398 22.9208 9.48735 22.9761 9.51079C22.9569 9.56855 22.7834 10.0912 22.8026 10.0334C22.7481 10.0324 22.0907 10.0198 22.1451 10.0208Z" fill="white"/>
<path d="M18.0076 9.99932C18.0532 9.94272 18.4806 9.41258 18.4349 9.46924C18.4693 9.52425 19.0579 10.4667 19.0203 10.4066C19.0565 10.3512 19.4212 9.79382 19.3851 9.84916L19.8079 10.573C19.7799 10.5175 19.3621 9.69028 19.3902 9.74578C19.3488 9.80255 18.9894 10.2958 19.0308 10.239C19.0006 10.1825 18.4325 9.11628 18.4678 9.1826C18.4175 9.23766 18.0027 9.6922 18.053 9.63713L17.7233 8.96716L17.5303 9.17156C17.5621 9.22657 18.0393 10.0543 18.0076 9.99932Z" fill="white"/>
<path d="M20.347 8.98616L20.3404 9.94552L20.3407 9.98477L20.364 10.0032L20.7801 10.1699L20.8546 10.8731L20.8177 10.1458L20.8219 10.1271L20.8146 10.1189L20.4287 9.90017C20.4325 9.84505 20.5104 8.74273 20.5054 8.813C20.449 8.79263 20.0547 8.65055 20.1112 8.67091C20.1204 8.52927 20.134 8.38855 20.1418 8.25306L19.9408 8.14847C19.9325 8.28885 19.9269 8.39157 19.9082 8.8992C19.9871 8.91484 20.4014 8.99692 20.347 8.98616Z" fill="white"/>
<path d="M21.0029 10.6405L21.4524 10.3769L21.464 10.3665L21.4639 10.3469L21.5069 9.63113C21.5614 9.59435 22.2922 9.10078 22.2378 9.13756C22.2426 9.0825 22.291 8.52486 22.2862 8.57992L22.6903 8.45629L22.6592 8.14856C22.6041 8.17266 22.0543 8.41341 22.1094 8.3893C22.108 8.44459 22.0921 9.08145 22.0935 9.02617L21.4425 9.55109L21.4195 9.57195L21.4212 9.60505L21.4203 10.3369L21.0029 10.6405Z" fill="white"/>
</g>
<defs>
<clipPath id="clip0_158_2256">
<rect width="27" height="28" fill="white" transform="translate(5 5)"/>
</clipPath>
</defs>
</svg>
