<svg width="22" height="22" viewBox="0 0 22 22" fill="none" xmlns="http://www.w3.org/2000/svg">
<path fill-rule="evenodd" clip-rule="evenodd" d="M22 21C22 21.5523 21.5523 22 21 22H1C0.447715 22 0 21.5523 0 21C0 20.4477 0.447716 20 1 20H21C21.5523 20 22 20.4477 22 21Z" fill="white"/>
<path fill-rule="evenodd" clip-rule="evenodd" d="M12.3099 17.6881C11.5581 18.3396 10.4419 18.3396 9.69015 17.6881L4.87088 13.5114C3.47179 12.2988 4.32933 10 6.18074 10L8.00001 10V2C8.00001 0.89543 8.89544 2.7141e-07 10 1.74846e-07L12 0C13.1046 -9.65645e-08 14 0.895431 14 2L14 10H15.8193C17.6707 10 18.5282 12.2988 17.1291 13.5114L12.3099 17.6881ZM10.3451 15.6091C10.7209 15.9348 11.2791 15.9348 11.6549 15.6091L15.8193 12H13.5C12.6716 12 12 11.3284 12 10.5V2L10 2V10.5C10 11.3284 9.32844 12 8.50001 12L6.18074 12L10.3451 15.6091Z" fill="white"/>
</svg>
