<svg width="18" height="14" viewBox="0 0 18 14" fill="none" xmlns="http://www.w3.org/2000/svg">
<path d="M17.1779 4.83516C17.3074 4.73223 17.5 4.82852 17.5 4.99121V11.7812C17.5 12.6611 16.7861 13.375 15.9062 13.375H2.09375C1.21387 13.375 0.5 12.6611 0.5 11.7812V4.99453C0.5 4.82852 0.689258 4.73555 0.82207 4.83848C1.56582 5.41621 2.55195 6.15 5.93867 8.61035C6.63926 9.12168 7.82129 10.1975 9 10.1908C10.1854 10.2008 11.3906 9.10176 12.0646 8.61035C15.4514 6.15 16.4342 5.41289 17.1779 4.83516ZM9 9.125C9.77031 9.13828 10.8793 8.15547 11.4371 7.75039C15.8432 4.55293 16.1785 4.27402 17.1945 3.47715C17.3871 3.32773 17.5 3.09531 17.5 2.84961V2.21875C17.5 1.33887 16.7861 0.625 15.9062 0.625H2.09375C1.21387 0.625 0.5 1.33887 0.5 2.21875V2.84961C0.5 3.09531 0.612891 3.32441 0.805469 3.47715C1.82148 4.2707 2.15684 4.55293 6.56289 7.75039C7.1207 8.15547 8.22969 9.13828 9 9.125Z" fill="white"/>
</svg>
