<svg width="106" height="107" viewBox="0 0 106 107" fill="none" xmlns="http://www.w3.org/2000/svg">
<path d="M95.35 106.536H10.6501C7.84507 106.526 5.15777 105.407 3.17447 103.424C1.1919 101.441 0.0729159 98.7539 0.0625759 95.9489V38.1989C0.0557009 37.2493 0.516326 36.3564 1.29493 35.8114L15.4625 26.0327V11.2489C15.4625 8.44124 16.5779 5.748 18.5632 3.76206C20.5492 1.77691 23.2426 0.661377 26.05 0.661377H79.95C82.7576 0.661377 85.4508 1.77684 87.4368 3.76206C89.4219 5.74806 90.5374 8.44146 90.5374 11.2489V26.0327L104.705 35.8114C105.484 36.3563 105.944 37.2492 105.937 38.1989V95.9489C105.927 98.7539 104.808 101.441 102.825 103.424C100.842 105.407 98.1549 106.526 95.3499 106.536H95.35ZM6.03007 97.3351C6.33429 98.3242 6.94618 99.1905 7.77718 99.8066C8.60905 100.424 9.61539 100.758 10.6502 100.761H95.3501C96.3848 100.758 97.3911 100.424 98.2231 99.8066C99.0541 99.1904 99.666 98.3241 99.9702 97.3351L53.5392 65.1491C53.217 64.9179 52.7838 64.9179 52.4616 65.1491L6.03007 97.3351ZM66.4355 67.0741L100.161 90.4447V43.7057L66.4355 67.0741ZM5.83647 43.7035V90.4425L39.5625 67.0719L5.83647 43.7035ZM53.0001 59.1035C54.3751 59.0966 55.7199 59.5134 56.8501 60.2972L61.355 63.4159L84.763 47.2072V11.2482C84.763 9.972 84.256 8.74743 83.3536 7.84499C82.4513 6.94255 81.2267 6.43563 79.9504 6.43563H26.0505C24.7743 6.43563 23.5497 6.94266 22.6473 7.84499C21.7448 8.74732 21.2379 9.97195 21.2379 11.2482V47.3612L44.6459 63.5699L49.1509 60.4512C50.2809 59.6683 51.6259 59.2515 53.0009 59.2584L53.0001 59.1035ZM8.03207 38.1984L15.4621 43.3572V33.0397L8.03207 38.1984ZM90.5364 33.0397V43.3572L97.9665 38.1984L90.5364 33.0397ZM64.55 52.6359H41.4501C39.8551 52.6359 38.5626 51.3434 38.5626 49.7484C38.5626 48.1534 39.8551 46.8609 41.4501 46.8609H64.55C66.1451 46.8609 67.4376 48.1534 67.4376 49.7484C67.4376 51.3434 66.1451 52.6359 64.55 52.6359ZM72.25 37.2359H33.7501C32.1551 37.2359 30.8626 35.9434 30.8626 34.3484C30.8626 32.7534 32.1551 31.4609 33.7501 31.4609H72.25C73.845 31.4609 75.1376 32.7534 75.1376 34.3484C75.1376 35.9434 73.845 37.2359 72.25 37.2359ZM72.25 21.8359H33.7501C32.1551 21.8359 30.8626 20.5434 30.8626 18.9484C30.8626 17.3534 32.1551 16.0609 33.7501 16.0609H72.25C73.845 16.0609 75.1376 17.3534 75.1376 18.9484C75.1376 20.5434 73.845 21.8359 72.25 21.8359Z" fill="#2D64F4" fill-opacity="0.2"/>
</svg>
