<svg width="114" height="127" viewBox="0 0 114 127" fill="none" xmlns="http://www.w3.org/2000/svg">
<path d="M52.8772 58.7434V30.4678H7.69294C3.94792 30.4678 0.910156 33.5045 0.910156 37.2506V51.9632C0.910156 55.7082 3.94691 58.7459 7.69294 58.7459L52.8772 58.7434Z" fill="#2D64F4" fill-opacity="0.2"/>
<path d="M106.309 30.4654H61.125V58.741H106.309C110.054 58.741 113.092 55.7043 113.092 51.9582V37.2457C113.093 33.5006 110.056 30.4639 106.309 30.4639V30.4654Z" fill="#2D64F4" fill-opacity="0.2"/>
<path d="M39.8678 1.70575C37.9133 0.615584 35.7006 0.0400391 33.475 0.0400391C28.7056 0.0400391 24.3008 2.62699 21.9799 6.78838C18.4501 13.1214 20.7296 21.1455 27.0625 24.6753C28.6398 25.5543 31.8465 26.722 41.4538 26.722C46.7494 26.722 51.4332 26.3606 51.6309 26.3449C52.6926 26.2614 53.6413 25.6535 54.16 24.7244C54.6786 23.7933 54.6962 22.6678 54.2091 21.72C52.7575 18.9063 45.2432 4.70235 39.8679 1.70583L39.8678 1.70575ZM41.4539 20.3655C33.0409 20.3655 30.6817 19.4138 30.1593 19.1221C26.8887 17.2983 25.7112 13.1537 27.5331 9.88314C28.7323 7.73126 31.0078 6.39557 33.4751 6.39557C34.6213 6.39557 35.7616 6.69415 36.7721 7.25692C38.7442 8.35692 42.7435 14.2222 46.1899 20.2724C44.7628 20.3284 43.1355 20.3657 41.4539 20.3657V20.3655Z" fill="#2D64F4" fill-opacity="0.2"/>
<path d="M72.5478 26.7241C82.1541 26.7241 85.3618 25.5553 86.939 24.6773C93.272 21.1475 95.5515 13.1234 92.0217 6.79042C89.7008 2.62626 85.297 0.0390625 80.5266 0.0390625C78.2991 0.0390625 76.0884 0.614607 74.1328 1.70478C68.7575 4.7013 61.242 18.905 59.7905 21.7208C59.3024 22.6666 59.322 23.795 59.8396 24.7251C60.3582 25.6561 61.307 26.2641 62.3688 26.3456C62.5662 26.3613 67.252 26.7237 72.5476 26.7237L72.5478 26.7241ZM77.2296 7.25798C78.2402 6.69521 79.3815 6.39664 80.5266 6.39664C82.9937 6.39664 85.2683 7.73235 86.4686 9.8842C88.2924 13.1548 87.1139 17.2983 83.8424 19.1232C83.3199 19.4149 80.9588 20.3666 72.5478 20.3666C70.8683 20.3666 69.24 20.3273 67.8129 20.2752C71.2582 14.2234 75.2564 8.35804 77.2296 7.25803V7.25798Z" fill="#2D64F4" fill-opacity="0.2"/>
<path d="M89.2389 83.0138C90.2024 83.9773 89.8076 85.4171 88.5868 85.3945L80.7895 86.2215L79.9625 94.0188C79.9851 95.2396 78.5443 95.6334 77.5818 94.671L61.125 78.2162V126.76H102.394C104.822 126.76 106.789 124.792 106.789 122.365V66.5582H72.783L89.2389 83.0138Z" fill="#2D64F4" fill-opacity="0.2"/>
<path d="M34.0408 94.0216L33.2138 86.2243L25.4165 85.3973C24.1957 85.4199 23.8019 83.9791 24.7644 83.0166L41.2211 66.5598H7.21289V122.367C7.21289 124.795 9.18012 126.761 11.6071 126.761H52.8766L52.8776 78.2178L36.4218 94.6746C35.4583 95.637 34.0185 95.2432 34.0411 94.0224L34.0408 94.0216Z" fill="#2D64F4" fill-opacity="0.2"/>
</svg>
