<svg width="401" height="400" viewBox="0 0 401 400" fill="none" xmlns="http://www.w3.org/2000/svg">
<circle cx="200.691" cy="199.846" r="139.707" transform="rotate(45 200.691 199.846)" stroke="#2D64F4" stroke-opacity="0.1" stroke-width="3.21165"/>
<path d="M118.725 181.882C119.636 183.345 120.071 184.733 120.029 186.047C120.007 187.383 119.509 188.538 118.534 189.513C117.559 190.488 116.351 191.018 114.91 191.103C113.49 191.209 111.995 190.901 110.427 190.181C108.88 189.439 107.417 188.379 106.039 187.001C104.831 185.793 103.814 184.437 102.987 182.932C102.182 181.406 101.684 179.869 101.493 178.322L103.941 177.4C104.132 178.735 104.577 180.07 105.276 181.406C105.976 182.741 106.845 183.928 107.883 184.966C109.431 186.514 110.978 187.489 112.525 187.891C114.115 188.294 115.408 187.997 116.404 187.001C117.294 186.111 117.58 185.019 117.262 183.727C116.966 182.412 116.118 181.056 114.719 179.657L111.858 176.795L113.511 175.142L116.245 177.876C117.496 179.127 118.736 179.901 119.965 180.197C121.215 180.473 122.243 180.208 123.049 179.403C123.939 178.512 124.204 177.378 123.844 176.001C123.505 174.644 122.646 173.277 121.268 171.899C119.467 170.098 117.231 168.773 114.56 167.925L115.673 165.541C118.704 166.494 121.29 168.042 123.43 170.182C124.702 171.454 125.656 172.789 126.292 174.188C126.97 175.587 127.256 176.912 127.15 178.163C127.066 179.434 126.578 180.515 125.688 181.406C124.84 182.253 123.791 182.709 122.54 182.773C121.311 182.857 120.039 182.561 118.725 181.882ZM135.581 182.715L137.839 184.972L130.431 192.38L140.955 202.904L148.362 195.496L150.62 197.753L133.896 214.477L131.639 212.219L139.015 204.843L128.491 194.32L121.115 201.696L118.858 199.438L135.581 182.715ZM157.036 204.169L159.293 206.427L146.004 219.717L170.453 217.586L172.456 219.589L155.732 236.313L153.475 234.056L166.765 220.766L142.347 222.928L140.312 220.893L157.036 204.169ZM184.298 249.999L180.674 246.375L173.234 253.815L170.977 251.557L178.416 244.117L174.792 240.493L162.233 242.814L159.531 240.111L174.156 237.504L176.731 223.865L179.18 226.313L176.731 238.554L180.356 242.178L187.7 234.834L189.958 237.091L182.613 244.435L186.238 248.06L198.51 245.644L200.958 248.092L187.287 250.699L184.712 265.292L182.009 262.59L184.298 249.999ZM201.981 267.682L198.166 263.867L190.726 271.307L188.469 269.049L205.192 252.326L207.45 254.583L200.105 261.927L203.952 265.774L217.179 264.312L219.627 266.76L204.938 268.286L203.38 283.96L200.709 281.29L201.981 267.682ZM229.238 276.117C231.421 278.3 232.544 280.525 232.608 282.793C232.692 285.04 231.664 287.234 229.524 289.375L219.159 299.739L216.997 297.577L219.604 294.97C218.226 295.331 216.796 295.256 215.312 294.748C213.849 294.26 212.44 293.338 211.083 291.982C209.218 290.116 208.179 288.188 207.968 286.195C207.756 284.203 208.381 282.475 209.843 281.013C211.263 279.593 212.917 278.957 214.803 279.105C216.711 279.275 218.788 280.483 221.035 282.73L226.344 288.039L227.362 287.022C228.803 285.581 229.492 284.086 229.428 282.539C229.386 280.97 228.591 279.413 227.044 277.865C225.984 276.805 224.786 275.968 223.451 275.354C222.137 274.718 220.823 274.357 219.509 274.273L220.176 271.57C221.745 271.697 223.313 272.164 224.882 272.969C226.471 273.753 227.923 274.802 229.238 276.117ZM213.213 290.551C214.485 291.823 215.863 292.628 217.347 292.967C218.852 293.285 220.378 293.116 221.925 292.459L224.659 289.724L219.413 284.478C216.552 281.617 214.125 281.182 212.132 283.175C211.157 284.15 210.755 285.294 210.924 286.609C211.115 287.902 211.878 289.216 213.213 290.551Z" fill="#2D64F4" fill-opacity="0.1"/>
<path d="M198.553 110.684L152.77 156.467L142.175 145.872L179.455 108.591L170.299 99.4347L178.801 90.9322L198.553 110.684Z" fill="#2D64F4" fill-opacity="0.1"/>
<path d="M179.56 184.827C175.766 181.033 173.325 176.717 172.235 171.877C171.145 167.037 171.515 162.001 173.346 156.768C175.265 151.536 178.688 146.456 183.615 141.529C188.542 136.602 193.6 133.201 198.789 131.326C204.065 129.451 209.123 129.059 213.963 130.149C218.802 131.239 223.119 133.681 226.913 137.474C230.706 141.267 233.148 145.584 234.238 150.424C235.328 155.264 234.914 160.3 232.995 165.532C231.164 170.765 227.785 175.844 222.858 180.772C217.93 185.699 212.829 189.1 207.553 190.975C202.364 192.85 197.35 193.242 192.51 192.152C187.67 191.062 183.353 188.62 179.56 184.827ZM188.52 175.866C191.311 178.657 194.69 179.638 198.658 178.809C202.669 178.025 207.182 175.125 212.197 170.111C217.211 165.096 220.111 160.583 220.895 156.572C221.724 152.604 220.743 149.225 217.952 146.434C215.205 143.687 211.826 142.706 207.815 143.491C203.847 144.32 199.356 147.241 194.341 152.255C189.327 157.27 186.406 161.761 185.577 165.729C184.792 169.74 185.773 173.119 188.52 175.866Z" fill="#2D64F4" fill-opacity="0.1"/>
<path d="M236.77 198.346C233.412 194.989 231.799 191.108 231.93 186.704C232.148 182.301 234.175 178.18 238.012 174.343C241.849 170.506 245.948 168.5 250.308 168.326C254.756 168.151 258.658 169.743 262.016 173.1C265.373 176.458 266.943 180.338 266.725 184.742C266.55 189.103 264.545 193.201 260.708 197.038C256.871 200.875 252.75 202.903 248.346 203.121C243.986 203.295 240.127 201.704 236.77 198.346ZM288.766 200.897L296.549 208.68L219.503 223.2L211.72 215.417L288.766 200.897ZM242.133 192.983C243.615 194.466 245.381 195.011 247.431 194.618C249.524 194.27 251.769 192.896 254.167 190.498C256.565 188.1 257.939 185.854 258.288 183.761C258.68 181.712 258.135 179.946 256.653 178.464C255.214 177.025 253.426 176.501 251.289 176.894C249.197 177.243 246.973 178.594 244.618 180.949C242.264 183.303 240.89 185.549 240.498 187.686C240.149 189.778 240.694 191.544 242.133 192.983ZM246.253 250.997C244.073 248.817 242.612 246.353 241.871 243.606C241.217 240.859 241.37 238.047 242.329 235.169C243.288 232.291 245.032 229.588 247.561 227.059C250.09 224.53 252.794 222.786 255.672 221.827C258.549 220.867 261.34 220.736 264.043 221.434C266.834 222.132 269.319 223.571 271.499 225.751C274.857 229.108 276.426 232.989 276.208 237.393C276.078 241.797 274.094 245.917 270.257 249.754C266.42 253.591 262.277 255.597 257.83 255.771C253.47 255.946 249.611 254.354 246.253 250.997ZM251.616 245.634C253.099 247.116 254.865 247.661 256.914 247.269C259.051 246.876 261.296 245.503 263.651 243.148C266.005 240.794 267.357 238.57 267.706 236.477C268.142 234.384 267.619 232.596 266.136 231.114C264.697 229.675 262.931 229.13 260.838 229.479C258.746 229.828 256.5 231.201 254.102 233.599C251.704 235.997 250.33 238.243 249.981 240.336C249.633 242.429 250.178 244.195 251.616 245.634Z" fill="#2D64F4" fill-opacity="0.1"/>
</svg>
