<svg width="30" height="33" viewBox="0 0 30 33" fill="none" xmlns="http://www.w3.org/2000/svg">
<path d="M9.28152 2.3173C9.34952 2.15011 9.34952 1.961 9.28152 1.79382C9.24752 1.70954 9.19885 1.63348 9.13685 1.57045L7.80418 0.200763C7.54352 -0.0671447 7.12218 -0.0671447 6.86152 0.200763C6.60085 0.46867 6.60085 0.901707 6.86152 1.16961L7.05685 1.37037H2.94218L3.13752 1.16961C3.39818 0.901707 3.39818 0.46867 3.13752 0.200763C2.87685 -0.0671447 2.45552 -0.0671447 2.19485 0.200763L0.862182 1.57045C0.800182 1.63348 0.751516 1.70954 0.717516 1.79382C0.648849 1.961 0.648849 2.15011 0.717516 2.3173C0.751516 2.40158 0.800182 2.47763 0.862182 2.54067L2.19485 3.91035C2.32485 4.04397 2.49552 4.11111 2.66618 4.11111C2.83685 4.11111 3.00752 4.04397 3.13752 3.91035C3.39818 3.64245 3.39818 3.20941 3.13752 2.9415L2.94218 2.74074H7.05685L6.86152 2.9415C6.60085 3.20941 6.60085 3.64245 6.86152 3.91035C6.99152 4.04397 7.16218 4.11111 7.33285 4.11111C7.50352 4.11111 7.67418 4.04397 7.80418 3.91035L9.13685 2.54067C9.19885 2.47763 9.24752 2.40158 9.28152 2.3173Z" fill="#2D64F4"/>
<path d="M26.6667 13.0185C26.1787 13.0185 25.7273 13.1638 25.3333 13.4002V13.0185C25.3333 11.507 24.1373 10.2778 22.6667 10.2778C22.1673 10.2778 21.7053 10.4285 21.3047 10.6745C21.1627 9.30002 20.042 8.22222 18.6667 8.22222C18.1787 8.22222 17.7273 8.36748 17.3333 8.60387V2.74074C17.3333 1.22922 16.1373 0 14.6667 0C13.196 0 12 1.22922 12 2.74074V12.3333V12.3881V17.1296C12 17.5085 11.702 17.8148 11.3333 17.8148C10.9647 17.8148 10.6667 17.5085 10.6667 17.1296V12.8068C9.09267 13.5776 8 15.2207 8 17.1296V21.9259C8 27.9706 12.7853 32.8889 18.6667 32.8889C24.548 32.8889 29.3333 27.9706 29.3333 21.9259V15.7593C29.3333 14.2477 28.1373 13.0185 26.6667 13.0185Z" fill="#2D64F4"/>
</svg>
