<svg width="16" height="16" viewBox="0 0 16 16" fill="none" xmlns="http://www.w3.org/2000/svg">
<path d="M8.00337 4.18165C5.89165 4.18165 4.18833 5.88497 4.18833 7.99669C4.18833 10.1084 5.89165 11.8117 8.00337 11.8117C10.1151 11.8117 11.8184 10.1084 11.8184 7.99669C11.8184 5.88497 10.1151 4.18165 8.00337 4.18165ZM8.00337 10.477C6.63872 10.477 5.5231 9.36466 5.5231 7.99669C5.5231 6.62872 6.6354 5.51642 8.00337 5.51642C9.37134 5.51642 10.4836 6.62872 10.4836 7.99669C10.4836 9.36466 9.36802 10.477 8.00337 10.477ZM12.8643 4.0256C12.8643 4.52032 12.4659 4.91544 11.9745 4.91544C11.4797 4.91544 11.0846 4.517 11.0846 4.0256C11.0846 3.53419 11.4831 3.13575 11.9745 3.13575C12.4659 3.13575 12.8643 3.53419 12.8643 4.0256ZM15.3911 4.92872C15.3346 3.73673 15.0624 2.68087 14.1891 1.81095C13.3192 0.941028 12.2633 0.668762 11.0713 0.608997C9.84282 0.53927 6.1606 0.53927 4.93208 0.608997C3.74341 0.665442 2.68755 0.937707 1.81431 1.80763C0.941065 2.67755 0.672119 3.73341 0.612354 4.9254C0.542627 6.15392 0.542627 9.83614 0.612354 11.0647C0.668799 12.2567 0.941065 13.3125 1.81431 14.1824C2.68755 15.0524 3.74009 15.3246 4.93208 15.3844C6.1606 15.4541 9.84282 15.4541 11.0713 15.3844C12.2633 15.3279 13.3192 15.0557 14.1891 14.1824C15.059 13.3125 15.3313 12.2567 15.3911 11.0647C15.4608 9.83614 15.4608 6.15724 15.3911 4.92872ZM13.804 12.3828C13.545 13.0336 13.0436 13.535 12.3895 13.7973C11.41 14.1858 9.08579 14.0961 8.00337 14.0961C6.92095 14.0961 4.59341 14.1824 3.61724 13.7973C2.96645 13.5383 2.46509 13.0369 2.20278 12.3828C1.81431 11.4033 1.90396 9.07911 1.90396 7.99669C1.90396 6.91427 1.81763 4.58673 2.20278 3.61056C2.46177 2.95978 2.96313 2.45841 3.61724 2.19611C4.59673 1.80763 6.92095 1.89728 8.00337 1.89728C9.08579 1.89728 11.4133 1.81095 12.3895 2.19611C13.0403 2.45509 13.5417 2.95646 13.804 3.61056C14.1924 4.59005 14.1028 6.91427 14.1028 7.99669C14.1028 9.07911 14.1924 11.4067 13.804 12.3828Z" fill="white"/>
</svg>
