<svg width="203" height="33" viewBox="0 0 203 33" fill="none" xmlns="http://www.w3.org/2000/svg">
<path d="M38.7264 29.377V2.30797L44.0304 1.44697V10.519C44.384 10.393 44.8416 10.288 45.4032 10.183C45.9648 10.078 46.5056 10.015 47.0256 10.015C48.544 10.015 49.8128 10.225 50.832 10.645C51.8512 11.065 52.6416 11.653 53.2656 12.43C53.8688 13.207 54.3056 14.11 54.5552 15.16C54.8048 16.21 54.9296 17.386 54.9296 18.688V29.377H49.6256V19.339C49.6256 17.617 49.3968 16.378 48.96 15.664C48.5232 14.95 47.712 14.593 46.5264 14.593C46.048 14.593 45.6112 14.635 45.1952 14.719C44.7792 14.803 44.4048 14.887 44.072 14.992V29.398H38.7264V29.377ZM66.1616 9.93097C67.7216 9.93097 69.032 10.12 70.0928 10.477C71.1328 10.834 71.9856 11.359 72.6096 12.031C73.2336 12.703 73.6912 13.522 73.9408 14.488C74.2112 15.454 74.336 16.525 74.336 17.701V28.852C73.5664 29.02 72.5264 29.209 71.1536 29.44C69.8016 29.671 68.1584 29.776 66.224 29.776C65.0176 29.776 63.9152 29.671 62.9168 29.461C61.9392 29.251 61.0864 28.894 60.3584 28.39C59.6512 27.907 59.0896 27.256 58.7152 26.458C58.3408 25.66 58.1536 24.694 58.1536 23.539C58.1536 22.426 58.3824 21.502 58.8192 20.725C59.256 19.948 59.8384 19.339 60.5872 18.898C61.3152 18.436 62.168 18.121 63.1248 17.911C64.0816 17.701 65.0592 17.596 66.0784 17.596C66.7648 17.596 67.3888 17.617 67.9088 17.68C68.4496 17.743 68.8864 17.827 69.2192 17.911V17.407C69.2192 16.504 68.9488 15.769 68.408 15.202C67.8672 14.656 66.9104 14.383 65.5584 14.383C64.664 14.383 63.7696 14.446 62.8752 14.572C62.0016 14.698 61.232 14.887 60.5872 15.139L59.9008 10.813C60.2128 10.708 60.5872 10.624 61.0656 10.498C61.5232 10.393 62.0432 10.288 62.584 10.204C63.1248 10.12 63.7072 10.057 64.3104 9.99397C64.9344 9.97297 65.5376 9.93097 66.1616 9.93097ZM66.5776 25.639C67.0976 25.639 67.5968 25.618 68.0752 25.597C68.5536 25.576 68.928 25.534 69.2192 25.492V21.418C69.0112 21.376 68.6784 21.313 68.2624 21.271C67.8256 21.229 67.4512 21.208 67.0768 21.208C66.5776 21.208 66.0992 21.229 65.6624 21.292C65.2256 21.355 64.8304 21.46 64.4976 21.628C64.1648 21.796 63.8944 22.027 63.7072 22.321C63.52 22.615 63.416 22.972 63.416 23.392C63.416 24.232 63.6864 24.82 64.248 25.135C64.8512 25.471 65.6 25.639 66.5776 25.639ZM84.632 4.97497C84.632 5.96197 84.32 6.73897 83.696 7.30597C83.072 7.87297 82.3232 8.14597 81.4704 8.14597C80.6176 8.14597 79.8688 7.87297 79.2448 7.30597C78.6208 6.73897 78.3088 5.96197 78.3088 4.97497C78.3088 3.98797 78.6208 3.21097 79.2448 2.64397C79.8688 2.07697 80.6176 1.80397 81.4704 1.80397C82.3232 1.80397 83.072 2.07697 83.696 2.64397C84.32 3.21097 84.632 3.98797 84.632 4.97497ZM84.1328 29.377H78.8288V10.435H84.1328V29.377ZM100.107 15.202C99.6288 15.076 99.0672 14.95 98.4224 14.824C97.7776 14.698 97.0912 14.635 96.3632 14.635C96.0304 14.635 95.6352 14.656 95.1776 14.719C94.72 14.782 94.3664 14.845 94.1168 14.908V29.377H88.8128V11.443C89.7696 11.107 90.8928 10.792 92.1824 10.498C93.472 10.204 94.928 10.057 96.5088 10.057C96.8 10.057 97.1328 10.078 97.5488 10.12C97.944 10.162 98.36 10.204 98.7552 10.267C99.1504 10.33 99.5664 10.393 99.9616 10.477C100.357 10.561 100.71 10.666 101.002 10.792L100.107 15.202ZM120.97 19.906C120.97 21.418 120.741 22.783 120.304 24.001C119.867 25.219 119.222 26.269 118.39 27.13C117.558 27.991 116.539 28.663 115.333 29.125C114.126 29.587 112.733 29.818 111.194 29.818C110.549 29.818 109.883 29.797 109.176 29.734C108.469 29.671 107.782 29.587 107.117 29.503C106.43 29.398 105.786 29.293 105.182 29.167C104.558 29.041 104.018 28.894 103.539 28.747V2.28697L108.843 1.42597V10.855C109.446 10.582 110.05 10.393 110.694 10.246C111.339 10.099 112.026 10.036 112.754 10.036C114.085 10.036 115.27 10.267 116.29 10.729C117.309 11.191 118.162 11.863 118.848 12.724C119.534 13.585 120.054 14.635 120.408 15.832C120.782 17.071 120.97 18.415 120.97 19.906ZM115.541 19.759C115.541 16.294 114.272 14.572 111.755 14.572C111.214 14.572 110.674 14.635 110.133 14.782C109.592 14.929 109.155 15.097 108.822 15.328V25.093C109.093 25.135 109.426 25.177 109.821 25.219C110.216 25.261 110.674 25.282 111.131 25.282C112.587 25.282 113.669 24.778 114.418 23.77C115.187 22.762 115.541 21.418 115.541 19.759ZM131.494 9.93097C133.054 9.93097 134.365 10.12 135.426 10.477C136.466 10.834 137.318 11.359 137.942 12.031C138.566 12.703 139.024 13.522 139.274 14.488C139.544 15.454 139.669 16.525 139.669 17.701V28.852C138.899 29.02 137.859 29.209 136.486 29.44C135.114 29.671 133.491 29.776 131.557 29.776C130.35 29.776 129.248 29.671 128.25 29.461C127.272 29.251 126.419 28.894 125.691 28.39C124.984 27.907 124.422 27.256 124.048 26.458C123.674 25.66 123.486 24.694 123.486 23.539C123.486 22.426 123.715 21.502 124.152 20.725C124.589 19.948 125.171 19.339 125.92 18.898C126.648 18.436 127.501 18.121 128.458 17.911C129.414 17.701 130.392 17.596 131.411 17.596C132.098 17.596 132.722 17.617 133.242 17.68C133.782 17.743 134.219 17.827 134.552 17.911V17.407C134.552 16.504 134.282 15.769 133.741 15.202C133.2 14.656 132.243 14.383 130.891 14.383C129.997 14.383 129.102 14.446 128.208 14.572C127.334 14.698 126.565 14.887 125.92 15.139L125.234 10.813C125.546 10.708 125.92 10.624 126.398 10.498C126.856 10.393 127.376 10.288 127.917 10.204C128.458 10.12 129.04 10.057 129.643 9.99397C130.246 9.97297 130.87 9.93097 131.494 9.93097ZM131.91 25.639C132.43 25.639 132.93 25.618 133.408 25.597C133.886 25.576 134.261 25.534 134.552 25.492V21.418C134.344 21.376 134.011 21.313 133.595 21.271C133.158 21.229 132.784 21.208 132.41 21.208C131.91 21.208 131.432 21.229 130.995 21.292C130.558 21.355 130.163 21.46 129.83 21.628C129.498 21.796 129.227 22.027 129.04 22.321C128.853 22.615 128.749 22.972 128.749 23.392C128.749 24.232 129.019 24.82 129.581 25.135C130.163 25.471 130.933 25.639 131.91 25.639ZM151.629 29.734C150.09 29.713 148.821 29.545 147.864 29.23C146.907 28.915 146.138 28.474 145.576 27.907C145.014 27.34 144.64 26.668 144.432 25.849C144.224 25.051 144.12 24.148 144.12 23.14V2.30797L149.424 1.44697V22.069C149.424 22.552 149.466 22.972 149.528 23.371C149.59 23.749 149.736 24.085 149.944 24.337C150.152 24.61 150.443 24.82 150.818 24.988C151.192 25.156 151.712 25.261 152.357 25.303L151.629 29.734ZM162.59 29.734C161.051 29.713 159.782 29.545 158.826 29.23C157.869 28.915 157.099 28.474 156.538 27.907C155.976 27.34 155.602 26.668 155.394 25.849C155.186 25.051 155.082 24.148 155.082 23.14V2.30797L160.386 1.44697V22.069C160.386 22.552 160.427 22.972 160.49 23.371C160.552 23.749 160.698 24.085 160.906 24.337C161.114 24.61 161.405 24.82 161.779 24.988C162.154 25.156 162.674 25.261 163.318 25.303L162.59 29.734ZM172.096 26.542C172.096 27.613 171.763 28.453 171.077 28.999C170.39 29.566 169.642 29.839 168.768 29.839C167.915 29.839 167.146 29.566 166.459 28.999C165.773 28.432 165.44 27.613 165.44 26.542C165.44 25.471 165.773 24.631 166.459 24.085C167.146 23.518 167.894 23.245 168.768 23.245C169.621 23.245 170.39 23.518 171.077 24.085C171.763 24.631 172.096 25.45 172.096 26.542ZM181.165 4.97497C181.165 5.96197 180.853 6.73897 180.229 7.30597C179.605 7.87297 178.856 8.14597 178.003 8.14597C177.15 8.14597 176.402 7.87297 175.778 7.30597C175.154 6.73897 174.842 5.96197 174.842 4.97497C174.842 3.98797 175.154 3.21097 175.778 2.64397C176.402 2.07697 177.15 1.80397 178.003 1.80397C178.856 1.80397 179.605 2.07697 180.229 2.64397C180.853 3.21097 181.165 3.98797 181.165 4.97497ZM180.666 29.377H175.362V10.435H180.666V29.377ZM202.88 19.885C202.88 21.376 202.672 22.741 202.235 23.98C201.798 25.219 201.195 26.269 200.384 27.151C199.573 28.033 198.616 28.705 197.472 29.188C196.349 29.671 195.08 29.902 193.666 29.902C192.293 29.902 191.024 29.671 189.901 29.188C188.778 28.705 187.8 28.033 186.989 27.151C186.178 26.269 185.554 25.219 185.096 23.98C184.638 22.741 184.41 21.376 184.41 19.885C184.41 18.394 184.638 17.05 185.096 15.811C185.554 14.593 186.198 13.543 187.03 12.682C187.842 11.821 188.819 11.149 189.963 10.666C191.086 10.183 192.314 9.95197 193.645 9.95197C194.997 9.95197 196.245 10.183 197.368 10.666C198.491 11.149 199.469 11.821 200.28 12.682C201.091 13.543 201.715 14.593 202.173 15.811C202.651 17.029 202.88 18.394 202.88 19.885ZM197.451 19.885C197.451 18.226 197.118 16.924 196.474 15.979C195.829 15.034 194.893 14.551 193.666 14.551C192.438 14.551 191.523 15.034 190.858 15.979C190.192 16.924 189.859 18.226 189.859 19.885C189.859 21.544 190.192 22.846 190.858 23.833C191.523 24.799 192.459 25.282 193.666 25.282C194.872 25.282 195.808 24.799 196.474 23.833C197.118 22.846 197.451 21.523 197.451 19.885ZM8.92 23.35H6.6736C6.0912 21.775 4.3232 20.956 2.7008 21.523C1.0784 22.069 0.225602 23.791 0.808002 25.366C1.3904 26.941 3.1584 27.76 4.7808 27.193C5.6752 26.899 6.3616 26.227 6.6736 25.366H9.96C10.5424 25.366 11 24.925 11 24.358V19.465H8.92V23.35ZM3.72 25.345C3.1376 25.345 2.68 24.904 2.68 24.337C2.68 23.77 3.1376 23.329 3.72 23.329C4.3024 23.329 4.76 23.77 4.76 24.337C4.76 24.904 4.3024 25.345 3.72 25.345ZM27.5984 11.821C27.3488 8.77597 24.9568 6.31897 21.8368 5.87797C21.296 2.32897 17.8848 -0.149028 14.1824 0.375972C11.2288 0.795972 8.8992 3.02197 8.4624 5.87797C4.7808 6.40297 2.2224 9.69997 2.7632 13.249C3.1376 15.769 4.968 17.785 7.4016 18.52H22.9392C25.8304 17.638 27.848 14.908 27.5984 11.821ZM4.76 12.325C4.76 9.82597 6.8608 7.80997 9.44 7.80997C10.0224 7.80997 10.48 7.36897 10.48 6.80197C10.48 4.30297 12.5808 2.28697 15.16 2.28697C17.7392 2.28697 19.84 4.30297 19.84 6.80197C19.84 7.34797 20.2976 7.80997 20.88 7.80997C23.4592 7.80997 25.56 9.82597 25.56 12.325C25.56 14.824 23.4592 16.84 20.88 16.84H9.44C6.8608 16.819 4.76 14.803 4.76 12.325ZM29.512 23.35C29.0752 22.153 27.8896 21.355 26.5792 21.355C25.2688 21.355 24.0832 22.153 23.6464 23.35H21.4V19.465H19.32V24.358C19.32 24.904 19.7776 25.366 20.36 25.366H23.6464C24.2288 26.941 25.9968 27.76 27.6192 27.193C29.2416 26.626 30.0944 24.904 29.512 23.35ZM26.5792 25.345C25.9968 25.345 25.5392 24.904 25.5392 24.337C25.5392 23.77 25.9968 23.329 26.5792 23.329C27.1616 23.329 27.6192 23.77 27.6192 24.337C27.6192 24.904 27.1616 25.345 26.5792 25.345ZM14.12 26.521C12.4976 27.067 11.6448 28.789 12.2272 30.364C12.8096 31.939 14.5776 32.758 16.2 32.191C17.8224 31.624 18.6752 29.923 18.0928 28.348C17.7808 27.487 17.0736 26.815 16.2 26.521V19.444H14.12V26.521ZM16.2 29.356C16.2 29.902 15.7424 30.364 15.16 30.364C14.5776 30.364 14.12 29.923 14.12 29.356C14.12 28.789 14.5776 28.348 15.16 28.348C15.7424 28.348 16.2 28.789 16.2 29.356Z" fill="url(#paint0_linear_0_98)"/>
<defs>
<linearGradient id="paint0_linear_0_98" x1="0.609861" y1="16.3281" x2="202.875" y2="16.3281" gradientUnits="userSpaceOnUse">
<stop stop-color="#1E226D"/>
<stop offset="1" stop-color="#BC3B96"/>
</linearGradient>
</defs>
</svg>
