<svg width="159" height="76" viewBox="0 0 159 76" fill="none" xmlns="http://www.w3.org/2000/svg">
<rect y="3.15479" width="90.4192" height="69.6084" rx="2.15284" fill="white"/>
<path d="M19.5808 61H10.7796L26.804 15.4828H36.9831L53.0297 61H44.2285L32.0714 24.8174H31.7158L19.5808 61ZM19.8697 43.1532H43.8729V49.7763H19.8697V43.1532Z" fill="#7C6EAC"/>
<path d="M75.4167 15.4828V61H67.1711V15.4828H75.4167Z" fill="#7C6EAC"/>
<path d="M158.999 37.8284C158.999 53.5217 146.277 66.2437 130.583 66.2437C114.89 66.2437 102.168 53.5217 102.168 37.8284C102.168 22.135 114.89 9.41309 130.583 9.41309C146.277 9.41309 158.999 22.135 158.999 37.8284ZM112.294 37.8284C112.294 47.929 120.483 56.1172 130.583 56.1172C140.684 56.1172 148.872 47.929 148.872 37.8284C148.872 27.7277 140.684 19.5395 130.583 19.5395C120.483 19.5395 112.294 27.7277 112.294 37.8284Z" fill="white"/>
</svg>
