<svg width="80" height="27" viewBox="0 0 80 27" fill="none" xmlns="http://www.w3.org/2000/svg">
<path d="M77.5158 16.0279L79.7387 17.5098C79.0173 18.5724 77.2917 20.3957 74.3083 20.3957C70.6037 20.3957 67.8447 17.5294 67.8447 13.8831C67.8447 10.0029 70.6329 7.37061 73.9964 7.37061C77.3793 7.37061 79.0367 10.0613 79.573 11.514L79.8655 12.255L71.1497 15.8622C71.8126 17.1686 72.8462 17.8316 74.3083 17.8316C75.7708 17.8316 76.7846 17.1101 77.5158 16.0279ZM70.6818 13.6785L76.502 11.2606C76.1802 10.4515 75.225 9.87633 74.0841 9.87633C72.6316 9.87633 70.6135 11.1632 70.6818 13.6785Z" fill="#FF302F"/>
<path d="M63.6426 0.731114H66.4502V19.8007H63.6426V0.730957V0.731114Z" fill="#20B15A"/>
<path d="M59.2171 7.87745H61.9274V19.4596C61.9274 24.2658 59.0904 26.2449 55.7366 26.2449C52.5779 26.2449 50.6769 24.1197 49.9652 22.3941L52.4512 21.3606C52.8995 22.4232 53.9817 23.681 55.7366 23.681C57.8911 23.681 59.2171 22.3453 59.2171 19.8496V18.9137H59.1196C58.4761 19.6935 57.2477 20.3954 55.6879 20.3954C52.4316 20.3954 49.4482 17.5584 49.4482 13.9026C49.4482 10.227 52.4316 7.36084 55.6879 7.36084C57.238 7.36084 58.4761 8.05304 59.1196 8.81348H59.2171V7.8776V7.87745ZM59.412 13.9026C59.412 11.6017 57.8814 9.92478 55.9316 9.92478C53.9622 9.92478 52.3048 11.6017 52.3048 13.9026C52.3048 16.174 53.9622 17.8216 55.9316 17.8216C57.8816 17.8315 59.4121 16.174 59.4121 13.9026H59.412Z" fill="#3686F7"/>
<path d="M34.0347 13.8537C34.0347 17.6072 31.11 20.3661 27.5222 20.3661C23.9346 20.3661 21.0098 17.5975 21.0098 13.8537C21.0098 10.0808 23.9346 7.33154 27.5222 7.33154C31.11 7.33154 34.0347 10.0808 34.0347 13.8537ZM31.1879 13.8537C31.1879 11.514 29.4915 9.90519 27.5222 9.90519C25.553 9.90519 23.8565 11.514 23.8565 13.8537C23.8565 16.174 25.553 17.8022 27.5222 17.8022C29.4916 17.8022 31.1879 16.174 31.1879 13.8537Z" fill="#FF302F"/>
<path d="M48.2583 13.8831C48.2583 17.6366 45.3335 20.3955 41.7458 20.3955C38.1581 20.3955 35.2334 17.6364 35.2334 13.8831C35.2334 10.1101 38.1581 7.37061 41.7458 7.37061C45.3335 7.37061 48.2583 10.1004 48.2583 13.8831ZM45.4017 13.8831C45.4017 11.5434 43.7054 9.93455 41.736 9.93455C39.7667 9.93455 38.0703 11.5434 38.0703 13.8831C38.0703 16.2033 39.7667 17.8316 41.736 17.8316C43.7151 17.8316 45.4017 16.1936 45.4017 13.8831Z" fill="#FFBA40"/>
<path d="M10.3049 17.539C6.21995 17.539 3.02233 14.2437 3.02233 10.1587C3.02233 6.07393 6.21995 2.77866 10.3049 2.77866C12.5083 2.77866 14.1168 3.6463 15.3062 4.75776L17.2659 2.79822C15.6086 1.20912 13.3955 0 10.3049 0C4.70894 0.0001565 0 4.56292 0 10.1587C0 15.7549 4.70894 20.3175 10.3049 20.3175C13.3272 20.3175 15.6086 19.3231 17.3927 17.4707C19.2254 15.6378 19.7909 13.064 19.7909 10.9777C19.7909 10.3245 19.7129 9.65184 19.6251 9.15464H10.3049V11.8649H16.9441C16.7491 13.5614 16.213 14.7215 15.4233 15.5111C14.4678 16.4763 12.9568 17.539 10.3049 17.539Z" fill="#3686F7"/>
</svg>
