<svg width="29" height="13" viewBox="0 0 29 13" fill="none" xmlns="http://www.w3.org/2000/svg">
<path fill-rule="evenodd" clip-rule="evenodd" d="M13.5555 9.86414V6.3585H15.3366C16.0664 6.3585 16.6824 6.11007 17.1846 5.62011L17.3051 5.4959C18.2225 4.48147 18.1622 2.90118 17.1846 1.96266C16.6958 1.4658 16.0263 1.19666 15.3366 1.21047H12.4775V9.86414H13.5555ZM13.5561 5.29582V2.27325H15.3642C15.7526 2.27325 16.121 2.42506 16.3955 2.7011C16.9781 3.28077 16.9915 4.24689 16.429 4.84727C16.1544 5.144 15.766 5.30962 15.3642 5.29582H13.5561ZM22.3334 4.40595C21.8714 3.9712 21.242 3.75037 20.4452 3.75037C19.4208 3.75037 18.6508 4.13682 18.1419 4.90282L19.0927 5.51699C19.4409 4.99253 19.9163 4.73029 20.5189 4.73029C20.9006 4.73029 21.2688 4.87521 21.5567 5.13744C21.838 5.38588 21.9987 5.74472 21.9987 6.12427V6.3796C21.5835 6.14497 21.0613 6.02075 20.4185 6.02075C19.6685 6.02075 19.0659 6.20018 18.6173 6.56592C18.1687 6.93167 17.9411 7.41473 17.9411 8.0289C17.9277 8.58787 18.162 9.11924 18.5771 9.47808C18.999 9.86453 19.5346 10.0578 20.164 10.0578C20.9073 10.0578 21.4965 9.71961 21.9451 9.04333H21.992V9.86453H23.0231V6.21398C23.0231 5.44798 22.7954 4.84071 22.3334 4.40595ZM19.408 8.77379C19.187 8.60817 19.0531 8.33903 19.0531 8.0492C19.0531 7.72486 19.2004 7.45572 19.4884 7.2418C19.7831 7.02787 20.1514 6.91745 20.5867 6.91745C21.1894 6.91055 21.6582 7.04857 21.993 7.32461C21.993 7.79386 21.8122 8.20102 21.4572 8.54606C21.1358 8.8773 20.7005 9.06362 20.2451 9.06362C19.9438 9.07052 19.6491 8.96701 19.408 8.77379ZM25.34 12.4659L28.9423 3.94339H27.7705L26.1033 8.19431H26.0832L24.3758 3.94339H23.204L25.5676 9.48478L24.2285 12.4659H25.34Z" fill="#3C4043"/>
<path d="M9.83474 5.59932C9.83474 5.26118 9.80796 4.92304 9.75439 4.5918H5.20801V6.50333H7.81264C7.70551 7.11751 7.35733 7.66958 6.84846 8.01462V9.25678H8.40186C9.31247 8.39417 9.83474 7.11751 9.83474 5.59932Z" fill="#4285F4"/>
<path d="M5.20768 10.4572C6.50665 10.4572 7.60474 10.0156 8.40153 9.25647L6.84813 8.01431C6.41291 8.31795 5.85716 8.49047 5.20768 8.49047C3.94889 8.49047 2.88427 7.61406 2.50262 6.44092H0.902344V7.72448C1.71922 9.40139 3.38645 10.4572 5.20768 10.4572Z" fill="#34A853"/>
<path d="M2.50262 6.44106C2.30172 5.82689 2.30172 5.1575 2.50262 4.53642V3.25977H0.902091C0.212324 4.66064 0.212324 6.31685 0.902091 7.71772L2.50262 6.44106Z" fill="#FBBC04"/>
<path d="M5.20768 2.48706C5.89734 2.47326 6.56021 2.7424 7.05569 3.23236L8.43501 1.81078C7.55787 0.968875 6.40621 0.506518 5.20768 0.52032C3.38645 0.52032 1.71922 1.58305 0.902344 3.25996L2.50262 4.54352C2.88427 3.36347 3.94889 2.48706 5.20768 2.48706Z" fill="#EA4335"/>
</svg>
