<svg width="28" height="28" viewBox="0 0 28 28" fill="none" xmlns="http://www.w3.org/2000/svg">
<path fill-rule="evenodd" clip-rule="evenodd" d="M14 0C6.26801 0 0 6.26801 0 14C0 21.732 6.26801 28 14 28C21.732 28 28 21.732 28 14C28 6.26801 21.732 0 14 0ZM10.9218 6.57849C11.7182 6.54224 11.9727 6.53337 14.0005 6.53337H13.9982C16.0267 6.53337 16.2802 6.54224 17.0767 6.57849C17.8716 6.61489 18.4145 6.74073 18.8905 6.92538C19.382 7.11594 19.7974 7.37105 20.2127 7.78639C20.6281 8.20141 20.8832 8.618 21.0745 9.10909C21.2581 9.58385 21.3841 10.1264 21.4214 10.9213C21.4572 11.7178 21.4665 11.9723 21.4665 14.0001C21.4665 16.028 21.4572 16.2818 21.4214 17.0783C21.3841 17.8729 21.2581 18.4156 21.0745 18.8905C20.8832 19.3815 20.6281 19.798 20.2127 20.2131C19.7978 20.6284 19.3819 20.8841 18.8909 21.0749C18.4159 21.2595 17.8727 21.3854 17.0778 21.4218C16.2813 21.458 16.0276 21.4669 13.9996 21.4669C11.9719 21.4669 11.7176 21.458 10.9211 21.4218C10.1264 21.3854 9.58365 21.2595 9.10858 21.0749C8.61779 20.8841 8.20121 20.6284 7.78634 20.2131C7.37116 19.798 7.11604 19.3815 6.92517 18.8904C6.74068 18.4156 6.61484 17.873 6.57828 17.0781C6.54219 16.2817 6.53317 16.028 6.53317 14.0001C6.53317 11.9723 6.5425 11.7176 6.57813 10.9212C6.6139 10.1266 6.73991 9.58385 6.92502 9.10893C7.11635 8.618 7.37147 8.20141 7.78681 7.78639C8.20183 7.3712 8.61841 7.11609 9.10951 6.92538C9.58427 6.74073 10.1269 6.61489 10.9218 6.57849Z" fill="#2D64F4"/>
<path fill-rule="evenodd" clip-rule="evenodd" d="M13.3312 7.87882C13.4613 7.87862 13.6012 7.87868 13.7522 7.87875L14.0011 7.87882C15.9947 7.87882 16.231 7.88598 17.0182 7.92175C17.7463 7.95504 18.1414 8.07669 18.4046 8.17889C18.753 8.31422 19.0014 8.476 19.2626 8.73734C19.524 8.99868 19.6857 9.24757 19.8214 9.59602C19.9236 9.85891 20.0454 10.254 20.0785 10.982C20.1143 11.7691 20.1221 12.0056 20.1221 13.9983C20.1221 15.991 20.1143 16.2274 20.0785 17.0145C20.0452 17.7425 19.9236 18.1377 19.8214 18.4006C19.686 18.749 19.524 18.9971 19.2626 19.2583C19.0013 19.5196 18.7532 19.6814 18.4046 19.8167C18.1417 19.9194 17.7463 20.0407 17.0182 20.074C16.2311 20.1098 15.9947 20.1176 14.0011 20.1176C12.0073 20.1176 11.771 20.1098 10.9839 20.074C10.2559 20.0404 9.86075 19.9188 9.59739 19.8166C9.24894 19.6813 9.00005 19.5195 8.73871 19.2581C8.47738 18.9968 8.3156 18.7485 8.17995 18.3999C8.07775 18.137 7.95595 17.7419 7.92282 17.0139C7.88704 16.2268 7.87988 15.9903 7.87988 13.9964C7.87988 12.0025 7.88704 11.7673 7.92282 10.9802C7.95611 10.2522 8.07775 9.85704 8.17995 9.59384C8.31529 9.24539 8.47738 8.9965 8.73871 8.73516C9.00005 8.47383 9.24894 8.31205 9.59739 8.1764C9.86059 8.07373 10.2559 7.9524 10.9839 7.91895C11.6727 7.88784 11.9396 7.87851 13.3312 7.87695V7.87882ZM17.9867 9.11865C17.492 9.11865 17.0907 9.51952 17.0907 10.0143C17.0907 10.509 17.492 10.9104 17.9867 10.9104C18.4813 10.9104 18.8827 10.509 18.8827 10.0143C18.8827 9.51968 18.4813 9.11834 17.9867 9.11834V9.11865ZM10.1666 14C10.1666 11.8824 11.8834 10.1656 14.001 10.1655C16.1186 10.1655 17.835 11.8824 17.835 14C17.835 16.1176 16.1187 17.8337 14.0011 17.8337C11.8835 17.8337 10.1666 16.1176 10.1666 14Z" fill="#2D64F4"/>
<path d="M14.0006 11.5112C15.3751 11.5112 16.4896 12.6255 16.4896 14.0001C16.4896 15.3746 15.3751 16.4891 14.0006 16.4891C12.626 16.4891 11.5117 15.3746 11.5117 14.0001C11.5117 12.6255 12.626 11.5112 14.0006 11.5112Z" fill="#2D64F4"/>
</svg>
