<svg width="28" height="28" viewBox="0 0 28 28" fill="none" xmlns="http://www.w3.org/2000/svg">
<path fill-rule="evenodd" clip-rule="evenodd" d="M14 0C6.26801 0 0 6.26801 0 14C0 21.732 6.26801 28 14 28C21.732 28 28 21.732 28 14C28 6.26801 21.732 0 14 0ZM13.6101 11.8638L13.5807 11.3794C13.4926 10.1238 14.2662 8.97703 15.4903 8.53214C15.9407 8.37396 16.7046 8.35419 17.204 8.4926C17.3999 8.55192 17.772 8.74964 18.0364 8.9276L18.5162 9.25385L19.045 9.08578C19.3388 8.9968 19.7305 8.84851 19.9068 8.74964C20.0733 8.66067 20.2202 8.61123 20.2202 8.64089C20.2202 8.80896 19.8578 9.38237 19.5543 9.69873C19.143 10.1436 19.2605 10.1832 20.0929 9.88657C20.5923 9.71851 20.6021 9.71851 20.5041 9.90635C20.4454 10.0052 20.1418 10.3512 19.8187 10.6676C19.2703 11.2113 19.2409 11.2707 19.2409 11.7254C19.2409 12.4274 18.9079 13.8905 18.575 14.6913C17.958 16.1941 16.636 17.7462 15.314 18.5273C13.4534 19.6246 10.9758 19.9015 8.88999 19.2588C8.19471 19.0413 7 18.4877 7 18.3888C7 18.3592 7.36233 18.3196 7.803 18.3098C8.72352 18.29 9.64403 18.0329 10.4274 17.5782L10.9563 17.2618L10.3491 17.0542C9.48735 16.7576 8.71372 16.0754 8.51787 15.4328C8.45911 15.2252 8.4787 15.2153 9.02709 15.2153L9.59507 15.2054L9.11522 14.978C8.54725 14.6913 8.02823 14.2069 7.77362 13.7126C7.58756 13.3567 7.35254 12.457 7.42109 12.3878C7.44067 12.3582 7.64632 12.4175 7.88134 12.4966C8.55704 12.7437 8.64517 12.6844 8.25347 12.2692C7.51901 11.5178 7.29378 10.4007 7.64632 9.34282L7.81279 8.86828L8.45911 9.51089C9.78113 10.806 11.3382 11.5771 13.1204 11.8045L13.6101 11.8638Z" fill="#2D64F4"/>
</svg>
