<svg width="27" height="17" viewBox="0 0 27 17" fill="none" xmlns="http://www.w3.org/2000/svg">
<path fill-rule="evenodd" clip-rule="evenodd" d="M18.6181 16.6371C22.9231 16.6371 26.4129 13.1231 26.4129 8.78828C26.4129 4.45349 22.9231 0.939453 18.6181 0.939453C16.6884 0.939453 14.9225 1.64549 13.5613 2.81501C12.2003 1.64613 10.4349 0.940527 8.50578 0.940527C4.20081 0.940527 0.710938 4.45457 0.710938 8.78935C0.710938 13.1241 4.20081 16.6382 8.50578 16.6382C10.4354 16.6382 12.2013 15.9321 13.5626 14.7626C14.9236 15.9315 16.689 16.6371 18.6181 16.6371Z" fill="#ED0006"/>
<path fill-rule="evenodd" clip-rule="evenodd" d="M13.5615 14.7622C15.2376 13.3226 16.3004 11.1804 16.3004 8.78828C16.3004 6.39614 15.2376 4.25395 13.5615 2.81433C14.9226 1.64522 16.6882 0.939453 18.6175 0.939453C22.9225 0.939453 26.4124 4.45349 26.4124 8.78828C26.4124 13.1231 22.9225 16.6371 18.6175 16.6371C16.6882 16.6371 14.9227 15.9313 13.5615 14.7622Z" fill="#F9A000"/>
<path fill-rule="evenodd" clip-rule="evenodd" d="M13.5621 14.7623C15.2381 13.3227 16.3009 11.1805 16.3009 8.7884C16.3009 6.39626 15.2381 4.25407 13.5621 2.81445C11.886 4.25407 10.8232 6.39626 10.8232 8.7884C10.8232 11.1805 11.886 13.3227 13.5621 14.7623Z" fill="#FF5E00"/>
</svg>
