<svg width="91" height="12" viewBox="0 0 91 12" fill="none" xmlns="http://www.w3.org/2000/svg">
<path d="M11.6446 4.04646L8.0372 3.52219L6.42458 0.252909C6.38054 0.163398 6.30808 0.0909369 6.21857 0.0468919C5.99408 -0.0639311 5.72128 0.0284214 5.60904 0.252909L3.99642 3.52219L0.388995 4.04646C0.289538 4.06067 0.198607 4.10756 0.128987 4.1786C0.0448209 4.26511 -0.0015585 4.38149 3.99899e-05 4.50218C0.00163848 4.62286 0.0510841 4.73798 0.137512 4.82222L2.74753 7.36689L2.1309 10.9601C2.11644 11.0437 2.12569 11.1297 2.1576 11.2083C2.18951 11.2869 2.24281 11.3549 2.31144 11.4048C2.38008 11.4546 2.46131 11.4843 2.54592 11.4903C2.63053 11.4963 2.71515 11.4785 2.79016 11.4389L6.01681 9.74248L9.24347 11.4389C9.33156 11.4858 9.43385 11.5014 9.53189 11.4844C9.77911 11.4418 9.94534 11.2073 9.90272 10.9601L9.28609 7.36689L11.8961 4.82222C11.9672 4.75261 12.014 4.66167 12.0282 4.56222C12.0666 4.31358 11.8933 4.08341 11.6446 4.04646Z" fill="#FBBC04"/>
<path d="M31.2862 4.04646L27.6788 3.52219L26.0662 0.252909C26.0221 0.163398 25.9497 0.0909369 25.8602 0.0468919C25.6357 -0.0639311 25.3629 0.0284214 25.2506 0.252909L23.638 3.52219L20.0306 4.04646C19.9311 4.06067 19.8402 4.10756 19.7706 4.1786C19.6864 4.26511 19.64 4.38149 19.6416 4.50218C19.6432 4.62286 19.6927 4.73798 19.7791 4.82222L22.3891 7.36689L21.7725 10.9601C21.758 11.0437 21.7673 11.1297 21.7992 11.2083C21.8311 11.2869 21.8844 11.3549 21.953 11.4048C22.0217 11.4546 22.1029 11.4843 22.1875 11.4903C22.2721 11.4963 22.3567 11.4785 22.4318 11.4389L25.6584 9.74248L28.8851 11.4389C28.9732 11.4858 29.0755 11.5014 29.1735 11.4844C29.4207 11.4418 29.5869 11.2073 29.5443 10.9601L28.9277 7.36689L31.5377 4.82222C31.6088 4.75261 31.6556 4.66167 31.6698 4.56222C31.7082 4.31358 31.5349 4.08341 31.2862 4.04646Z" fill="#FBBC04"/>
<path d="M50.9269 4.04646L47.3194 3.52219L45.7068 0.252909C45.6628 0.163398 45.5903 0.0909369 45.5008 0.0468919C45.2763 -0.0639311 45.0035 0.0284214 44.8913 0.252909L43.2787 3.52219L39.6712 4.04646C39.5718 4.06067 39.4808 4.10756 39.4112 4.1786C39.327 4.26511 39.2807 4.38149 39.2823 4.50218C39.2839 4.62286 39.3333 4.73798 39.4197 4.82222L42.0298 7.36689L41.4131 10.9601C41.3987 11.0437 41.4079 11.1297 41.4398 11.2083C41.4717 11.2869 41.525 11.3549 41.5937 11.4048C41.6623 11.4546 41.7435 11.4843 41.8281 11.4903C41.9128 11.4963 41.9974 11.4785 42.0724 11.4389L45.299 9.74248L48.5257 11.4389C48.6138 11.4858 48.7161 11.5014 48.8141 11.4844C49.0613 11.4418 49.2276 11.2073 49.1849 10.9601L48.5683 7.36689L51.1783 4.82222C51.2494 4.75261 51.2963 4.66167 51.3105 4.56222C51.3488 4.31358 51.1755 4.08341 50.9269 4.04646Z" fill="#FBBC04"/>
<path d="M70.5685 4.04646L66.961 3.52219L65.3484 0.252909C65.3044 0.163398 65.2319 0.0909369 65.1424 0.0468919C64.9179 -0.0639311 64.6451 0.0284214 64.5329 0.252909L62.9203 3.52219L59.3128 4.04646C59.2134 4.06067 59.1224 4.10756 59.0528 4.1786C58.9686 4.26511 58.9223 4.38149 58.9239 4.50218C58.9255 4.62286 58.9749 4.73798 59.0613 4.82222L61.6714 7.36689L61.0547 10.9601C61.0403 11.0437 61.0495 11.1297 61.0814 11.2083C61.1133 11.2869 61.1666 11.3549 61.2353 11.4048C61.3039 11.4546 61.3851 11.4843 61.4697 11.4903C61.5544 11.4963 61.639 11.4785 61.714 11.4389L64.9406 9.74248L68.1673 11.4389C68.2554 11.4858 68.3577 11.5014 68.4557 11.4844C68.7029 11.4418 68.8692 11.2073 68.8265 10.9601L68.2099 7.36689L70.8199 4.82222C70.891 4.75261 70.9379 4.66167 70.9521 4.56222C70.9904 4.31358 70.8171 4.08341 70.5685 4.04646Z" fill="#FBBC04"/>
<path d="M90.2101 4.04646L86.6026 3.52219L84.99 0.252909C84.946 0.163398 84.8735 0.0909369 84.784 0.0468919C84.5595 -0.0639311 84.2867 0.0284214 84.1745 0.252909L82.5619 3.52219L78.9544 4.04646C78.855 4.06067 78.764 4.10756 78.6944 4.1786C78.6103 4.26511 78.5639 4.38149 78.5655 4.50218C78.5671 4.62286 78.6165 4.73798 78.7029 4.82222L81.313 7.36689L80.6963 10.9601C80.6819 11.0437 80.6911 11.1297 80.723 11.2083C80.7549 11.2869 80.8082 11.3549 80.8769 11.4048C80.9455 11.4546 81.0267 11.4843 81.1114 11.4903C81.196 11.4963 81.2806 11.4785 81.3556 11.4389L84.5822 9.74248L87.8089 11.4389C87.897 11.4858 87.9993 11.5014 88.0973 11.4844C88.3445 11.4418 88.5108 11.2073 88.4682 10.9601L87.8515 7.36689L90.4615 4.82222C90.5326 4.75261 90.5795 4.66167 90.5937 4.56222C90.632 4.31358 90.4587 4.08341 90.2101 4.04646Z" fill="#FBBC04"/>
<mask id="mask0_205_1935" style="mask-type:alpha" maskUnits="userSpaceOnUse" x="78" y="0" width="13" height="12">
<path d="M90.2101 4.04646L86.6026 3.52219L84.99 0.252909C84.946 0.163398 84.8735 0.0909369 84.784 0.0468919C84.5595 -0.0639311 84.2867 0.0284214 84.1745 0.252909L82.5619 3.52219L78.9544 4.04646C78.855 4.06067 78.764 4.10756 78.6944 4.1786C78.6103 4.26511 78.5639 4.38149 78.5655 4.50218C78.5671 4.62286 78.6165 4.73798 78.7029 4.82222L81.313 7.36689L80.6963 10.9601C80.6819 11.0437 80.6911 11.1297 80.723 11.2083C80.7549 11.2869 80.8082 11.3549 80.8769 11.4048C80.9455 11.4546 81.0267 11.4843 81.1114 11.4903C81.196 11.4963 81.2806 11.4785 81.3556 11.4389L84.5822 9.74248L87.8089 11.4389C87.897 11.4858 87.9993 11.5014 88.0973 11.4844C88.3445 11.4418 88.5108 11.2073 88.4682 10.9601L87.8515 7.36689L90.4615 4.82222C90.5326 4.75261 90.5795 4.66167 90.5937 4.56222C90.632 4.31358 90.4587 4.08341 90.2101 4.04646Z" fill="#FBBC04"/>
</mask>
<g mask="url(#mask0_205_1935)">
<rect x="84.4629" y="-2.29834" width="9.76773" height="16.088" fill="white"/>
</g>
</svg>
