<svg width="29" height="10" viewBox="0 0 29 10" fill="none" xmlns="http://www.w3.org/2000/svg">
<path fill-rule="evenodd" clip-rule="evenodd" d="M7.13756 9.77784H4.7155L2.89925 2.88083C2.81304 2.56357 2.63 2.28309 2.36075 2.1509C1.68881 1.81869 0.948372 1.5543 0.140625 1.42096V1.15543H4.04237C4.58087 1.15543 4.98474 1.5543 5.05206 2.01755L5.99443 6.9926L8.41531 1.15543H10.7701L7.13756 9.77784ZM12.1167 9.77784H9.82931L11.7129 1.15543H14.0003L12.1167 9.77784ZM16.9589 3.54407C17.0262 3.07967 17.4301 2.81414 17.9013 2.81414C18.6417 2.74747 19.4483 2.88081 20.1214 3.21187L20.5253 1.35542C19.8522 1.08989 19.1117 0.956543 18.4398 0.956543C16.2197 0.956543 14.6042 2.15088 14.6042 3.80846C14.6042 5.06946 15.7485 5.73158 16.5562 6.13045C17.4301 6.52818 17.7667 6.79372 17.6994 7.19145C17.6994 7.78804 17.0262 8.05357 16.3543 8.05357C15.5465 8.05357 14.7388 7.85471 13.9995 7.5225L13.5957 9.3801C14.4034 9.71116 15.2773 9.8445 16.085 9.8445C18.5744 9.91002 20.1214 8.71684 20.1214 6.92591C20.1214 4.67059 16.9589 4.53839 16.9589 3.54407ZM28.1266 9.77784L26.3104 1.15543H24.3595C23.9556 1.15543 23.5518 1.42096 23.4171 1.81869L20.0539 9.77784H22.4086L22.8786 8.51799H25.7719L26.0411 9.77784H28.1266ZM24.6969 3.47747L25.3689 6.72711H23.4853L24.6969 3.47747Z" fill="#172B85"/>
</svg>
