<svg width="18" height="18" viewBox="0 0 18 18" fill="none" xmlns="http://www.w3.org/2000/svg">
<path d="M17.3298 7.03631H16.625V7H8.75V10.5H13.6951C12.9736 12.5374 11.0351 14 8.75 14C5.85069 14 3.5 11.6493 3.5 8.75C3.5 5.85069 5.85069 3.5 8.75 3.5C10.0883 3.5 11.3059 4.00488 12.2329 4.82956L14.7079 2.35463C13.1451 0.898188 11.0548 0 8.75 0C3.91781 0 0 3.91781 0 8.75C0 13.5822 3.91781 17.5 8.75 17.5C13.5822 17.5 17.5 13.5822 17.5 8.75C17.5 8.16331 17.4396 7.59063 17.3298 7.03631Z" fill="#FFC107"/>
<path d="M1.00879 4.67731L3.8836 6.78563C4.66148 4.85975 6.54535 3.5 8.74991 3.5C10.0882 3.5 11.3058 4.00487 12.2329 4.82956L14.7078 2.35462C13.145 0.898187 11.0547 0 8.74991 0C5.38904 0 2.47441 1.89744 1.00879 4.67731Z" fill="#FF3D00"/>
<path d="M8.74965 17.5001C11.0098 17.5001 13.0634 16.6351 14.6161 15.2286L11.908 12.9369C10.9999 13.6275 9.89041 14.001 8.74965 14.0001C6.47377 14.0001 4.54134 12.5489 3.81334 10.5237L0.959961 12.7221C2.40809 15.5558 5.34896 17.5001 8.74965 17.5001Z" fill="#4CAF50"/>
<path d="M17.3298 7.03631H16.625V7H8.75V10.5H13.6951C13.35 11.4697 12.7283 12.317 11.907 12.9373L11.9083 12.9364L14.6164 15.2281C14.4248 15.4022 17.5 13.125 17.5 8.75C17.5 8.16331 17.4396 7.59063 17.3298 7.03631Z" fill="#1976D2"/>
</svg>
