<svg width="125" height="19" viewBox="0 0 125 19" fill="none" xmlns="http://www.w3.org/2000/svg">
<rect width="19" height="19" fill="#00B67A"/>
<rect x="27" width="19" height="19" fill="#00B67A"/>
<rect x="53" width="19" height="19" fill="#00B67A"/>
<rect x="80" width="19" height="19" fill="#00B67A"/>
<rect x="106" width="19" height="19" fill="#00B67A"/>
<path d="M124.133 7.24848H117.842L115.905 1.26685L113.957 7.24848L107.666 7.23702L112.754 10.9383L110.806 16.9199L115.894 13.2186L120.981 16.9199L119.045 10.9383L124.133 7.24848Z" fill="white"/>
<path d="M119.48 12.2904L119.045 10.9382L115.905 13.2186L119.48 12.2904Z" fill="#A9A9A9"/>
<path d="M97.5331 7.24848H91.2421L89.3055 1.26685L87.3574 7.24848L81.0664 7.23702L86.1542 10.9383L84.2062 16.9199L89.294 13.2186L94.3818 16.9199L92.4453 10.9383L97.5331 7.24848Z" fill="white"/>
<path d="M92.8809 12.2904L92.4454 10.9382L89.3057 13.2186L92.8809 12.2904Z" fill="#A9A9A9"/>
<path d="M70.9335 7.24848H64.6424L62.7059 1.26685L60.7578 7.24848L54.4668 7.23702L59.5546 10.9383L57.6066 16.9199L62.6944 13.2186L67.7822 16.9199L65.8456 10.9383L70.9335 7.24848Z" fill="white"/>
<path d="M66.2813 12.2904L65.8458 10.9382L62.7061 13.2186L66.2813 12.2904Z" fill="#A9A9A9"/>
<path d="M44.3329 7.24848H38.0419L36.1053 1.26685L34.1572 7.24848L27.8662 7.23702L32.954 10.9383L31.006 16.9199L36.0938 13.2186L41.1816 16.9199L39.2451 10.9383L44.3329 7.24848Z" fill="white"/>
<path d="M39.6807 12.2904L39.2453 10.9382L36.1055 13.2186L39.6807 12.2904Z" fill="#A9A9A9"/>
<path d="M17.7333 7.24848H11.4422L9.50566 1.26685L7.55762 7.24848L1.2666 7.23702L6.35442 10.9383L4.40638 16.9199L9.49421 13.2186L14.582 16.9199L12.6454 10.9383L17.7333 7.24848Z" fill="white"/>
<path d="M13.0811 12.2904L12.6456 10.9382L9.50586 13.2186L13.0811 12.2904Z" fill="#A9A9A9"/>
</svg>
