<svg width="125" height="16" viewBox="0 0 125 16" fill="none" xmlns="http://www.w3.org/2000/svg">
<path d="M16.0074 5.56251L11.0484 4.8418L8.83161 0.347663C8.77106 0.224617 8.67145 0.125007 8.54841 0.0644604C8.23981 -0.0878834 7.86481 0.0390697 7.71052 0.347663L5.49372 4.8418L0.534735 5.56251C0.398016 5.58204 0.273016 5.64649 0.177313 5.74415C0.0616135 5.86307 -0.0021424 6.02306 5.49725e-05 6.18896C0.00225234 6.35486 0.0702231 6.5131 0.189032 6.62891L3.77692 10.127L2.92927 15.0664C2.90939 15.1813 2.9221 15.2995 2.96597 15.4075C3.00984 15.5156 3.0831 15.6092 3.17745 15.6777C3.2718 15.7462 3.38346 15.7869 3.49977 15.7952C3.61609 15.8035 3.7324 15.7791 3.83552 15.7246L8.27106 13.3926L12.7066 15.7246C12.8277 15.7891 12.9683 15.8106 13.1031 15.7871C13.4429 15.7285 13.6715 15.4063 13.6129 15.0664L12.7652 10.127L16.3531 6.62891C16.4508 6.53321 16.5152 6.40821 16.5347 6.27149C16.5875 5.92969 16.3492 5.61329 16.0074 5.56251Z" fill="#FBBC04"/>
<path d="M43.0074 5.56251L38.0484 4.8418L35.8316 0.347663C35.7711 0.224617 35.6715 0.125007 35.5484 0.0644604C35.2398 -0.0878834 34.8648 0.0390697 34.7105 0.347663L32.4937 4.8418L27.5347 5.56251C27.398 5.58204 27.273 5.64649 27.1773 5.74415C27.0616 5.86307 26.9979 6.02306 27.0001 6.18896C27.0023 6.35486 27.0702 6.5131 27.189 6.62891L30.7769 10.127L29.9293 15.0664C29.9094 15.1813 29.9221 15.2995 29.966 15.4075C30.0098 15.5156 30.0831 15.6092 30.1774 15.6777C30.2718 15.7462 30.3835 15.7869 30.4998 15.7952C30.6161 15.8035 30.7324 15.7791 30.8355 15.7246L35.2711 13.3926L39.7066 15.7246C39.8277 15.7891 39.9683 15.8106 40.1031 15.7871C40.4429 15.7285 40.6715 15.4063 40.6129 15.0664L39.7652 10.127L43.3531 6.62891C43.4508 6.53321 43.5152 6.40821 43.5347 6.27149C43.5875 5.92969 43.3492 5.61329 43.0074 5.56251Z" fill="#FBBC04"/>
<path d="M70.0074 5.56251L65.0484 4.8418L62.8316 0.347663C62.7711 0.224617 62.6715 0.125007 62.5484 0.0644604C62.2398 -0.0878834 61.8648 0.0390697 61.7105 0.347663L59.4937 4.8418L54.5347 5.56251C54.398 5.58204 54.273 5.64649 54.1773 5.74415C54.0616 5.86307 53.9979 6.02306 54.0001 6.18896C54.0023 6.35486 54.0702 6.5131 54.189 6.62891L57.7769 10.127L56.9293 15.0664C56.9094 15.1813 56.9221 15.2995 56.966 15.4075C57.0098 15.5156 57.0831 15.6092 57.1774 15.6777C57.2718 15.7462 57.3835 15.7869 57.4998 15.7952C57.6161 15.8035 57.7324 15.7791 57.8355 15.7246L62.2711 13.3926L66.7066 15.7246C66.8277 15.7891 66.9683 15.8106 67.1031 15.7871C67.4429 15.7285 67.6715 15.4063 67.6129 15.0664L66.7652 10.127L70.3531 6.62891C70.4508 6.53321 70.5152 6.40821 70.5347 6.27149C70.5875 5.92969 70.3492 5.61329 70.0074 5.56251Z" fill="#FBBC04"/>
<path d="M97.0074 5.56251L92.0484 4.8418L89.8316 0.347663C89.7711 0.224617 89.6715 0.125007 89.5484 0.0644604C89.2398 -0.0878834 88.8648 0.0390697 88.7105 0.347663L86.4937 4.8418L81.5347 5.56251C81.398 5.58204 81.273 5.64649 81.1773 5.74415C81.0616 5.86307 80.9979 6.02306 81.0001 6.18896C81.0023 6.35486 81.0702 6.5131 81.189 6.62891L84.7769 10.127L83.9293 15.0664C83.9094 15.1813 83.9221 15.2995 83.966 15.4075C84.0098 15.5156 84.0831 15.6092 84.1774 15.6777C84.2718 15.7462 84.3835 15.7869 84.4998 15.7952C84.6161 15.8035 84.7324 15.7791 84.8355 15.7246L89.2711 13.3926L93.7066 15.7246C93.8277 15.7891 93.9683 15.8106 94.1031 15.7871C94.4429 15.7285 94.6715 15.4063 94.6129 15.0664L93.7652 10.127L97.3531 6.62891C97.4508 6.53321 97.5152 6.40821 97.5347 6.27149C97.5875 5.92969 97.3492 5.61329 97.0074 5.56251Z" fill="#FBBC04"/>
<path d="M124.007 5.56251L119.048 4.8418L116.832 0.347663C116.771 0.224617 116.671 0.125007 116.548 0.0644604C116.24 -0.0878834 115.865 0.0390697 115.711 0.347663L113.494 4.8418L108.535 5.56251C108.398 5.58204 108.273 5.64649 108.177 5.74415C108.062 5.86307 107.998 6.02306 108 6.18896C108.002 6.35486 108.07 6.5131 108.189 6.62891L111.777 10.127L110.929 15.0664C110.909 15.1813 110.922 15.2995 110.966 15.4075C111.01 15.5156 111.083 15.6092 111.177 15.6777C111.272 15.7462 111.383 15.7869 111.5 15.7952C111.616 15.8035 111.732 15.7791 111.836 15.7246L116.271 13.3926L120.707 15.7246C120.828 15.7891 120.968 15.8106 121.103 15.7871C121.443 15.7285 121.671 15.4063 121.613 15.0664L120.765 10.127L124.353 6.62891C124.451 6.53321 124.515 6.40821 124.535 6.27149C124.587 5.92969 124.349 5.61329 124.007 5.56251Z" fill="#FBBC04"/>
</svg>
