<svg width="38" height="38" viewBox="0 0 38 38" fill="none" xmlns="http://www.w3.org/2000/svg">
<path d="M38 19C38 29.4934 29.4934 38 19 38C8.50659 38 0 29.4934 0 19C0 8.50659 8.50659 0 19 0C29.4934 0 38 8.50659 38 19Z" fill="#2D64F4"/>
<g clip-path="url(#clip0_158_2259)">
<path fill-rule="evenodd" clip-rule="evenodd" d="M23.5229 23.5971C22.7789 24.7486 21.2793 25.4728 19.7932 25.1649C19.8125 25.0425 19.8321 24.9202 19.8517 24.7979C21.0314 24.8222 22.1968 24.1779 22.7155 23.214C23.2339 22.2505 23.0784 21.0185 22.3327 20.1868C21.8836 19.6856 21.2415 19.318 20.9321 18.7357C20.3854 17.706 21.1872 17.0055 21.3541 16.047C21.4949 15.2391 20.2854 14.6987 19.6093 14.5C18.309 14.1176 15.6209 14.2669 15.8865 16.0625C15.975 16.6629 16.4123 17.1763 16.9127 17.5762C17.4131 17.9765 17.9883 18.2939 18.4851 18.6977C19.0172 19.1301 19.461 19.674 19.6443 20.3008C19.8275 20.9277 19.7207 21.6424 19.2657 22.1418C19.1001 22.3238 18.7915 22.4759 18.5981 22.3179C18.3956 22.1528 18.5465 21.8574 18.6526 21.6296C18.9571 20.9758 18.7487 20.199 18.313 19.6099C17.4183 18.4005 15.6751 17.8233 15.3887 16.24C14.9471 13.799 18.4211 13.4287 20.2413 13.9911C20.649 14.117 21.0089 14.2901 21.3055 14.4837C21.5325 14.6354 21.7206 14.7987 21.8696 14.9564C21.964 14.6752 22.0201 14.4047 22.0133 14.1508C21.9849 13.1062 20.9798 12.2938 19.9751 11.9405C19.5313 11.7846 19.059 11.7032 18.5844 11.6807C18.1297 11.6593 17.6417 11.7867 17.206 11.7472C17.2446 11.6922 17.2998 11.6626 17.3625 11.6266C17.5049 11.5453 17.7205 11.4327 18.0174 11.3229C18.3152 11.2178 18.6977 11.1177 19.1592 11.088C20.7381 10.9856 22.2958 11.8538 22.8834 13.1959C23.21 13.9424 23.2152 14.7958 22.9229 15.5517C22.6156 16.3469 22.0685 17.021 21.9061 17.8663C21.88 18.0017 21.8627 18.146 21.9215 18.2725C21.9816 18.4005 22.1096 18.4893 22.2282 18.5775C23.5935 19.5915 24.4055 21.4123 23.8306 22.9821C23.7519 23.1974 23.648 23.4032 23.5229 23.5971ZM24.3254 18.894C23.9694 18.0587 23.6954 17.2229 24.0625 16.3003C24.6948 14.7102 25.0117 12.6656 24.2562 11.0509C23.7107 9.88454 22.4973 9.08847 21.2258 8.65584C18.377 7.68666 14.9396 8.36841 13.0589 10.6283C12.4494 11.3606 11.9265 12.2445 11.676 13.1356C11.1403 15.0407 11.7067 16.9527 13.3594 18.8183C15.0144 20.6863 15.8486 22.9275 16.2716 25.2664C16.4375 26.183 16.5436 27.0949 16.9588 27.956C16.9754 27.9905 16.9924 28.0246 17.0101 28.0587C18.0873 30.1785 21.0321 31.0684 23.148 29.5787C24.1095 28.9017 24.5809 27.8375 24.8382 26.7885C25.3308 24.7806 25.4905 22.5667 24.9708 20.5509C24.8245 19.9831 24.5577 19.4389 24.3254 18.894Z" fill="white"/>
</g>
<defs>
<clipPath id="clip0_158_2259">
<rect width="27" height="27" fill="white" transform="translate(5 7)"/>
</clipPath>
</defs>
</svg>
