<svg width="38" height="38" viewBox="0 0 38 38" fill="none" xmlns="http://www.w3.org/2000/svg">
<path d="M38 19C38 29.4934 29.4934 38 19 38C8.50659 38 0 29.4934 0 19C0 8.50659 8.50659 0 19 0C29.4934 0 38 8.50659 38 19Z" fill="#2D64F4"/>
<g clip-path="url(#clip0_158_2257)">
<path d="M29.0806 19.4329C28.6432 17.8489 28.0573 16.4307 27.3418 15.2174C26.6047 13.9703 25.7083 12.9048 24.6742 12.0466C23.6158 11.1678 22.3819 10.4833 21.0103 10.014C20.7349 9.92072 20.4298 9.95961 20.1922 10.1203C19.9546 10.2811 19.8196 10.53 19.8196 10.8074V13.5218V16.0107C19.8439 16.0496 19.8682 16.0859 19.8952 16.1248C19.933 16.1792 19.9708 16.2311 20.0113 16.2855C20.0221 16.2985 20.0329 16.3141 20.0437 16.327C20.0599 16.3503 20.0788 16.3711 20.095 16.3944C20.095 16.3996 20.095 16.4022 20.095 16.4074V16.3944C20.1814 16.5033 20.2705 16.6096 20.3623 16.7107C20.392 16.7418 20.419 16.7729 20.4487 16.8015L20.5378 16.8922C20.5972 16.9544 20.6593 17.0115 20.7214 17.0711C20.9455 17.2863 21.1804 17.4937 21.418 17.7037C21.4207 17.6985 21.4261 17.6959 21.4288 17.6907C21.4369 17.6829 21.4423 17.6752 21.4504 17.6648L21.472 17.6389C21.4801 17.6311 21.4855 17.6207 21.4936 17.6129L21.5125 17.5844L21.5314 17.5559C21.5368 17.5455 21.5422 17.5352 21.5503 17.5248C21.5611 17.5041 21.5746 17.4859 21.5854 17.4652L21.6178 17.4003L21.6259 17.3848C21.6286 17.3796 21.6313 17.3744 21.634 17.3692L21.6502 17.3355C21.661 17.3122 21.6718 17.2915 21.6799 17.2681L21.7069 17.1981L21.7204 17.1644C21.7231 17.154 21.7285 17.1411 21.7312 17.1281C21.7447 17.0815 21.7636 17.0348 21.7744 16.9855L21.7933 16.9129C21.796 16.9 21.8014 16.8896 21.8014 16.8766L21.8095 16.8403L21.8122 16.83L21.8041 16.8248L21.7771 16.804C21.7609 16.7911 21.7447 16.7781 21.7285 16.7652C21.715 16.7522 21.6988 16.7392 21.6853 16.7237L21.6448 16.6822C21.6313 16.6692 21.6178 16.6537 21.607 16.6407C21.5935 16.6278 21.58 16.6122 21.5692 16.5992L21.5341 16.5552C21.5233 16.5396 21.5125 16.5266 21.499 16.5111C21.4099 16.3918 21.337 16.2648 21.2776 16.1352C21.2479 16.0703 21.2236 16.0029 21.1993 15.9381C21.1804 15.8707 21.1561 15.8059 21.1426 15.7359L21.1318 15.6866L21.1264 15.6607C21.1237 15.6529 21.1237 15.6426 21.121 15.6348L21.1048 15.5311C21.0994 15.4974 21.0967 15.4637 21.094 15.43C21.0913 15.3963 21.0886 15.3626 21.0859 15.3289L21.0832 15.2278C21.0832 15.2122 21.0832 15.194 21.0832 15.1785V15.1292L21.0859 15.0307C21.0886 14.997 21.0886 14.9659 21.0913 14.9322C21.0994 14.8 21.1129 14.6703 21.1318 14.5407C21.1696 14.284 21.2209 14.03 21.2884 13.7785C21.2641 14.0352 21.2614 14.2918 21.2695 14.5459C21.2749 14.6729 21.283 14.8 21.2992 14.9244C21.3019 14.9555 21.3073 14.9866 21.31 15.0178L21.3262 15.1111L21.3343 15.1578C21.337 15.1733 21.3397 15.1889 21.3451 15.2044L21.364 15.2952C21.3694 15.3263 21.3802 15.3548 21.3883 15.3833C21.3964 15.4118 21.4045 15.4429 21.4153 15.4715L21.445 15.557C21.4477 15.5648 21.4504 15.57 21.4531 15.5778L21.4612 15.5985L21.4801 15.64C21.5017 15.697 21.5314 15.7489 21.5584 15.8007C21.5881 15.8526 21.6178 15.9044 21.6529 15.9511C21.7204 16.047 21.7933 16.1378 21.877 16.2155C21.8878 16.2259 21.8986 16.2363 21.9067 16.2441L21.9391 16.27C21.9499 16.2803 21.9607 16.2881 21.9715 16.2959C21.9769 16.2985 21.9796 16.3037 21.985 16.3063C22.0066 16.2648 22.0255 16.2233 22.0498 16.1844C22.147 16.0133 22.2577 15.8552 22.3738 15.7022V15.6944C22.3765 15.6763 22.3765 15.6581 22.3792 15.64C22.3819 15.6037 22.3846 15.5674 22.3846 15.5311C22.3873 15.4585 22.3873 15.3859 22.3846 15.3107C22.3819 15.2381 22.3792 15.1629 22.3711 15.0903C22.3657 15.0178 22.3576 14.9426 22.3468 14.87C22.3036 14.577 22.2307 14.2892 22.1146 14.0144L22.093 13.9626L22.0687 13.9107C22.0525 13.877 22.0363 13.8433 22.0201 13.8096C22.0039 13.7759 21.985 13.7422 21.9688 13.7085C21.9499 13.6748 21.9337 13.6385 21.9175 13.6048C21.85 13.4674 21.7879 13.3274 21.7339 13.1822C21.6799 13.0396 21.634 12.8944 21.5962 12.7466C21.58 12.6715 21.5638 12.5989 21.553 12.5237C21.5476 12.4848 21.5449 12.4485 21.5422 12.4096C21.5395 12.3707 21.5395 12.3344 21.5422 12.2955C21.5422 12.3344 21.5449 12.3707 21.5503 12.407C21.5557 12.4433 21.5611 12.4822 21.5692 12.5185C21.5854 12.5911 21.6043 12.6663 21.6259 12.7363C21.6718 12.8815 21.7285 13.0215 21.7906 13.1589C21.8527 13.2963 21.9256 13.4311 22.0012 13.5607C22.0201 13.5944 22.039 13.6255 22.0579 13.6592L22.1173 13.7578C22.1362 13.7915 22.1578 13.8252 22.1767 13.8589L22.2064 13.9107L22.2334 13.9626C22.3765 14.2374 22.4791 14.5329 22.5466 14.8363C22.5628 14.9115 22.579 14.9892 22.5925 15.0644C22.606 15.1422 22.6168 15.2174 22.6249 15.2952C22.6276 15.3211 22.6303 15.3496 22.633 15.3755C22.8436 15.1189 23.0623 14.8726 23.2675 14.6185C23.4025 14.45 23.5348 14.2789 23.6455 14.0948C23.6725 14.0481 23.6995 14.0015 23.7238 13.9548C23.7481 13.9081 23.7697 13.8589 23.7886 13.8096C23.8075 13.7603 23.821 13.7085 23.8291 13.6566C23.8372 13.6048 23.8372 13.5503 23.8291 13.4985C23.8426 13.5503 23.848 13.6048 23.8453 13.6592C23.8426 13.7137 23.8345 13.7681 23.821 13.82C23.8075 13.8718 23.7913 13.9263 23.7724 13.9755C23.7535 14.0274 23.7319 14.0766 23.7076 14.1259C23.6131 14.3229 23.4997 14.5096 23.3809 14.6937C23.1433 15.0592 22.8868 15.4118 22.66 15.7748C22.5466 15.9563 22.4413 16.1403 22.3603 16.3244C22.3414 16.3711 22.3225 16.4178 22.3063 16.4644C22.2901 16.5111 22.2766 16.5578 22.2658 16.6018C22.255 16.6485 22.2469 16.6926 22.2442 16.7341L22.2415 16.7678L22.2388 16.8092L22.2307 16.8948L22.228 16.9363C22.2253 16.9492 22.2253 16.9648 22.2226 16.9778L22.2091 17.0633C22.201 17.1203 22.1875 17.1774 22.1767 17.2344C22.174 17.2474 22.1713 17.2629 22.1686 17.2759L22.1578 17.3174L22.1362 17.4029C22.1281 17.4315 22.1173 17.46 22.1092 17.4885L22.0957 17.53C22.093 17.5378 22.0903 17.5429 22.0876 17.5507L22.0795 17.5715L22.0471 17.6544C22.0363 17.6829 22.0228 17.7089 22.0093 17.7374C22.0039 17.7503 21.9958 17.7659 21.9904 17.7789L21.9688 17.8203L21.9472 17.8618C21.9391 17.8748 21.931 17.8878 21.9229 17.9033L21.8986 17.9448C21.8905 17.9578 21.8797 17.9707 21.8716 17.9837C21.8635 17.9966 21.8527 18.0096 21.8446 18.0226L21.8257 18.0485C21.985 18.1963 22.1416 18.3466 22.2901 18.5074C22.3603 18.5826 22.4278 18.6578 22.4953 18.7381C22.5304 18.7018 22.5628 18.6655 22.5979 18.6292C22.6762 18.5437 22.7518 18.4555 22.822 18.3674C22.8922 18.2766 22.9597 18.1859 23.0218 18.0926C23.0839 17.9992 23.1379 17.9033 23.1838 17.8048C23.2297 17.7063 23.2648 17.6078 23.2837 17.5118C23.2864 17.4989 23.2864 17.4885 23.2891 17.4755C23.2918 17.4626 23.2918 17.4522 23.2918 17.4392L23.2945 17.4029L23.2972 17.3485L23.2999 17.32C23.2999 17.3096 23.3026 17.3018 23.3053 17.2915L23.3134 17.237C23.3188 17.2189 23.3215 17.2007 23.3269 17.1826L23.335 17.1566L23.3431 17.1307C23.3917 16.9933 23.4673 16.8766 23.551 16.7755C23.6347 16.6744 23.7292 16.5837 23.8264 16.5007C24.0208 16.3348 24.2287 16.1974 24.442 16.0703C24.5824 15.9848 24.7282 15.907 24.8713 15.8292C24.8929 15.8007 24.9091 15.7696 24.9172 15.7333C24.928 15.6944 24.9334 15.6529 24.9361 15.6115C24.9388 15.57 24.9361 15.5259 24.9307 15.4844C24.9226 15.3989 24.9037 15.3107 24.8767 15.2278L24.8578 15.1629L24.8362 15.1007C24.82 15.0592 24.8038 15.0178 24.7876 14.9737C24.7552 14.8881 24.7282 14.8 24.712 14.7092C24.6958 14.6185 24.6877 14.5252 24.6985 14.4344C24.7093 14.3437 24.7417 14.2503 24.8011 14.1778C24.8308 14.1415 24.8659 14.1103 24.9037 14.0844C24.9415 14.0585 24.9874 14.0378 25.0333 14.0274C24.9874 14.0403 24.9469 14.0637 24.9091 14.0922C24.8713 14.1207 24.8389 14.1518 24.8146 14.1881C24.7633 14.2607 24.7363 14.3489 24.7309 14.437C24.7255 14.5252 24.739 14.6133 24.7606 14.6989C24.7822 14.7844 24.8146 14.87 24.8524 14.9503C24.928 15.1137 25.0009 15.2874 25.0333 15.4741C25.0414 15.5207 25.0468 15.5674 25.0468 15.6166C25.0468 15.6581 25.0441 15.6996 25.036 15.7437C25.0522 15.7333 25.0711 15.7255 25.0873 15.7178L25.1683 15.6763C25.1953 15.6607 25.2196 15.6478 25.2466 15.6322C25.2709 15.6166 25.2979 15.6011 25.3222 15.5855C25.333 15.5778 25.3465 15.57 25.36 15.5596L25.3951 15.5337C25.441 15.4974 25.4869 15.4585 25.5274 15.417C25.5706 15.3755 25.6084 15.3315 25.6462 15.2848C25.7191 15.1915 25.7785 15.0903 25.8244 14.9815C25.846 14.927 25.8676 14.87 25.8811 14.8129C25.8973 14.7559 25.9081 14.6963 25.9135 14.6392C25.9135 14.6989 25.9081 14.7585 25.8973 14.8181C25.8865 14.8778 25.873 14.9348 25.8568 14.9944C25.8217 15.1085 25.7677 15.22 25.7029 15.3237C25.6705 15.3755 25.6327 15.4248 25.5922 15.4741C25.5517 15.5233 25.5085 15.5674 25.4626 15.6089L25.4275 15.64C25.4167 15.6503 25.4032 15.6607 25.3924 15.6711C25.3681 15.6918 25.3438 15.71 25.3168 15.7281C25.2925 15.7463 25.2655 15.7644 25.2385 15.7826L25.1602 15.8318C25.1197 15.8578 25.0765 15.8863 25.036 15.9122C25.063 15.92 25.09 15.9252 25.1197 15.9303C25.1845 15.9433 25.252 15.9485 25.3195 15.9563C25.387 15.9615 25.4572 15.9666 25.5247 15.9666C25.5922 15.9692 25.6624 15.9692 25.7326 15.9692C25.6651 15.9796 25.5949 15.99 25.5274 16.0003C25.4599 16.0107 25.3897 16.0159 25.3195 16.0237C25.2493 16.0289 25.1791 16.034 25.1089 16.0315C25.0738 16.0315 25.036 16.0289 24.9982 16.0237L24.9685 16.0185C24.9577 16.0159 24.9496 16.0133 24.9388 16.0133C24.9334 16.0133 24.928 16.0107 24.9226 16.0081C24.9172 16.0055 24.9118 16.0055 24.9064 16.0029L24.8983 16.0003C24.7822 16.0781 24.6661 16.1585 24.5527 16.2389C24.3583 16.3815 24.172 16.5318 24.0127 16.6978C23.9317 16.7807 23.8588 16.8663 23.7967 16.957L23.7859 16.9726L23.7751 16.9907L23.7535 17.0244C23.7454 17.0348 23.74 17.0478 23.7346 17.0581C23.7292 17.0685 23.7211 17.0815 23.7157 17.0918C23.7049 17.1152 23.6941 17.1385 23.686 17.1618L23.6725 17.1955L23.6644 17.2292L23.659 17.2474L23.6563 17.2655L23.6509 17.2992L23.6482 17.3329C23.6482 17.3381 23.6482 17.3433 23.6482 17.3485V17.3641L23.6509 17.3978L23.6536 17.4522C23.6536 17.4703 23.6536 17.4885 23.6536 17.5066C23.6536 17.5248 23.6536 17.5429 23.6509 17.5585C23.6455 17.6285 23.632 17.6959 23.6185 17.7607C23.6023 17.8255 23.5834 17.8903 23.5618 17.9526C23.6887 17.9189 23.8156 17.8955 23.9452 17.8774C24.0829 17.8566 24.2206 17.8463 24.3583 17.8437C24.496 17.8411 24.6337 17.8437 24.7714 17.8566C24.8065 17.8592 24.8389 17.8618 24.874 17.867L24.9766 17.88C25.0414 17.8878 25.1062 17.8955 25.1737 17.9007C25.306 17.9111 25.4383 17.9137 25.5679 17.8981C25.7002 17.8852 25.8298 17.8592 25.9513 17.81C26.0134 17.7866 26.0701 17.7555 26.1268 17.7192C26.1538 17.7011 26.1808 17.6803 26.2051 17.6596C26.2294 17.6363 26.251 17.6129 26.2699 17.587C26.2537 17.6155 26.2321 17.6415 26.2105 17.6648C26.1889 17.6881 26.1646 17.7115 26.1376 17.7322C26.0863 17.7737 26.0296 17.81 25.9675 17.8411C25.846 17.9033 25.7137 17.9422 25.5787 17.9681C25.4437 17.9941 25.306 18.0044 25.1683 18.007C25.1008 18.007 25.0306 18.007 24.9631 18.0018L24.8632 17.9966C24.8308 17.9941 24.7984 17.9941 24.7633 17.9941C24.6499 17.9915 24.5338 17.9966 24.4204 18.007C24.4501 18.0303 24.4825 18.0563 24.5122 18.0796C24.5932 18.1418 24.6769 18.2015 24.7633 18.2585C24.8497 18.3155 24.9388 18.3674 25.0306 18.4141C25.0765 18.4374 25.1251 18.4581 25.1737 18.4763C25.2223 18.4944 25.2736 18.5074 25.3249 18.5126C25.2709 18.5126 25.2196 18.5022 25.1683 18.4918C25.117 18.4789 25.0657 18.4633 25.0171 18.4452C24.9172 18.4089 24.82 18.3648 24.7255 18.3155C24.631 18.2663 24.5392 18.2144 24.4501 18.16C24.3799 18.1159 24.3097 18.0744 24.2422 18.0278C24.1531 18.0407 24.0667 18.0537 23.9803 18.0744C23.8534 18.1029 23.7292 18.1366 23.6077 18.1807C23.5483 18.2015 23.4889 18.2248 23.4295 18.2507C23.4214 18.2689 23.4106 18.287 23.4025 18.3052C23.3431 18.4192 23.2783 18.5281 23.2081 18.6344C23.1406 18.7407 23.0677 18.8444 22.9921 18.9429C22.9543 18.9922 22.9165 19.0441 22.876 19.0933C22.8571 19.1166 22.8355 19.1426 22.8166 19.1659L22.8139 19.1685C22.8328 19.1996 22.8544 19.2281 22.8733 19.2592L22.8976 19.2878C22.9165 19.3085 22.9327 19.3292 22.9516 19.35C22.9894 19.3915 23.0272 19.4303 23.0677 19.4692C23.1487 19.547 23.2324 19.6222 23.3188 19.6922C23.4943 19.8322 23.6887 19.9541 23.8939 20.0474C24.0991 20.1407 24.3205 20.2055 24.5446 20.234C24.6013 20.2418 24.658 20.2444 24.7147 20.247C24.7714 20.2496 24.8281 20.2496 24.8848 20.247C24.9982 20.2418 25.1143 20.2289 25.225 20.2055L25.2682 20.1978L25.3087 20.1874C25.3357 20.1822 25.3654 20.1718 25.3924 20.1641C25.4194 20.1563 25.4464 20.1485 25.4761 20.1381L25.5598 20.1096C25.5868 20.1018 25.6138 20.0915 25.6408 20.0837L25.6381 20.0733C25.6462 20.0707 25.6489 20.0707 25.6543 20.0707L25.6678 20.0681C25.6759 20.0681 25.684 20.0655 25.6921 20.0655C25.7623 20.0448 25.8298 20.024 25.9 20.0033C26.1268 19.9359 26.3563 19.8763 26.5858 19.814C26.6992 19.7829 26.8153 19.7544 26.926 19.7181C26.9827 19.7 27.0367 19.6818 27.0907 19.6585C27.1447 19.6352 27.1933 19.6092 27.2392 19.5729C27.2851 19.5392 27.3229 19.4952 27.3472 19.4459C27.3742 19.3966 27.3904 19.3422 27.3985 19.2878C27.4093 19.2333 27.412 19.1763 27.4147 19.1192C27.4147 19.0622 27.4147 19.0052 27.412 18.9481C27.4174 19.0052 27.4228 19.0622 27.4228 19.1192C27.4255 19.1763 27.4228 19.2333 27.4174 19.2903C27.4093 19.3474 27.3958 19.4044 27.3715 19.4589C27.3472 19.5133 27.3067 19.56 27.2608 19.5989C27.2149 19.6378 27.1636 19.6689 27.1096 19.6948C27.0556 19.7207 27.0016 19.7441 26.9449 19.7648C26.8342 19.8063 26.7208 19.8426 26.6074 19.8789C26.4022 19.9437 26.197 20.0085 25.9945 20.0785C26.0161 20.0811 26.0377 20.0837 26.0566 20.0863C26.1916 20.107 26.3212 20.1407 26.4481 20.1822C26.575 20.2237 26.6992 20.2729 26.818 20.33C26.8774 20.3585 26.9368 20.387 26.9962 20.4181C27.0259 20.4337 27.0556 20.4492 27.0826 20.4648L27.169 20.5115C27.2797 20.5737 27.4012 20.6203 27.5281 20.6411C27.655 20.6644 27.7846 20.6566 27.9088 20.6203C28.033 20.5841 28.1437 20.5141 28.2409 20.4311C28.2895 20.3896 28.3327 20.3429 28.3732 20.2937C28.4137 20.2444 28.4515 20.1926 28.4812 20.1355C28.4515 20.1926 28.4164 20.247 28.3786 20.2989C28.3408 20.3507 28.2976 20.4 28.249 20.444C28.1545 20.5348 28.0438 20.6074 27.9169 20.6541C27.79 20.6981 27.6523 20.7111 27.5173 20.6929C27.3823 20.6748 27.2554 20.6307 27.1339 20.5711L27.0475 20.527C27.0178 20.5115 26.9881 20.4985 26.9611 20.4855C26.9017 20.457 26.8423 20.4311 26.7829 20.4078C26.6641 20.3585 26.5426 20.3144 26.4184 20.2807C26.2942 20.247 26.1673 20.2185 26.0404 20.2055C25.9783 20.1978 25.9135 20.1952 25.8514 20.1926C25.819 20.1926 25.7893 20.1926 25.7569 20.1952C25.7407 20.1952 25.7272 20.1978 25.711 20.2003C25.7029 20.2003 25.6948 20.2029 25.6894 20.2029L25.6786 20.2055C25.6759 20.2055 25.6705 20.2081 25.6705 20.2081L25.6678 20.2003C25.6462 20.2081 25.6246 20.2159 25.6003 20.2237L25.5166 20.2548C25.4869 20.2652 25.4599 20.2755 25.4302 20.2859C25.4005 20.2963 25.3735 20.3041 25.3438 20.3144L25.3006 20.3274L25.2574 20.3378C25.1386 20.3689 25.0171 20.3896 24.8956 20.4C24.8335 20.4052 24.7741 20.4078 24.712 20.4103C24.6499 20.4103 24.5878 20.4078 24.5257 20.4026C24.28 20.3844 24.037 20.3248 23.8075 20.234C23.7022 20.1926 23.5996 20.1433 23.4997 20.0889C23.5267 20.1278 23.551 20.1692 23.578 20.2081L23.6968 20.3922C23.7022 20.4 23.7049 20.4052 23.7103 20.4129C23.7103 20.4129 23.7103 20.4129 23.713 20.4155C23.7589 20.4622 23.8021 20.5063 23.8507 20.5503C23.9425 20.6385 24.0397 20.7266 24.1369 20.8096C24.2341 20.8926 24.3367 20.9755 24.4393 21.0559C24.5419 21.1363 24.6472 21.2115 24.7552 21.2841C24.8632 21.3566 24.9712 21.4292 25.0846 21.4966C25.1656 21.5459 25.2466 21.5926 25.3303 21.6392C25.3384 21.6418 25.3492 21.6418 25.36 21.6444C25.3708 21.647 25.3816 21.647 25.3924 21.6496C25.414 21.6522 25.4383 21.6548 25.4599 21.6548C25.4815 21.6574 25.5058 21.6574 25.5274 21.66C25.5517 21.66 25.5733 21.6626 25.5976 21.6626C25.6894 21.6652 25.7839 21.66 25.8757 21.6548C25.9 21.6522 25.9216 21.6496 25.9459 21.6496L25.981 21.647L26.0161 21.6418L26.0863 21.6341L26.1565 21.6237C26.2024 21.6159 26.2483 21.6081 26.2942 21.5978C26.3401 21.5874 26.386 21.577 26.4319 21.5666C26.3887 21.5822 26.3428 21.5978 26.2996 21.6107C26.2537 21.6237 26.2105 21.6392 26.1646 21.6496L26.0971 21.6678L26.0296 21.6833L25.9945 21.6911L25.9594 21.6989C25.9351 21.7041 25.9135 21.7092 25.8892 21.7118C25.7947 21.73 25.7029 21.7429 25.6057 21.7507C25.5868 21.7533 25.5679 21.7533 25.5517 21.7559C25.7434 21.8518 25.9432 21.9374 26.1457 22.0126C26.2078 22.0359 26.2699 22.0566 26.332 22.0774L26.4265 22.1085L26.521 22.1422C26.6452 22.1915 26.7694 22.2433 26.8855 22.3081L26.9287 22.3315C26.9449 22.3392 26.9584 22.3496 26.9719 22.3574L27.0583 22.4092L27.142 22.4663C27.169 22.4844 27.196 22.5052 27.223 22.5259C27.277 22.5648 27.3256 22.6089 27.3769 22.6529L27.4498 22.7203C27.4606 22.7307 27.4741 22.7437 27.4849 22.7541L27.52 22.7903C27.7009 22.9822 27.844 23.2026 27.9493 23.4385C28.0006 23.5578 28.0438 23.6796 28.0762 23.8015C28.1086 23.9259 28.1329 24.0529 28.141 24.18C28.1302 24.0529 28.1005 23.9285 28.0654 23.8041C28.0276 23.6822 27.9844 23.5603 27.9277 23.4463C27.817 23.2155 27.6685 23.0003 27.4849 22.8189L27.4498 22.7852C27.439 22.7748 27.4282 22.7618 27.4147 22.7515L27.3418 22.6866C27.2905 22.6452 27.2419 22.6037 27.1879 22.5674C27.1609 22.5492 27.1366 22.5285 27.1069 22.5129L27.0853 22.4974C27.0934 22.6063 27.1069 22.7126 27.1231 22.8215C27.142 22.9485 27.1636 23.0729 27.1933 23.1974C27.2068 23.2596 27.223 23.3218 27.2419 23.3841C27.2608 23.4463 27.2797 23.5059 27.304 23.5655C27.3283 23.6252 27.3553 23.6848 27.3877 23.7392C27.4201 23.7937 27.4606 23.8481 27.5092 23.8896C27.4579 23.8481 27.4174 23.7963 27.3796 23.7418C27.3445 23.6874 27.3148 23.6303 27.2878 23.5707C27.2608 23.5111 27.2365 23.4515 27.2176 23.3892C27.196 23.327 27.1771 23.2674 27.1609 23.2052C27.1258 23.0807 27.0988 22.9537 27.0745 22.8292C27.0502 22.7048 27.0313 22.5803 27.0151 22.4533L26.9422 22.4118C26.9287 22.4041 26.9152 22.3963 26.899 22.3885L26.8558 22.3678C26.7397 22.3081 26.6182 22.2615 26.494 22.2148L26.3995 22.1863C26.386 22.1837 26.3752 22.1785 26.3617 22.1759C26.3725 22.2044 26.3806 22.2329 26.3914 22.2615C26.4103 22.3185 26.4265 22.3755 26.4427 22.4326C26.4751 22.5466 26.4994 22.6633 26.5183 22.7826C26.5264 22.8422 26.5345 22.8992 26.5372 22.9589C26.5426 23.0185 26.5426 23.0781 26.5426 23.1378C26.5399 23.1974 26.5372 23.257 26.5291 23.3141C26.521 23.3737 26.5075 23.4307 26.4913 23.4878C26.5021 23.4307 26.5102 23.3711 26.5156 23.3141C26.5183 23.2544 26.5183 23.1974 26.5156 23.1378C26.5129 23.0807 26.5048 23.0211 26.4967 22.9641C26.4886 22.907 26.4751 22.85 26.4643 22.7929C26.4373 22.6789 26.4049 22.5674 26.3644 22.4559C26.3455 22.4015 26.3239 22.347 26.3023 22.2926C26.2807 22.2407 26.2564 22.1863 26.2321 22.137C26.1916 22.1241 26.1538 22.1137 26.116 22.0981C25.8622 22.0126 25.6165 21.9115 25.3762 21.7922C25.3573 21.7844 25.3384 21.7741 25.3222 21.7637C25.3195 21.7637 25.3195 21.7637 25.3168 21.7637V21.7611C25.2169 21.7118 25.1197 21.6574 25.0252 21.6029C24.9091 21.5381 24.7957 21.4681 24.685 21.3955C24.5743 21.3229 24.4636 21.2478 24.3583 21.17C24.2503 21.0922 24.145 21.0118 24.0424 20.9289C24.0316 20.9211 24.0235 20.9133 24.0127 20.9029C24.0613 20.9859 24.1072 21.0689 24.1531 21.1518C24.2962 21.4059 24.4258 21.6678 24.5473 21.9322L24.6364 22.1318C24.6661 22.1992 24.6931 22.2666 24.7201 22.3341L24.7606 22.4352L24.7984 22.5389L24.874 22.7437L24.9118 22.8422C24.9145 22.85 24.9172 22.8578 24.9199 22.8681L24.9307 22.8915L24.9523 22.9407L24.9739 22.99C24.982 23.0055 24.9901 23.0211 24.9982 23.0366C25.0144 23.0678 25.0306 23.0989 25.0468 23.13C25.117 23.2544 25.1953 23.3711 25.2844 23.4852L25.3519 23.5681C25.3762 23.5941 25.4005 23.6226 25.4248 23.6485C25.4491 23.677 25.4734 23.7003 25.5004 23.7263L25.5382 23.7652L25.5787 23.8015C25.684 23.9 25.7947 23.9933 25.9135 24.0815C26.1484 24.2552 26.4049 24.4029 26.6722 24.53C26.8045 24.5948 26.9422 24.6544 27.0772 24.7115L27.2824 24.797C27.3499 24.8255 27.4201 24.8541 27.4849 24.8903C27.4201 24.8566 27.3499 24.8307 27.2797 24.8048L27.0718 24.727C26.9314 24.6752 26.7937 24.6207 26.6587 24.5611C26.4373 24.4652 26.2213 24.3537 26.0161 24.2266C26.0458 24.3096 26.0728 24.39 26.0971 24.4729C26.1295 24.587 26.1565 24.7037 26.1754 24.8203C26.1862 24.88 26.1916 24.937 26.197 24.9966C26.2024 25.0563 26.2051 25.1159 26.2051 25.1729C26.2051 25.2326 26.2024 25.2922 26.1943 25.3492C26.1862 25.4089 26.1754 25.4659 26.1592 25.5229C26.1727 25.4659 26.1808 25.4063 26.1862 25.3492C26.1916 25.2896 26.1916 25.2326 26.1889 25.1729C26.1862 25.1133 26.1808 25.0563 26.1727 24.9992C26.1646 24.9422 26.1538 24.8826 26.143 24.8255C26.1187 24.7115 26.0863 24.5974 26.0485 24.4885C26.0107 24.377 25.9675 24.2681 25.9189 24.1644C25.9054 24.154 25.8892 24.1463 25.8757 24.1359C25.7515 24.0529 25.6354 23.9622 25.522 23.8637L25.4788 23.8274L25.4383 23.7885C25.4113 23.7626 25.3843 23.7392 25.3573 23.7107C25.3546 23.7081 25.3546 23.7081 25.3546 23.7055C25.3519 23.7626 25.3465 23.8222 25.3411 23.8792C25.333 23.9803 25.3195 24.0815 25.3033 24.1826C25.2871 24.2837 25.2682 24.3822 25.2466 24.4833C25.225 24.5818 25.198 24.6803 25.1683 24.7789C25.1386 24.8774 25.1035 24.9733 25.063 25.0666C25.0522 25.09 25.0441 25.1133 25.0306 25.1366L24.9982 25.2066C24.9874 25.23 24.9739 25.2507 24.9631 25.274C24.9523 25.2974 24.9388 25.3181 24.9253 25.3415C24.8308 25.5022 24.7066 25.6474 24.5554 25.7589C24.5554 25.7589 24.5527 25.7589 24.5527 25.7563C24.6985 25.637 24.8119 25.4892 24.8983 25.3259C24.9091 25.3026 24.9226 25.2818 24.9334 25.2585C24.9442 25.2352 24.955 25.2144 24.9658 25.1911L24.9955 25.1211C25.0063 25.0978 25.0144 25.0744 25.0225 25.0511C25.0576 24.9578 25.0873 24.8618 25.1116 24.7633C25.1359 24.6674 25.1575 24.5689 25.1737 24.4703C25.1899 24.3718 25.2034 24.2733 25.2142 24.1722C25.225 24.0711 25.2304 23.9726 25.2358 23.8741C25.2385 23.8248 25.2385 23.7755 25.2385 23.7237C25.2385 23.6744 25.2385 23.6252 25.2358 23.5785L25.2088 23.5474C25.1143 23.4333 25.0252 23.3141 24.9469 23.187C24.928 23.1559 24.9091 23.1222 24.8929 23.0911C24.8848 23.0755 24.874 23.06 24.8659 23.0418L24.8416 22.9926L24.8173 22.9433L24.8038 22.9174C24.8011 22.9096 24.7957 22.8992 24.793 22.8915L24.7498 22.7903L24.6688 22.5907L24.6283 22.4922L24.5824 22.3937C24.5527 22.3289 24.523 22.264 24.4933 22.1992L24.4231 22.0566C24.4177 22.08 24.4123 22.1059 24.4069 22.1292C24.3772 22.2459 24.3394 22.36 24.2935 22.4689C24.2476 22.5803 24.1909 22.6841 24.1288 22.7878L24.0802 22.8629L24.0586 22.8992C24.0505 22.9122 24.0451 22.9226 24.0397 22.9355C24.0154 22.9848 23.9938 23.0366 23.9803 23.0885C23.9533 23.1948 23.9506 23.3089 23.9587 23.4229C23.9695 23.537 23.9884 23.6511 24.0019 23.7678C24.0154 23.8844 24.0208 24.0011 24.0046 24.1178C23.9965 24.1748 23.9803 24.2318 23.9614 24.2889C23.9398 24.3433 23.9155 24.3952 23.8831 24.447C23.9101 24.3952 23.9344 24.3407 23.9506 24.2863C23.9668 24.2318 23.9776 24.1748 23.983 24.1178C23.9938 24.0037 23.9803 23.8896 23.9614 23.7755C23.9425 23.6615 23.9155 23.55 23.8966 23.4333C23.8912 23.3918 23.8858 23.3503 23.8831 23.3063L23.8696 23.3192L23.8426 23.3452C23.8075 23.3815 23.7724 23.4178 23.74 23.4566C23.6725 23.5318 23.6104 23.6122 23.5537 23.6952L23.5132 23.7574L23.4754 23.8222C23.4619 23.8429 23.4511 23.8663 23.4376 23.887L23.4214 23.9207L23.4133 23.9363L23.4052 23.9544L23.3755 24.0218C23.3701 24.0322 23.3674 24.0452 23.362 24.0581L23.3485 24.0944L23.335 24.1307C23.3296 24.1437 23.3269 24.1541 23.3242 24.167L23.3053 24.2396L23.3188 24.1644C23.3215 24.1515 23.3242 24.1385 23.3269 24.1281L23.3377 24.0918L23.3485 24.0555C23.3512 24.0426 23.3539 24.0322 23.3593 24.0192L23.3836 23.9466L23.389 23.9285L23.3971 23.9103L23.4133 23.8741C23.4241 23.8507 23.4322 23.8274 23.4457 23.8041L23.4808 23.7366L23.5186 23.6692C23.5699 23.5811 23.6266 23.4955 23.6887 23.4126C23.7211 23.3711 23.7508 23.3322 23.7859 23.2907L23.8102 23.2622L23.8372 23.2337C23.8534 23.2155 23.8696 23.1974 23.8885 23.1792C23.8912 23.1455 23.8939 23.1118 23.902 23.0781C23.9128 23.0185 23.9344 22.9589 23.9587 22.9044C23.9641 22.8915 23.9722 22.8759 23.9776 22.8629L23.9992 22.8215L24.0397 22.7463C24.0937 22.6452 24.1423 22.5415 24.1774 22.4352C24.2152 22.3289 24.2449 22.22 24.2638 22.1085C24.2692 22.08 24.2719 22.0541 24.2773 22.0255C24.28 21.997 24.2854 21.9711 24.2881 21.9426C24.2908 21.9141 24.2935 21.8881 24.2935 21.8596C24.2935 21.8466 24.2935 21.8311 24.2935 21.8181V21.8155C24.1936 21.6289 24.0883 21.4422 23.9776 21.2607C23.8291 21.0144 23.6725 20.7707 23.5105 20.5348L23.3593 20.3326C23.3431 20.3092 23.3269 20.2859 23.3107 20.2626C23.3188 20.2937 23.3269 20.3248 23.335 20.3533C23.416 20.6981 23.443 21.0533 23.416 21.4033C23.389 21.7533 23.308 22.0955 23.1784 22.4196C23.0515 22.7437 22.8733 23.0496 22.66 23.3244C22.8571 23.0366 23.011 22.7255 23.1136 22.3989C23.2189 22.0722 23.2729 21.7352 23.2783 21.3981C23.281 21.0611 23.2351 20.724 23.1352 20.4052C23.0353 20.0837 22.8895 19.7803 22.6951 19.5055C22.5466 19.2903 22.3738 19.0881 22.1875 18.9015C22.1902 18.9222 22.1929 18.9403 22.1956 18.9611C22.2226 19.1348 22.2388 19.3111 22.2415 19.4874C22.2496 19.84 22.2118 20.1952 22.1011 20.5322L22.0903 20.5633L22.0795 20.5944L22.0579 20.6566C22.0498 20.6774 22.0417 20.6981 22.0336 20.7189C22.0255 20.7396 22.0174 20.7603 22.0066 20.7811L21.9499 20.9003C21.931 20.9392 21.9121 20.9755 21.8986 21.017C21.8905 21.0352 21.8824 21.0559 21.8743 21.0766L21.8527 21.1363C21.8446 21.157 21.8392 21.1752 21.8338 21.1959L21.8257 21.227C21.823 21.2374 21.8203 21.2478 21.8176 21.2581L21.8041 21.3203C21.8014 21.3411 21.7987 21.3618 21.796 21.3826C21.7933 21.4033 21.7906 21.4241 21.7906 21.4448L21.7879 21.4759C21.7879 21.4863 21.7879 21.4966 21.7879 21.507C21.7879 21.59 21.7987 21.6729 21.8203 21.7559C21.8419 21.8363 21.877 21.914 21.9229 21.9866C21.9337 22.0048 21.9472 22.0229 21.958 22.0411C21.9715 22.0566 21.985 22.0748 21.9985 22.0903C22.0255 22.1241 22.0579 22.1552 22.0876 22.1837C22.12 22.2122 22.1551 22.2407 22.1902 22.2666C22.2253 22.2926 22.2631 22.3159 22.3036 22.3341C22.2631 22.3159 22.2226 22.2952 22.1848 22.2718C22.147 22.2485 22.1092 22.2226 22.0768 22.1941C22.0417 22.1655 22.0093 22.137 21.9796 22.1033C21.9634 22.0878 21.9499 22.0696 21.9337 22.0541C21.9202 22.0359 21.9067 22.0203 21.8932 22.0022C21.8419 21.9296 21.7987 21.8518 21.769 21.7663C21.7393 21.6833 21.7231 21.5952 21.7177 21.507C21.7177 21.4966 21.715 21.4837 21.715 21.4733V21.4396C21.715 21.4163 21.715 21.3955 21.7177 21.3722C21.7204 21.3489 21.7204 21.3281 21.7231 21.3048L21.7312 21.24C21.7339 21.2296 21.7339 21.2192 21.7366 21.2063L21.742 21.1726C21.7474 21.1518 21.7501 21.1285 21.7582 21.1078L21.7744 21.0429C21.7798 21.0222 21.7879 21.0015 21.796 20.9807C21.8095 20.9392 21.8257 20.8978 21.8419 20.8563L21.8878 20.737C21.8959 20.7163 21.9013 20.6981 21.9094 20.6774C21.9148 20.6566 21.9229 20.6385 21.9283 20.6178L21.9472 20.5581L21.9553 20.527L21.9634 20.4959C22.0444 20.1692 22.0606 19.8296 22.0282 19.4952C22.012 19.3292 21.9877 19.1607 21.9499 18.9974C21.931 18.9144 21.9121 18.8341 21.8878 18.7537C21.877 18.7122 21.8635 18.6733 21.85 18.6344C21.8446 18.6137 21.8365 18.5955 21.8311 18.5748V18.5722C21.634 18.4011 21.4288 18.2352 21.2182 18.0718C20.9428 17.8541 20.6593 17.6415 20.3839 17.4081C20.3164 17.3485 20.2462 17.2915 20.1787 17.2318L20.0869 17.1489L20.0788 17.1411C20.0464 17.11 20.0113 17.0789 19.9789 17.0478C19.9222 16.9933 19.8655 16.9363 19.8115 16.8792V17.4729V19.9048C19.8115 21.3307 20.4487 22.7048 21.5584 23.6692C22.876 24.8152 24.2395 25.8937 25.6111 26.8737C26.0998 27.2237 26.6695 27.4 27.2419 27.4C27.6982 27.4 28.1545 27.2885 28.5784 27.0629C29.0212 26.827 29.383 26.4848 29.626 26.0752C29.8879 25.6344 30.0013 25.1263 29.9554 24.6052C29.8015 22.7152 29.5045 20.9729 29.0806 19.4329Z" fill="white"/>
<path d="M19.7576 15.9148C19.7468 15.8966 19.736 15.8811 19.7252 15.8629L19.6928 15.8085L19.6307 15.7022L19.6145 15.6763L19.601 15.6478L19.5713 15.5933L19.5119 15.4844C19.3634 15.1915 19.2392 14.8855 19.1447 14.5744C19.0502 14.2633 18.9827 13.9444 18.9449 13.6229L18.9341 13.5011L18.9287 13.4415L18.926 13.4104L18.9233 13.3792L18.9152 13.2574L18.9125 13.1978L18.9098 13.1381C18.9071 13.0578 18.9044 12.9774 18.9071 12.897L18.9098 12.7752L18.9125 12.6481L19.0502 8.52332H17.9486L18.0863 12.6481L18.089 12.7752L18.0917 12.897C18.0944 12.9774 18.0917 13.0578 18.089 13.1381L18.0863 13.1978L18.0836 13.2574L18.0755 13.3792L18.0728 13.4104L18.0701 13.4415L18.0647 13.5011L18.0539 13.6229C18.0161 13.9444 17.9486 14.2633 17.8541 14.5744C17.7596 14.8855 17.6354 15.1915 17.4869 15.4844L17.4275 15.5933L17.3978 15.6478L17.3843 15.6763L17.3681 15.7022L17.306 15.8085L17.2736 15.8629C17.2628 15.8811 17.252 15.8966 17.2412 15.9148C17.2196 15.9459 17.2007 15.977 17.1818 16.0081V10.8048C17.1818 10.53 17.0468 10.2785 16.8092 10.1178C16.5716 9.95702 16.2638 9.91813 15.9911 10.0115C14.6195 10.4833 13.3883 11.1678 12.3272 12.0466C11.2931 12.9048 10.3967 13.9704 9.6596 15.2174C8.9441 16.4307 8.3582 17.8489 7.9208 19.4329C7.4969 20.9729 7.1972 22.7152 7.0352 24.6104C6.9893 25.1315 7.1054 25.6396 7.3646 26.0804C7.6076 26.4926 7.9694 26.8322 8.4122 27.0681C8.8361 27.2937 9.2924 27.4052 9.7487 27.4052C10.3238 27.4052 10.8935 27.2289 11.3795 26.8789C12.7511 25.8989 14.1146 24.8204 15.4322 23.6744C16.5419 22.7074 17.1791 21.3359 17.1791 19.91V16.8818C17.252 16.8067 17.3222 16.7289 17.3897 16.6511C17.4491 16.5811 17.5085 16.5111 17.5652 16.4411C17.6219 16.3711 17.6759 16.2959 17.7299 16.2233C17.7434 16.2052 17.7569 16.187 17.7704 16.1689L17.8082 16.1118L17.8865 15.9978L17.9054 15.9692L17.9243 15.9407L17.9594 15.8811L18.0323 15.7644C18.2159 15.4559 18.3725 15.1344 18.4994 14.8C18.6263 15.1344 18.7829 15.4585 18.9665 15.7644L19.0394 15.8811L19.0745 15.9381L19.0934 15.9666L19.1123 15.9952L19.1906 16.1092L19.2284 16.1663C19.2419 16.1844 19.2554 16.2026 19.2689 16.2207C19.3229 16.2933 19.3769 16.3685 19.4336 16.4385C19.4903 16.5111 19.5497 16.5811 19.6091 16.6485C19.6766 16.7263 19.7468 16.8041 19.8197 16.8792V16.0081C19.7981 15.977 19.7792 15.9459 19.7576 15.9148Z" fill="white"/>
</g>
<defs>
<clipPath id="clip0_158_2257">
<rect width="27" height="28" fill="white" transform="translate(5 5)"/>
</clipPath>
</defs>
</svg>
