<svg width="28" height="28" viewBox="0 0 28 28" fill="none" xmlns="http://www.w3.org/2000/svg">
<path d="M10.7334 8.40003H11.4735L4.94019 1.8667H1.04492L8.93345 9.79723C9.14345 8.9955 9.86726 8.40003 10.7334 8.40003Z" fill="white"/>
<path d="M16.7532 8.40003L10.2199 1.8667H6.25977L12.7931 8.40003H16.7532Z" fill="white"/>
<path d="M16.6402 6.9669L21.7404 1.8667H17.7803L14.6602 4.98683L16.6402 6.9669Z" fill="white"/>
<path d="M19.2682 9.5947L26.9551 1.8667H23.0599L17.2998 7.62677L19.2682 9.5947Z" fill="white"/>
<path d="M13.9998 12.1333C15.5575 12.1333 17.0033 12.6111 18.1998 13.4273V10.2666C18.1998 9.75139 17.7817 9.33325 17.2665 9.33325H10.7331C10.2179 9.33325 9.7998 9.75139 9.7998 10.2666V13.4273C10.9963 12.6111 12.4421 12.1333 13.9998 12.1333Z" fill="white"/>
<path d="M21.7412 15.6724L22.6727 14.741C22.8416 14.5716 23.0754 14.4666 23.3335 14.4666C23.8487 14.4666 24.2668 14.8847 24.2668 15.3999C24.2668 15.658 24.1618 15.8918 23.9924 16.0602L23.0609 16.9926C22.8915 17.1616 22.6582 17.2666 22.4001 17.2666C21.8849 17.2666 21.4668 16.8484 21.4668 16.3332C21.4668 16.0752 21.5718 15.8414 21.7412 15.6724Z" fill="white"/>
<path d="M24.2669 20.5334C24.7821 20.5334 25.2003 20.1153 25.2003 19.6001C25.2003 19.0849 24.7821 18.6667 24.2669 18.6667H22.8669C22.3513 18.6667 21.9336 19.0849 21.9336 19.6001C21.9336 20.1153 22.3513 20.5334 22.8669 20.5334H24.2669Z" fill="white"/>
<path d="M21.7412 23.5275L22.6727 24.4589C22.8416 24.6283 23.0754 24.7333 23.3335 24.7333C23.8487 24.7333 24.2668 24.3152 24.2668 23.8C24.2668 23.5419 24.1618 23.3081 23.9924 23.1397L23.0609 22.2073C22.8915 22.0384 22.6582 21.9333 22.4001 21.9333C21.8849 21.9333 21.4668 22.3515 21.4668 22.8667C21.4668 23.1247 21.5718 23.3585 21.7412 23.5275Z" fill="white"/>
<path d="M6.259 15.6724L5.32753 14.741C5.1586 14.5716 4.9248 14.4666 4.66673 14.4666C4.15153 14.4666 3.7334 14.8847 3.7334 15.3999C3.7334 15.658 3.8384 15.8918 4.0078 16.0602L4.93926 16.9926C5.10866 17.1616 5.342 17.2666 5.60007 17.2666C6.11527 17.2666 6.5334 16.8484 6.5334 16.3332C6.5334 16.0752 6.4284 15.8414 6.259 15.6724Z" fill="white"/>
<path d="M3.73314 20.5334C3.21747 20.5334 2.7998 20.1153 2.7998 19.6001C2.7998 19.0849 3.21747 18.6667 3.73314 18.6667H5.13314C5.64834 18.6667 6.06647 19.0849 6.06647 19.6001C6.06647 20.1153 5.64834 20.5334 5.13314 20.5334H3.73314Z" fill="white"/>
<path d="M6.259 23.5275L5.32753 24.4589C5.1586 24.6283 4.9248 24.7333 4.66673 24.7333C4.15153 24.7333 3.7334 24.3152 3.7334 23.8C3.7334 23.5419 3.8384 23.3081 4.0078 23.1397L4.93926 22.2073C5.10866 22.0384 5.342 21.9333 5.60007 21.9333C6.11527 21.9333 6.5334 22.3515 6.5334 22.8667C6.5334 23.1247 6.4284 23.3585 6.259 23.5275Z" fill="white"/>
<path d="M14.0001 13.0667C10.3919 13.0667 7.4668 15.9917 7.4668 19.6C7.4668 23.2083 10.3919 26.1333 14.0001 26.1333C17.6084 26.1333 20.5335 23.2083 20.5335 19.6C20.5335 15.9917 17.6084 13.0667 14.0001 13.0667ZM16.8001 23.3333C16.8001 23.5914 16.5915 23.8 16.3335 23.8H12.1335C11.8754 23.8 11.6668 23.5914 11.6668 23.3333V22.4C11.6668 22.1419 11.8754 21.9333 12.1335 21.9333H13.0668V18.6667H12.1335C11.8754 18.6667 11.6668 18.4581 11.6668 18.2V17.4599C11.6668 17.3357 11.7158 17.2172 11.8035 17.1299L13.3967 15.5367C13.4845 15.449 13.6025 15.4 13.7267 15.4H14.9335C15.1915 15.4 15.4001 15.6086 15.4001 15.8667V21.9333H16.3335C16.5915 21.9333 16.8001 22.1419 16.8001 22.4V23.3333Z" fill="white"/>
</svg>
