<svg width="28" height="28" viewBox="0 0 28 28" fill="none" xmlns="http://www.w3.org/2000/svg">
<path d="M13.3515 3.6667L7.42812 5.5553C6.93718 5.71257 6.41172 5.44237 6.25445 4.95143L6.11119 4.50717C5.95392 4.01623 6.22412 3.49077 6.71458 3.33303L12.638 1.44443C13.1294 1.28717 13.6544 1.55737 13.8121 2.0483L13.9554 2.49257C14.1127 2.98397 13.8425 3.50943 13.3515 3.6667Z" fill="white"/>
<path d="M23.1461 5.3685C22.7709 5.21823 22.3625 5.1333 21.9337 5.1333C20.1295 5.1333 18.667 6.59583 18.667 8.39997C18.667 9.51997 19.2312 10.5084 20.0908 11.0964L23.1461 5.3685Z" fill="white"/>
<path d="M23.9532 5.83643L20.9287 11.5078C21.2451 11.61 21.582 11.6665 21.9325 11.6665C23.7366 11.6665 25.1992 10.204 25.1992 8.39983C25.1992 7.35963 24.711 6.43469 23.9532 5.83643Z" fill="white"/>
<path d="M3.7992 20.8152C3.75627 21.0257 3.7334 21.2431 3.7334 21.4667C3.7334 23.2708 5.19593 24.7333 7.00007 24.7333C8.2442 24.7333 9.325 24.038 9.8766 23.0146L3.7992 20.8152Z" fill="white"/>
<path d="M10.1968 22.1377C10.2416 21.9212 10.2663 21.6967 10.2663 21.4666C10.2663 19.6625 8.80379 18.2 6.99966 18.2C5.74852 18.2 4.66306 18.9037 4.11426 19.9364L10.1968 22.1377Z" fill="white"/>
<path d="M18.7869 19.9136L17.4853 21.2151C17.0621 21.6374 16.7998 22.2212 16.7998 22.8666C16.7998 24.1556 17.8442 25.2 19.1331 25.2C19.7785 25.2 20.3623 24.9377 20.7847 24.5144L22.0862 23.2129L18.7869 19.9136Z" fill="white"/>
<path d="M22.7466 22.553L24.0481 21.2515C24.4714 20.8291 24.7337 20.2453 24.7337 19.5999C24.7337 18.311 23.6893 17.2666 22.4003 17.2666C21.7549 17.2666 21.1711 17.5289 20.7488 17.9521L19.4473 19.2537L22.7466 22.553Z" fill="white"/>
<path d="M13.7794 4.99984L7.85278 6.88891C7.61945 6.96357 7.37912 6.99997 7.14065 6.99997C6.77478 6.99997 6.41125 6.91364 6.07572 6.74144C5.82978 6.61497 5.61745 6.44371 5.43452 6.24584L2.98125 7.0261C2.58272 7.15444 2.32932 7.52544 2.33305 7.9235C2.33398 8.01497 2.34845 8.1083 2.37785 8.20071L5.26792 17.1355C5.80412 16.9213 6.38745 16.8 6.99971 16.8C9.57712 16.8 11.6664 18.8892 11.6664 21.4666C11.6664 23.66 10.1511 25.4954 8.11178 25.9942L8.24758 26.418C8.37358 26.8104 8.73431 27.0615 9.12445 27.0666C9.22291 27.0676 9.32325 27.0536 9.42172 27.0218L16.0106 24.9069C15.6256 24.3198 15.3997 23.6194 15.3997 22.8666C15.3997 21.868 15.7898 20.93 16.4964 20.2239L19.7584 16.9624C20.463 16.2563 21.401 15.8666 22.3997 15.8666C22.6088 15.8666 22.8127 15.8881 23.0124 15.9212L22.0936 13.0582C22.0399 13.0601 21.9872 13.0666 21.933 13.0666C19.3556 13.0666 17.2664 10.9769 17.2664 8.39997C17.2664 6.77737 18.0947 5.34984 19.3514 4.51357L18.9044 3.12057C18.748 2.63337 18.2949 2.32864 17.8086 2.3333C17.6966 2.33424 17.5828 2.34684 17.4703 2.38324L15.3768 3.05477C15.3442 3.32637 15.27 3.59377 15.1412 3.84437C14.8565 4.39924 14.3726 4.80944 13.7794 4.99984ZM6.54471 11.6312C6.26705 11.5383 6.06638 11.2756 6.06638 10.9666C6.06638 10.5802 6.37998 10.2666 6.76638 10.2666C6.84385 10.2666 6.91852 10.2792 6.98805 10.3021L7.76178 10.5602L8.45011 8.84004C8.55278 8.58244 8.80478 8.39997 9.09972 8.39997C9.48611 8.39997 9.79972 8.71357 9.79972 9.09997C9.79972 9.19191 9.78198 9.27964 9.74978 9.3599L8.81645 11.6932C8.71332 11.9508 8.46132 12.1333 8.16638 12.1333C8.08891 12.1333 8.01425 12.1207 7.94472 12.0978L6.54471 11.6312ZM11.1498 13.0932L10.2164 15.4266C10.1133 15.6842 9.86132 15.8666 9.56638 15.8666C9.48891 15.8666 9.41425 15.854 9.34471 15.8312L7.94472 15.3645C7.66705 15.2716 7.46638 15.0089 7.46638 14.7C7.46638 14.3136 7.77998 14 8.16638 14C8.24385 14 8.31852 14.0126 8.38805 14.0354L9.16178 14.2935L9.85012 12.5734C9.95278 12.3158 10.2048 12.1333 10.4997 12.1333C10.8861 12.1333 11.1997 12.4469 11.1997 12.8333C11.1997 12.9252 11.182 13.013 11.1498 13.0932ZM12.3664 9.3333C11.98 9.3333 11.6664 9.0197 11.6664 8.63331C11.6664 8.32437 11.867 8.06164 12.1447 7.96924L14.9447 7.0359C15.0142 7.01257 15.0889 6.99997 15.1664 6.99997C15.5528 6.99997 15.8664 7.31357 15.8664 7.69997C15.8664 8.0089 15.6657 8.27164 15.388 8.36404L12.588 9.29737C12.518 9.3207 12.4438 9.3333 12.3664 9.3333ZM13.7664 13.0666C13.38 13.0666 13.0664 12.753 13.0664 12.3666C13.0664 12.0577 13.267 11.795 13.5447 11.7026L16.3447 10.7692C16.4142 10.7459 16.4889 10.7333 16.5664 10.7333C16.9528 10.7333 17.2664 11.0469 17.2664 11.4333C17.2664 11.7422 17.0657 12.005 16.788 12.0974L13.988 13.0307C13.918 13.054 13.8438 13.0666 13.7664 13.0666Z" fill="white"/>
</svg>
