<svg width="121" height="64" viewBox="0 0 121 64" fill="none" xmlns="http://www.w3.org/2000/svg">
<path d="M3.86443 60.6088C2.85022 60.6088 2.04401 60.2616 1.44579 59.5671C0.847576 58.8692 0.548469 57.9306 0.548469 56.7514C0.548469 55.5859 0.847576 54.6576 1.44579 53.9666C2.04744 53.2756 2.85366 52.93 3.86443 52.93C4.63799 52.93 5.30324 53.1535 5.8602 53.6005C6.4206 54.044 6.75752 54.6181 6.87098 55.3229H6.15415C6.0407 54.8106 5.77081 54.3929 5.3445 54.0697C4.92162 53.7466 4.42827 53.585 3.86443 53.585C3.07369 53.585 2.44282 53.8721 1.97181 54.4462C1.50424 55.0169 1.27045 55.7853 1.27045 56.7514C1.27045 57.7312 1.50424 58.5099 1.97181 59.0875C2.44282 59.6651 3.07541 59.9539 3.86959 59.9539C4.45062 59.9539 4.94569 59.8129 5.35481 59.531C5.76738 59.2457 6.0321 58.8589 6.149 58.3707H6.86582C6.72486 59.0686 6.38794 59.617 5.85505 60.0158C5.32215 60.4112 4.65862 60.6088 3.86443 60.6088ZM10.3623 60.4902H9.65577V53.6881H7.16493V53.0486H12.8531V53.6881H10.3623V60.4902ZM13.8536 53.0486H16.494C17.2022 53.0486 17.7764 53.2618 18.2164 53.6881C18.6599 54.1144 18.8817 54.6731 18.8817 55.3642C18.8817 56.0552 18.6599 56.6156 18.2164 57.0453C17.7729 57.4717 17.1971 57.6848 16.4888 57.6848H14.5549V60.4902H13.8536V53.0486ZM14.5549 53.6778V57.0557H16.329C16.8997 57.0557 17.3466 56.9061 17.6698 56.607C17.9964 56.3079 18.1597 55.8936 18.1597 55.3642C18.1597 54.8347 17.9981 54.4221 17.6749 54.1265C17.3518 53.8274 16.9031 53.6778 16.329 53.6778H14.5549ZM24.3378 60.4902L23.5127 58.2108H20.3875L19.5624 60.4902H18.8146L21.5994 53.0486H22.3008L25.0804 60.4902H24.3378ZM21.9346 53.9202L20.599 57.6023H23.3013L21.9656 53.9202H21.9346ZM25.4208 60.4902L28.0096 56.7669V56.7411L25.4414 53.0486H26.2923L28.4634 56.2099H28.4892L30.6758 53.0486H31.4855L28.8708 56.772V56.7926L31.4442 60.4902H30.5984L28.4377 57.3445H28.4119L26.2201 60.4902H25.4208ZM35.1676 52.93C36.2058 52.93 37.0293 53.2756 37.6378 53.9666C38.2463 54.6576 38.5506 55.5928 38.5506 56.772C38.5506 57.9513 38.2463 58.8864 37.6378 59.5774C37.0293 60.265 36.2058 60.6088 35.1676 60.6088C34.1293 60.6088 33.3059 60.265 32.6974 59.5774C32.0923 58.8864 31.7897 57.9513 31.7897 56.772C31.7897 55.5928 32.094 54.6576 32.7025 53.9666C33.311 53.2756 34.1327 52.93 35.1676 52.93ZM37.1066 54.4462C36.6287 53.8721 35.9824 53.585 35.1676 53.585C34.3528 53.585 33.7064 53.8721 33.2285 54.4462C32.7506 55.0204 32.5117 55.7956 32.5117 56.772C32.5117 57.745 32.7506 58.5185 33.2285 59.0927C33.7098 59.6668 34.3562 59.9539 35.1676 59.9539C35.9824 59.9539 36.6287 59.6668 37.1066 59.0927C37.5879 58.5185 37.8286 57.745 37.8286 56.772C37.8286 55.7956 37.5879 55.0204 37.1066 54.4462ZM42.506 60.4902H39.7522V53.0486H42.4905C43.13 53.0486 43.6474 53.2171 44.0428 53.554C44.4416 53.891 44.641 54.3345 44.641 54.8846C44.641 55.2971 44.5121 55.6615 44.2542 55.9778C43.9998 56.2941 43.6749 56.4884 43.2796 56.5606V56.5967C43.8021 56.6586 44.2233 56.8563 44.543 57.1897C44.8628 57.5198 45.0226 57.9392 45.0226 58.4481C45.0226 59.0841 44.7992 59.5843 44.3522 59.9487C43.9053 60.3097 43.2899 60.4902 42.506 60.4902ZM40.4535 53.6726V56.3543H42.1347C42.6985 56.3543 43.1386 56.2323 43.4549 55.9882C43.7712 55.7406 43.9293 55.3985 43.9293 54.9619C43.9293 54.5562 43.7884 54.2399 43.5065 54.013C43.2246 53.7861 42.8361 53.6726 42.341 53.6726H40.4535ZM40.4535 59.8662H42.4132C43.0183 59.8662 43.4841 59.7407 43.8107 59.4898C44.1373 59.2354 44.3007 58.8761 44.3007 58.412C44.3007 57.9478 44.1288 57.5903 43.785 57.3393C43.4446 57.0883 42.9547 56.9628 42.3152 56.9628H40.4535V59.8662ZM51.0821 60.4902L50.257 58.2108H47.1319L46.3067 60.4902H45.559L48.3438 53.0486H49.0451L51.8248 60.4902H51.0821ZM48.679 53.9202L47.3433 57.6023H50.0456L48.7099 53.9202H48.679ZM56.5692 56.6225L60.5453 60.4902H59.5654L55.8266 56.8391H55.7905V60.4902H55.0891V53.0486H55.7905V56.509H55.8266L59.3179 53.0486H60.2204L56.5692 56.6225ZM64.1604 52.93C65.1986 52.93 66.022 53.2756 66.6306 53.9666C67.2391 54.6576 67.5434 55.5928 67.5434 56.772C67.5434 57.9513 67.2391 58.8864 66.6306 59.5774C66.022 60.265 65.1986 60.6088 64.1604 60.6088C63.1221 60.6088 62.2987 60.265 61.6901 59.5774C61.085 58.8864 60.7825 57.9513 60.7825 56.772C60.7825 55.5928 61.0868 54.6576 61.6953 53.9666C62.3038 53.2756 63.1255 52.93 64.1604 52.93ZM66.0994 54.4462C65.6215 53.8721 64.9752 53.585 64.1604 53.585C63.3455 53.585 62.6992 53.8721 62.2213 54.4462C61.7434 55.0204 61.5045 55.7956 61.5045 56.772C61.5045 57.745 61.7434 58.5185 62.2213 59.0927C62.7026 59.6668 63.349 59.9539 64.1604 59.9539C64.9752 59.9539 65.6215 59.6668 66.0994 59.0927C66.5807 58.5185 66.8214 57.745 66.8214 56.772C66.8214 55.7956 66.5807 55.0204 66.0994 54.4462ZM75.9132 53.0486V60.4902H75.2531V54.3843H75.2222L72.6333 60.4541H72.0197L69.436 54.3843H69.405V60.4902H68.7449V53.0486H69.5546L72.3136 59.562H72.3445L75.0984 53.0486H75.9132ZM83.0763 60.4902H82.3801V53.6933H78.1153V60.4902H77.4087V53.0486H83.0763V60.4902ZM89.5226 60.4902L88.6975 58.2108H85.5723L84.7472 60.4902H83.9994L86.7842 53.0486H87.4856L90.2652 60.4902H89.5226ZM87.1194 53.9202L85.7838 57.6023H88.486L87.1504 53.9202H87.1194ZM96.9487 60.4902H96.2422V56.9989H91.8897V60.4902H91.1883V53.0486H91.8897V56.3595H96.2422V53.0486H96.9487V60.4902ZM99.1508 60.4902H98.4494V53.0486H99.1508V60.4902ZM104.798 56.8648V53.6881H103.034C102.453 53.6881 102.001 53.8274 101.678 54.1058C101.358 54.3809 101.198 54.7694 101.198 55.2713C101.198 55.7733 101.36 56.1652 101.683 56.4471C102.006 56.7256 102.456 56.8648 103.034 56.8648H104.798ZM103.07 57.5043L100.976 60.4902H100.141L102.297 57.4166C101.746 57.3101 101.306 57.066 100.976 56.6844C100.646 56.3027 100.481 55.8317 100.481 55.2713C100.481 54.6078 100.7 54.0715 101.136 53.6623C101.576 53.2532 102.152 53.0486 102.864 53.0486H105.499V60.4902H104.798V57.5043H103.07Z" fill="#2D64F4"/>
<path d="M0.0902308 11.8566C0.0902308 10.8331 0.631615 10.3213 1.71438 10.3213L18.6777 10.3213C19.7605 10.3213 20.3019 10.8331 20.3019 11.8566V13.1361C20.3019 14.1596 19.7605 14.6714 18.6777 14.6714L4.87245 14.6714L4.87245 25.4187H15.7001C16.7829 25.4187 17.3243 25.9305 17.3243 26.954V28.2334C17.3243 29.257 16.7829 29.7688 15.7001 29.7688L4.87245 29.7688L4.87245 41.1131H18.5875C19.6702 41.1131 20.2116 41.6249 20.2116 42.6485L20.2116 43.9279C20.2116 44.9515 19.6702 45.4632 18.5875 45.4632H1.62415C0.631614 45.4632 0 44.9515 0 43.9279L0 11.8566H0.0902308Z" fill="#2D64F4"/>
<path d="M30.0473 10.4067H31.6715C32.7543 10.4067 33.2956 10.9185 33.2956 11.9421V27.3806L45.6572 11.4303C46.1084 10.7479 46.6497 10.4067 47.7325 10.4067H49.9883C50.9808 10.4067 51.3417 11.5156 50.8004 12.198L40.3336 24.9924L51.071 43.5869C51.5222 44.3546 51.1613 45.2928 50.0785 45.2928H48.0032C46.9204 45.2928 46.3791 44.9516 45.9279 44.0987L37.356 28.7454L33.3859 33.6073L33.3859 43.7575C33.3859 44.781 32.8445 45.2928 31.7617 45.2928H30.1376C29.145 45.2928 28.5134 44.781 28.5134 43.7575L28.5134 11.8568C28.4232 10.8332 29.0548 10.4067 30.0473 10.4067Z" fill="#2D64F4"/>
<path d="M63.884 14.6714L57.0265 14.6714C55.9437 14.6714 55.4023 14.1596 55.4023 13.1361V11.8566C55.4023 10.8331 55.9437 10.3213 57.0265 10.3213L75.614 10.3213C76.6967 10.3213 77.2381 10.8331 77.2381 11.8566V13.1361C77.2381 14.1596 76.6967 14.6714 75.614 14.6714L68.6662 14.6714V43.8426C68.6662 44.8662 68.1248 45.3779 67.0421 45.3779H65.4179C64.3352 45.3779 63.7938 44.8662 63.7938 43.8426L63.7938 14.6714H63.884Z" fill="#2D64F4"/>
<path d="M83.1924 20.4764C83.1924 13.3116 88.1551 9.80908 94.4712 9.80908C100.787 9.80908 105.57 13.3915 105.57 20.5564V43.8422C105.57 44.8657 105.028 45.3775 103.945 45.3775H102.321C101.238 45.3775 100.697 44.8657 100.697 43.8422V33.5214H88.0648V43.8422C88.0648 44.8657 87.5234 45.3775 86.4407 45.3775H84.8165C83.7338 45.3775 83.1924 44.8657 83.1924 43.8422V20.5564V20.4764ZM88.1551 29.2566L100.787 29.2566V20.9829C100.787 15.8651 97.9 14.0739 94.4712 14.0739C90.9522 14.0739 88.1551 15.7798 88.1551 20.9829V29.2566Z" fill="#2D64F4"/>
<path d="M114.322 0C110.622 0 107.645 2.81476 107.645 6.3119C107.645 9.80904 110.622 12.6238 114.322 12.6238C118.021 12.6238 120.999 9.80904 120.999 6.3119C121.089 2.81476 118.021 0 114.322 0ZM114.322 10.1502C112.156 10.1502 110.351 8.44431 110.351 6.3972C110.351 4.3501 112.156 2.64418 114.322 2.64418C116.487 2.64418 118.292 4.3501 118.292 6.3972C118.382 8.44431 116.577 10.1502 114.322 10.1502Z" fill="#2D64F4"/>
</svg>
