<svg width="16" height="17" viewBox="0 0 16 17" fill="none" xmlns="http://www.w3.org/2000/svg">
<path d="M6.53164 0.160645C6.46091 0.160645 6.37954 0.171886 6.28782 0.195375C2.67294 1.12364 0 4.4132 0 8.33119C0 12.9703 3.74623 16.7311 8.36744 16.7311C11.1431 16.7311 13.602 15.3736 15.1239 13.2845C15.4244 12.8722 15.2809 12.606 14.8493 12.606C14.7923 12.606 14.7303 12.6106 14.6636 12.6201C14.3015 12.672 13.9316 12.699 13.5552 12.699C9.21128 12.699 5.68984 9.16386 5.68984 4.80317C5.68984 3.37069 6.07069 2.02779 6.73549 0.869757C6.97586 0.450922 6.89237 0.160645 6.53164 0.160645Z" fill="black" fill-opacity="0.5"/>
<path d="M12.0849 8.14608L12.9015 8.46673L13.0944 9.30641C13.1498 9.54705 13.2748 9.67265 13.4244 9.67265C13.5338 9.67265 13.6564 9.6055 13.7745 9.46713L14.3383 8.80641L15.2141 8.88619C15.2435 8.88887 15.2715 8.89016 15.2984 8.89016C15.669 8.89016 15.7972 8.64046 15.5806 8.30321L15.1125 7.57458L15.4608 6.78379C15.6057 6.45509 15.4864 6.23783 15.1945 6.23783C15.1383 6.23783 15.0757 6.24587 15.0073 6.26272L14.1543 6.47321L13.4936 5.90491C13.3727 5.80101 13.257 5.75122 13.1576 5.75122C12.9876 5.75122 12.8655 5.89699 12.8469 6.16596L12.7878 7.0248L12.0313 7.46391C11.6558 7.68169 11.6798 7.98715 12.0849 8.14608Z" fill="black" fill-opacity="0.5"/>
<path d="M14.9332 1.53319C14.8919 1.53319 14.8461 1.53905 14.796 1.55143L14.1703 1.70577L13.6859 1.28898C13.5972 1.21278 13.5123 1.17627 13.4395 1.17627C13.3147 1.17627 13.2252 1.28312 13.2116 1.48045L13.1683 2.11029L12.6134 2.43236C12.3382 2.59205 12.3558 2.81607 12.6528 2.93261L13.2517 3.16762L13.3932 3.78328C13.4338 3.95982 13.5254 4.05199 13.6353 4.05199C13.7155 4.05199 13.8053 4.00284 13.8919 3.90148L14.3054 3.41692L14.9475 3.47513C14.9692 3.47717 14.99 3.47807 15.0098 3.47807C15.2813 3.47807 15.3751 3.29489 15.2163 3.04776L14.873 2.51354L15.1285 1.93362C15.2347 1.69262 15.1472 1.53319 14.9332 1.53319Z" fill="black" fill-opacity="0.5"/>
<path d="M10.1623 3.95174C10.1286 3.95174 10.091 3.95659 10.0501 3.96666L9.53824 4.09292L9.14187 3.75183C9.06937 3.68954 9 3.65967 8.94038 3.65967C8.83833 3.65967 8.76498 3.7471 8.75389 3.90859L8.7184 4.42378L8.2644 4.68738C8.03917 4.8181 8.05365 5.00128 8.29657 5.09664L8.78663 5.289L8.90247 5.79272C8.93566 5.93721 9.01065 6.01253 9.10045 6.01253C9.16607 6.01253 9.23959 5.97232 9.31044 5.88934L9.64872 5.49286L10.1742 5.54073C10.1918 5.54239 10.2087 5.54316 10.2249 5.54316C10.4472 5.54316 10.524 5.39316 10.394 5.19096L10.1132 4.75389L10.3221 4.27941C10.4091 4.08206 10.3375 3.95174 10.1623 3.95174Z" fill="black" fill-opacity="0.5"/>
</svg>
