<svg width="21" height="22" viewBox="0 0 21 22" fill="none" xmlns="http://www.w3.org/2000/svg">
<g clip-path="url(#clip0_199_1877)">
<path d="M10.3042 15.5838C10.4995 15.5838 10.6671 15.6536 10.807 15.7931C10.9352 15.921 11.0047 16.0722 11.0154 16.2466L11.0168 16.2947V17.8271C11.0168 18.022 10.9469 18.1905 10.807 18.3327C10.6671 18.4748 10.4995 18.5459 10.3042 18.5459C10.1142 18.5459 9.94922 18.4748 9.80934 18.3327C9.68111 18.2023 9.61165 18.0499 9.60097 17.8753L9.59951 17.8271V16.2947C9.59951 16.0998 9.66945 15.9327 9.80934 15.7931C9.94922 15.6536 10.1142 15.5838 10.3042 15.5838ZM14.5364 13.8302C14.7179 13.8302 14.8738 13.8855 15.0043 13.9961L15.0392 14.0277L16.1477 15.1256C16.2797 15.2573 16.3457 15.4218 16.3457 15.6193C16.3457 15.8168 16.2797 15.984 16.1477 16.1209C16.0105 16.2578 15.8429 16.3263 15.6449 16.3263C15.4635 16.3263 15.3098 16.271 15.1837 16.1604L15.1501 16.1288L14.0336 15.0308C13.9017 14.8939 13.8357 14.7267 13.8357 14.5292C13.8357 14.3318 13.9017 14.1646 14.0336 14.0277C14.1709 13.896 14.3385 13.8302 14.5364 13.8302ZM6.06806 13.8302C6.26865 13.8302 6.43757 13.8986 6.57481 14.0356C6.70678 14.1672 6.77277 14.3318 6.77277 14.5292C6.77277 14.7103 6.7151 14.8658 6.59978 14.996L6.5669 15.0308L5.46629 16.1209C5.32904 16.2578 5.16012 16.325 4.95953 16.3223C4.75894 16.3197 4.59266 16.2499 4.46069 16.113C4.32345 15.9761 4.25614 15.8089 4.25878 15.6114C4.2612 15.4304 4.31796 15.277 4.42905 15.1513L4.46069 15.1177L5.56922 14.0277C5.70119 13.896 5.86747 13.8302 6.06806 13.8302ZM10.3042 6.42084C10.8321 6.42084 11.3309 6.52221 11.8007 6.72496C12.2705 6.9277 12.6836 7.2068 13.0399 7.56226C13.3962 7.91772 13.6773 8.32979 13.8832 8.79846C14.089 9.26714 14.192 9.76742 14.192 10.2993C14.192 10.8312 14.089 11.3314 13.8832 11.8001C13.6773 12.2688 13.3962 12.6809 13.0399 13.0363C12.6836 13.3918 12.2705 13.6722 11.8007 13.8776C11.3309 14.083 10.8321 14.1856 10.3042 14.1856C9.77107 14.1856 9.27091 14.083 8.80375 13.8776C8.33658 13.6722 7.92352 13.3918 7.56457 13.0363C7.20562 12.6809 6.92453 12.2688 6.7213 11.8001C6.51807 11.3314 6.41645 10.8312 6.41645 10.2993C6.41645 9.76742 6.51807 9.26714 6.7213 8.79846C6.92453 8.32979 7.20562 7.91772 7.56457 7.56226C7.92352 7.2068 8.33658 6.9277 8.80375 6.72496C9.27091 6.52221 9.77107 6.42084 10.3042 6.42084ZM17.8422 9.59627C18.0322 9.59627 18.1972 9.66605 18.3371 9.8056C18.477 9.94515 18.5469 10.1097 18.5469 10.2993C18.5469 10.4941 18.477 10.6613 18.3371 10.8009C18.2089 10.9288 18.0596 10.9981 17.8892 11.0088L17.8422 11.0102H16.2982C16.1029 11.0102 15.9353 10.9404 15.7954 10.8009C15.6555 10.6613 15.5856 10.4941 15.5856 10.2993C15.5856 10.1097 15.6555 9.94515 15.7954 9.8056C15.9236 9.67768 16.0751 9.60839 16.2499 9.59773L16.2982 9.59627H17.8422ZM4.31817 9.59627C4.5082 9.59627 4.67316 9.66605 4.81305 9.8056C4.95293 9.94515 5.02288 10.1097 5.02288 10.2993C5.02288 10.4941 4.95293 10.6613 4.81305 10.8009C4.68482 10.9288 4.53552 10.9981 4.36515 11.0088L4.31817 11.0102H2.77415C2.57884 11.0102 2.41124 10.9404 2.27135 10.8009C2.13147 10.6613 2.06152 10.4941 2.06152 10.2993C2.06152 10.1097 2.13147 9.94515 2.27135 9.8056C2.39958 9.67768 2.5511 9.60839 2.7259 9.59773L2.77415 9.59627H4.31817ZM15.641 4.27624C15.8416 4.27361 16.0079 4.34075 16.1398 4.47767C16.2771 4.61458 16.3457 4.7831 16.3457 4.98321C16.3457 5.16664 16.2902 5.32353 16.1794 5.45386L16.1477 5.48875L15.0471 6.57882C14.9099 6.71574 14.741 6.7842 14.5404 6.7842C14.3398 6.7842 14.1709 6.71837 14.0336 6.58672C13.9017 6.44454 13.8357 6.27602 13.8357 6.08118C13.8357 5.90257 13.8911 5.7483 14.002 5.61837L14.0336 5.58354L15.1421 4.48557C15.2741 4.34865 15.4404 4.27887 15.641 4.27624ZM4.97933 4.28019C5.16562 4.28502 5.32197 4.34294 5.44839 4.45397L5.48212 4.48557L6.57481 5.58354C6.70678 5.71519 6.77277 5.88107 6.77277 6.08118C6.77277 6.28129 6.70414 6.4498 6.5669 6.58672C6.42965 6.71837 6.26205 6.7842 6.0641 6.7842C5.88264 6.7842 5.72891 6.72667 5.6029 6.61163L5.56922 6.57882L4.46861 5.48085C4.33664 5.3492 4.27066 5.18332 4.27066 4.98321C4.27066 4.79849 4.33138 4.6407 4.45282 4.50982L4.48445 4.47767C4.61114 4.34075 4.7761 4.27492 4.97933 4.28019ZM10.3042 2.06055C10.4995 2.06055 10.6671 2.13164 10.807 2.27382C10.9352 2.40416 11.0047 2.5544 11.0154 2.72456L11.0168 2.77146V4.31179C11.0168 4.50136 10.9469 4.66724 10.807 4.80943C10.6671 4.95161 10.4995 5.0227 10.3042 5.0227C10.1142 5.0227 9.94922 4.95161 9.80934 4.80943C9.68111 4.67909 9.61165 4.52885 9.60097 4.35869L9.59951 4.31179V2.77146C9.59951 2.58189 9.66945 2.41601 9.80934 2.27382C9.94922 2.13164 10.1142 2.06055 10.3042 2.06055Z" fill="black"/>
</g>
<defs>
<clipPath id="clip0_199_1877">
<rect width="20.6067" height="21.0189" fill="white"/>
</clipPath>
</defs>
</svg>
